<svg width="224" height="224" viewBox="0 0 224 224" fill="none" xmlns="http://www.w3.org/2000/svg">
<path d="M22.5095 29.4435C21.9563 27.4897 21.6104 25.4194 20.7735 23.5623C20.0258 21.9028 18.61 21.7277 17.5311 23.1288C16.5356 24.4222 15.7307 26.0163 15.3808 27.5931C14.832 30.0673 15.1481 32.5721 16.9754 34.5877C18.4416 36.2048 20.1959 36.0484 21.1256 34.1101C21.7884 32.7278 22.0232 31.1478 22.5095 29.4435ZM0 45.2182C1.86434 37.8805 6.12312 31.5456 8.96171 24.6156C10.8487 20.0083 11.4327 15.3011 10.5401 10.3701C10.2028 8.50486 10.2647 6.53161 10.4164 4.62861C10.6207 2.06445 12.6987 0.427959 15.3725 0.888266C19.7834 1.64756 23.9135 3.18062 27.2199 6.31699C29.4252 8.40814 30.2588 11.05 29.5148 13.911C26.9567 23.7472 29.0605 32.8588 33.5542 41.6992C34.9028 44.3523 36.2457 47.0856 37.002 49.9328C37.9892 53.6502 33.9976 58.6349 30.1118 59.0857C25.7224 59.5947 22.7799 56.1823 23.6139 51.5654C24.1084 48.8283 24.3083 46.1769 21.8743 44.0561C20.015 42.4359 17.8745 41.8778 15.4847 42.2096C13.7369 42.4521 12.4318 44.1207 12.3879 46.178C12.3426 48.3076 12.6573 50.4651 12.4153 52.5662C12.019 56.0005 9.15159 57.5861 5.86706 56.3662C3.47118 55.4763 1.89419 53.7494 0.994386 51.4073C0.677549 50.582 0.332301 49.7673 0 48.9476V45.2182Z" fill="#F089AF"/>
<path d="M176.654 201.945C176.33 198.7 175.467 196.292 173.542 194.368C171.906 192.732 170.23 193.23 169.605 195.461C168.919 197.915 170.221 201.828 172.423 203.307C173.194 203.825 174.493 204.295 175.205 203.995C175.977 203.669 176.347 202.421 176.654 201.945ZM160.265 209.518C161.005 206.114 161.667 202.692 162.503 199.312C163.75 194.272 163.772 189.402 161.127 184.712C160.496 183.593 160.108 182.316 159.766 181.069C159.182 178.947 160.064 177.363 162.251 177.102C167.48 176.477 172.431 177.488 176.843 180.378C178.58 181.516 179.627 183.302 179.604 185.414C179.498 194.908 184.115 202.317 190.271 209.081C191.723 210.676 193.279 212.224 194.457 214.004C196.387 216.922 195.009 221.498 191.887 223.285C189.137 224.859 184.923 223.743 183.347 220.839C182.753 219.743 182.45 218.378 182.417 217.126C182.274 211.69 176.693 209.196 172.953 209.667C171.651 209.831 170.812 210.59 170.973 211.966C171.095 213.015 171.391 214.048 171.662 215.074C171.892 215.944 172.278 216.778 172.454 217.655C172.912 219.944 171.226 221.465 168.912 221.005C164.787 220.184 160.12 215.495 160.265 209.518" fill="#F089AF"/>
<path d="M148.294 195.39C150.204 195.364 150.742 194.536 150.025 193.044C149.091 191.101 147.373 190.065 145.301 189.78C144.522 189.674 143.277 190.006 142.919 190.558C142.556 191.12 142.77 192.347 143.177 193.026C144.369 195.012 146.606 195.006 148.294 195.39ZM136.805 172.04C142.97 171.973 147.415 175.032 150.645 179.846C153.561 184.19 155.247 189.051 155.378 194.304C155.463 197.713 153.611 199.234 150.155 198.864C149.186 198.761 148.219 198.589 147.25 198.571C146.717 198.562 145.971 198.648 145.706 198.983C145.465 199.288 145.6 200.059 145.823 200.503C147.026 202.912 149.885 204.43 152.555 203.815C153.604 203.574 154.59 202.674 155.383 201.865C156.398 200.829 157.483 200.704 158.046 202.018C159.092 204.461 159.448 207.064 158.298 209.565C157.425 211.463 155.13 212.132 152.587 211.456C148.369 210.335 144.877 207.94 141.742 205.093C134.956 198.93 130.395 191.388 128.064 182.611C127.645 181.032 127.665 179.256 127.874 177.618C128.273 174.474 131.052 172.333 134.736 172.047C135.422 171.994 136.115 172.04 136.805 172.04" fill="#F089AF"/>
<path d="M111.208 185.228C109.568 185.237 106.745 187.586 106.436 189.197C106.227 190.291 107.189 191.299 108.382 191.236C109.93 191.154 112.507 189.072 112.861 187.616C113.171 186.343 112.394 185.221 111.208 185.228ZM119.955 198.754C119.91 198.106 120.005 197.109 119.742 196.212C119.278 194.633 117.375 193.732 115.699 194.116C113.522 194.616 111.608 196.41 111.968 197.946C112.173 198.825 112.987 199.64 113.695 200.313C114.598 201.169 115.756 201.767 116.651 202.628C118.199 204.117 118.193 205.757 116.665 207.235C114.63 209.2 112.099 210.243 109.31 210.652C107.704 210.887 106.655 210.192 106.325 208.559C106.068 207.291 105.837 206.01 105.466 204.772C104.497 201.536 102.541 200.132 99.1373 200.137C98.1594 200.139 97.178 200.133 96.2038 200.206C94.8084 200.312 94.4322 199.577 94.7073 198.435C94.9436 197.454 95.2489 196.461 95.7075 195.564C98.7827 189.546 102.709 184.144 108.172 179.993C110.76 178.027 113.752 176.879 117.151 177.09C120.522 177.3 123.387 180.361 123.282 183.69C123.231 185.327 122.173 186.333 121.03 187.324C118.983 189.099 119.09 189.575 121.545 190.682C123.42 191.528 125.385 192.277 127.068 193.414C130.269 195.575 132.06 198.698 132.267 202.533C132.4 205.003 130.922 206.451 128.42 206.587C126.099 206.714 123.989 206.056 122.091 204.767C120.033 203.372 119.653 201.326 119.955 198.754" fill="#F089AF"/>
<path d="M198.64 209.781C198.64 204.818 198.877 199.84 198.571 194.896C198.287 190.301 197.458 185.737 196.802 181.169C196.446 178.69 197.063 176.442 198.42 174.426C200.083 171.957 202.423 170.223 205.298 169.305C207.378 168.641 208.966 169.442 209.23 171.558C209.476 173.524 209.478 175.635 209.013 177.547C207.896 182.146 206.285 186.63 205.186 191.232C204.605 193.667 204.517 196.254 204.538 198.769C204.546 199.792 205.325 201.568 205.948 201.655C206.951 201.795 208.447 201.089 209.148 200.262C210.899 198.193 212.495 195.951 213.83 193.602C215.48 190.7 216.729 187.582 218.305 184.636C218.929 183.47 219.898 182.45 220.853 181.502C221.223 181.133 222.121 180.871 222.533 181.065C222.911 181.242 223.201 182.139 223.111 182.648C222.603 185.522 222.249 188.464 221.322 191.215C218.778 198.767 215.184 205.845 209.967 211.979C207.923 214.383 205.492 216.524 202.99 218.481C200.709 220.267 199.244 219.535 198.691 216.696C198.53 215.867 198.363 215.028 198.329 214.188C198.27 212.721 198.313 211.251 198.313 209.783C198.422 209.782 198.531 209.782 198.64 209.781Z" fill="#F089AF"/>
<path d="M53.073 6.51869C56.5021 6.52046 58.615 8.59043 58.2377 12.4257C57.9864 14.9842 56.9779 17.5473 55.9062 19.9347C54.0584 24.0488 51.7316 27.9586 49.9467 32.0957C49.1933 33.8424 49.1293 35.9427 49.0649 37.8923C48.9765 40.5652 50.6239 41.6895 53.1309 40.5666C54.9787 39.7392 56.6672 38.4994 58.282 37.2615C59.5871 36.2604 60.5754 34.8547 61.8999 33.8865C62.6727 33.3217 64.103 32.7615 64.7482 33.0997C65.6278 33.5603 66.6197 34.9335 66.5345 35.8198C66.3514 37.72 65.8307 39.7388 64.8755 41.3894C62.1671 46.0701 57.9939 49.4 53.3075 52.0266C50.5312 53.583 47.5523 54.8343 44.5663 55.9766C41.4443 57.1712 39.6839 55.7585 40.1953 52.4996C40.8829 48.1136 41.5364 43.6987 42.6419 39.4049C44.6055 31.7787 45.8635 24.0975 46.0667 16.2243C46.1192 14.1935 46.6824 12.0946 47.4261 10.1824C48.3611 7.77783 50.3733 6.52081 53.073 6.51869Z" fill="#F089AF"/>
<path d="M108.261 17.0606C110.138 16.4534 112.049 15.9084 113.889 15.1887C114.354 15.0065 114.903 14.2292 114.849 13.7926C114.796 13.3615 114.09 12.8578 113.563 12.6598C111.674 11.9499 108.172 13.0311 107.053 14.6595C106.772 15.0683 106.564 15.7672 106.734 16.1633C106.896 16.5406 107.594 16.6959 108.261 17.0606ZM93.149 15.6228C93.7428 13.0075 94.0729 10.2982 94.9925 7.79798C96.348 4.11199 99.2959 1.84858 103.115 0.826658C107.436 -0.329051 111.767 -0.435304 115.9 1.56018C119.903 3.49319 121.931 7.79444 120.938 11.8691C120.431 13.9507 119.1 15.4029 117.245 16.3108C115.508 17.1612 113.632 17.7366 111.823 18.4496C110.602 18.9311 109.358 19.3791 108.195 19.976C107.834 20.1613 107.426 20.886 107.538 21.1832C107.696 21.6044 108.294 22.0929 108.744 22.1339C109.635 22.2143 110.679 22.2535 111.436 21.8762C113.974 20.6117 116.394 19.1203 118.903 17.7959C119.64 17.4069 120.523 17.2833 121.339 17.038C121.421 17.9198 121.834 18.9491 121.51 19.6502C120.936 20.892 120.126 22.2122 119.042 23.011C114.487 26.3666 109.318 28.3731 103.597 28.5693C98.385 28.7483 94.9415 25.8491 93.9866 20.7621C93.6763 19.108 93.6072 17.4101 93.4278 15.7319C93.335 15.6956 93.2418 15.6592 93.149 15.6228" fill="#F089AF"/>
<path d="M69.0808 34.1601C69.4634 32.74 70.1766 30.0279 70.9268 27.3261C71.4842 25.3197 72.0963 23.3281 72.671 21.3266C73.0313 20.0713 72.6602 19.4373 71.2048 19.3537C70.4826 19.312 69.79 18.7737 69.0844 18.4599C69.508 17.6762 69.7367 16.4626 70.387 16.1781C74.8597 14.2222 77.5343 10.856 79.0336 6.40189C79.2562 5.74003 79.7202 4.98144 80.2992 4.65315C81.0796 4.2105 82.1973 3.78513 82.949 4.02376C83.5607 4.21791 84.0077 5.35491 84.2364 6.15409C84.5116 7.11353 84.4673 8.15911 84.5803 9.1655C84.7709 10.8616 85.3542 11.2221 86.9668 10.6661C87.6163 10.4423 88.2557 10.1084 88.9225 10.0413C89.4857 9.9848 90.5369 10.1599 90.5768 10.3749C90.6937 11.0039 90.6404 11.9076 90.2423 12.3343C89.3627 13.2779 88.2568 14.0291 87.1984 14.799C83.8552 17.2318 81.7251 20.2803 82.2185 24.5519C82.3099 25.3419 82.8065 26.3222 83.4402 26.7338C83.8556 27.0034 84.951 26.5562 85.5685 26.1658C86.4748 25.5932 87.1995 24.7517 88.05 24.0838C89.1181 23.2447 90.0201 23.458 90.4304 24.7457C91.2349 27.27 90.4052 29.5443 88.9689 31.5927C86.4583 35.1728 82.7486 37.2103 78.7617 38.7819C77.2329 39.3844 75.6074 39.9242 73.9837 40.0869C70.406 40.4448 69.0322 39.0653 69.0808 34.1601Z" fill="#F089AF"/>
<path d="M137.748 13.3664C138.551 12.9216 139.309 12.7317 139.574 12.2696C139.733 11.9921 139.257 11.0782 138.832 10.8191C137.642 10.0923 136.363 9.46822 135.048 8.99556C134.606 8.83671 133.627 9.10993 133.469 9.44598C133.269 9.87204 133.459 10.8294 133.826 11.092C135.03 11.953 136.391 12.6035 137.748 13.3664ZM144.632 18.2328C145.912 19.3129 147.271 20.3161 148.453 21.4909C150.218 23.2439 152.045 24.987 153.494 26.9804C154.685 28.6172 153.927 29.7521 151.886 29.5865C148.247 29.2911 144.747 28.3722 141.67 26.358C139.514 24.946 139.408 23.7533 141.263 22.0363C142.288 21.0881 142.157 20.224 141.358 19.4103C139.679 17.699 137.579 16.8547 135.143 17.0689C133.826 17.1847 133.395 18.0414 134.041 19.2296C134.663 20.3709 135.484 21.4069 136.11 22.5457C136.89 23.9647 136.506 25.0608 134.969 25.4632C132.168 26.1956 129.308 26.3972 126.497 25.5048C124.493 24.8687 123.976 23.7123 124.583 21.6858C125.099 19.9631 125.791 18.2645 126.066 16.5041C126.531 13.5178 125.109 10.8954 123.972 8.24579C123.571 7.31176 123.121 6.39045 122.813 5.42677C122.353 3.98725 122.936 2.70976 124.394 2.60386C126.461 2.45348 128.644 2.51808 130.641 3.01757C137.867 4.82561 143.843 8.73116 148.78 14.1684C149.525 14.9898 150.174 15.9958 150.535 17.0283C150.995 18.3436 150.297 18.986 148.894 18.6913C147.571 18.4138 146.275 18.0118 144.967 17.6644C144.856 17.854 144.744 18.0435 144.632 18.2328" fill="#F089AF"/>
</svg>
