<svg width="154" height="155" viewBox="0 0 154 155" fill="none" xmlns="http://www.w3.org/2000/svg">
<path d="M15.5358 20.3216C15.154 18.9731 14.9152 17.5441 14.3376 16.2624C13.8216 15.1171 12.8444 14.9962 12.0997 15.9632C11.4127 16.8559 10.8572 17.9561 10.6156 19.0444C10.2369 20.7521 10.455 22.4809 11.7162 23.872C12.7282 24.9881 13.939 24.8802 14.5806 23.5424C15.0381 22.5883 15.2002 21.4978 15.5358 20.3216ZM0 31.2091C1.28674 26.1447 4.2261 21.7724 6.18526 16.9894C7.48764 13.8095 7.89074 10.5606 7.27467 7.15732C7.04185 5.86996 7.08454 4.50805 7.18929 3.19462C7.33027 1.42487 8.76446 0.295385 10.6099 0.613083C13.6543 1.13714 16.5048 2.19524 18.7869 4.35992C20.3089 5.80321 20.8843 7.62656 20.3707 9.60121C18.6052 16.3901 20.0572 22.6787 23.1587 28.7803C24.0895 30.6114 25.0163 32.4979 25.5383 34.463C26.2197 37.0287 23.4647 40.4691 20.7828 40.7802C17.7533 41.1315 15.7224 38.7763 16.298 35.5898C16.6393 33.7007 16.7773 31.8708 15.0974 30.407C13.8141 29.2887 12.3368 28.9036 10.6874 29.1326C9.48105 29.3 8.58028 30.4516 8.55 31.8715C8.51872 33.3413 8.73591 34.8304 8.56886 36.2805C8.29533 38.6509 6.31632 39.7453 4.04937 38.9033C2.39577 38.2891 1.30735 37.0972 0.686313 35.4807C0.467636 34.9111 0.22935 34.3488 0 33.7831V31.2091Z" fill="#F089AF"/>
<path d="M121.924 139.38C121.701 137.14 121.105 135.479 119.777 134.151C118.647 133.021 117.491 133.365 117.06 134.905C116.586 136.599 117.484 139.3 119.004 140.32C119.536 140.678 120.433 141.002 120.924 140.795C121.457 140.57 121.712 139.709 121.924 139.38ZM110.613 144.607C111.124 142.257 111.581 139.896 112.158 137.562C113.018 134.084 113.033 130.723 111.208 127.486C110.772 126.713 110.505 125.832 110.268 124.972C109.865 123.507 110.474 122.414 111.983 122.234C115.593 121.802 119.01 122.5 122.055 124.495C123.254 125.28 123.977 126.513 123.96 127.97C123.887 134.523 127.074 139.637 131.323 144.305C132.325 145.406 133.399 146.475 134.212 147.703C135.544 149.717 134.593 152.875 132.438 154.109C130.54 155.195 127.632 154.425 126.544 152.42C126.134 151.664 125.925 150.722 125.902 149.858C125.803 146.106 121.951 144.385 119.37 144.71C118.471 144.823 117.892 145.347 118.003 146.296C118.088 147.02 118.292 147.733 118.479 148.442C118.638 149.042 118.904 149.618 119.025 150.223C119.342 151.803 118.178 152.852 116.581 152.535C113.734 151.968 110.513 148.732 110.613 144.607" fill="#F089AF"/>
<path d="M102.35 134.856C103.669 134.837 104.04 134.266 103.545 133.236C102.901 131.895 101.715 131.18 100.285 130.984C99.7471 130.91 98.8878 131.139 98.6408 131.521C98.3901 131.908 98.5378 132.756 98.8188 133.224C99.6414 134.595 101.186 134.59 102.35 134.856ZM94.4212 118.739C98.6758 118.694 101.744 120.804 103.973 124.127C105.986 127.126 107.15 130.48 107.24 134.106C107.299 136.459 106.021 137.509 103.635 137.254C102.966 137.182 102.299 137.064 101.63 137.051C101.262 137.044 100.747 137.104 100.564 137.336C100.398 137.546 100.492 138.078 100.645 138.385C101.475 140.047 103.449 141.095 105.292 140.67C106.015 140.504 106.696 139.883 107.243 139.324C107.944 138.61 108.693 138.523 109.081 139.43C109.803 141.116 110.049 142.913 109.255 144.639C108.653 145.949 107.069 146.411 105.314 145.944C102.403 145.17 99.9921 143.517 97.8287 141.553C93.1449 137.299 89.9968 132.093 88.3883 126.035C88.0992 124.946 88.1131 123.72 88.2568 122.59C88.5328 120.42 90.4502 118.942 92.9935 118.745C93.4666 118.708 93.9451 118.739 94.4212 118.739" fill="#F089AF"/>
<path d="M76.7541 127.842C75.6228 127.848 73.6738 129.469 73.4608 130.581C73.3163 131.336 73.9806 132.032 74.8041 131.988C75.8725 131.932 77.6509 130.495 77.8954 129.49C78.1091 128.611 77.5732 127.837 76.7541 127.842ZM82.7917 137.178C82.7604 136.731 82.8259 136.042 82.6443 135.423C82.3241 134.333 81.0108 133.711 79.8541 133.976C78.3516 134.321 77.0306 135.56 77.2786 136.62C77.4206 137.226 77.982 137.789 78.471 138.253C79.0938 138.844 79.893 139.257 80.5113 139.851C81.5797 140.879 81.5754 142.011 80.5205 143.031C79.1164 144.387 77.3692 145.107 75.4445 145.389C74.3363 145.552 73.612 145.072 73.3839 143.945C73.2069 143.069 73.0475 142.185 72.7916 141.331C72.1224 139.098 70.7721 138.128 68.4233 138.132C67.7484 138.133 67.071 138.129 66.3986 138.18C65.4355 138.253 65.1759 137.746 65.3658 136.958C65.5289 136.28 65.7396 135.595 66.0561 134.976C68.1786 130.822 70.8886 127.094 74.6589 124.229C76.4448 122.872 78.51 122.08 80.8561 122.226C83.1826 122.37 85.1604 124.483 85.0879 126.78C85.0522 127.91 84.3224 128.605 83.5336 129.289C82.1205 130.513 82.1945 130.842 83.8888 131.606C85.1827 132.19 86.5392 132.707 87.7009 133.492C89.9097 134.984 91.1458 137.139 91.2888 139.786C91.3809 141.49 90.3605 142.49 88.6342 142.584C87.0317 142.671 85.5759 142.217 84.2653 141.328C82.8456 140.365 82.5832 138.953 82.7917 137.178" fill="#F089AF"/>
<path d="M137.099 144.788C137.099 141.363 137.262 137.928 137.051 134.515C136.855 131.344 136.283 128.194 135.83 125.041C135.585 123.33 136.01 121.778 136.947 120.387C138.095 118.683 139.71 117.486 141.694 116.852C143.13 116.394 144.225 116.947 144.408 118.408C144.578 119.764 144.579 121.221 144.258 122.541C143.487 125.715 142.375 128.81 141.617 131.986C141.216 133.667 141.155 135.452 141.17 137.188C141.175 137.894 141.713 139.12 142.143 139.18C142.835 139.277 143.868 138.789 144.351 138.218C145.56 136.79 146.661 135.243 147.583 133.622C148.722 131.619 149.584 129.467 150.672 127.433C151.102 126.629 151.771 125.925 152.43 125.27C152.686 125.016 153.305 124.835 153.59 124.969C153.85 125.091 154.051 125.711 153.988 126.062C153.638 128.045 153.393 130.076 152.754 131.974C150.998 137.186 148.517 142.071 144.917 146.306C143.506 147.964 141.828 149.442 140.101 150.793C138.527 152.025 137.515 151.52 137.134 149.561C137.023 148.989 136.907 148.41 136.884 147.83C136.844 146.818 136.873 145.803 136.873 144.789C136.948 144.789 137.024 144.789 137.099 144.788Z" fill="#F089AF"/>
<path d="M36.6303 4.49911C38.9971 4.50033 40.4553 5.929 40.195 8.57607C40.0215 10.3419 39.3255 12.111 38.5858 13.7586C37.3105 16.5982 35.7045 19.2967 34.4726 22.1521C33.9526 23.3576 33.9084 24.8072 33.864 26.1528C33.8029 27.9976 34.94 28.7735 36.6703 27.9985C37.9456 27.4275 39.111 26.5718 40.2255 25.7174C41.1263 25.0265 41.8084 24.0563 42.7225 23.388C43.2559 22.9982 44.2431 22.6116 44.6884 22.845C45.2955 23.1629 45.9801 24.1106 45.9213 24.7224C45.7949 26.0339 45.4355 27.4272 44.7763 28.5665C42.9069 31.797 40.0267 34.0952 36.7922 35.9081C34.876 36.9823 32.82 37.846 30.7591 38.6344C28.6043 39.4588 27.3893 38.4838 27.7423 36.2346C28.2169 33.2074 28.6679 30.1603 29.4309 27.1967C30.7861 21.9333 31.6544 16.6318 31.7946 11.1978C31.8309 9.79619 32.2196 8.34755 32.7329 7.02778C33.3782 5.36815 34.767 4.50057 36.6303 4.49911Z" fill="#F089AF"/>
<path d="M74.7203 11.775C76.0158 11.356 77.3348 10.9798 78.6046 10.4831C78.9261 10.3573 79.3043 9.82086 79.2674 9.51949C79.2309 9.22201 78.7434 8.87435 78.38 8.73767C77.0759 8.24772 74.6593 8.99397 73.8866 10.1179C73.6927 10.4 73.5495 10.8824 73.6667 11.1557C73.7783 11.4162 74.2604 11.5234 74.7203 11.775ZM64.2903 10.7827C64.7001 8.97765 64.928 7.10776 65.5627 5.38211C66.4982 2.83808 68.5328 1.27591 71.1689 0.570588C74.1509 -0.227068 77.1402 -0.300403 79.9926 1.07686C82.7558 2.41099 84.155 5.37967 83.4699 8.19193C83.1199 9.62864 82.2015 10.6309 80.9212 11.2576C79.7221 11.8445 78.4272 12.2416 77.1791 12.7337C76.336 13.0661 75.4776 13.3752 74.6751 13.7872C74.4257 13.9151 74.1445 14.4153 74.2214 14.6204C74.3306 14.9111 74.7434 15.2483 75.0537 15.2765C75.6685 15.3321 76.3893 15.3591 76.9118 15.0987C78.6635 14.226 80.3337 13.1966 82.0652 12.2825C82.5741 12.0141 83.1834 11.9288 83.7469 11.7595C83.803 12.3681 84.0882 13.0785 83.8645 13.5623C83.4684 14.4194 82.9097 15.3306 82.1613 15.882C79.0174 18.198 75.4498 19.5828 71.5015 19.7182C67.9041 19.8418 65.5274 17.8408 64.8684 14.3298C64.6542 13.1881 64.6066 12.0162 64.4827 10.858C64.4187 10.8329 64.3544 10.8078 64.2903 10.7827" fill="#F089AF"/>
<path d="M47.6787 23.5768C47.9428 22.5967 48.435 20.7248 48.9528 18.8601C49.3375 17.4753 49.76 16.1007 50.1566 14.7193C50.4053 13.8529 50.1492 13.4154 49.1446 13.3576C48.6462 13.3289 48.1682 12.9573 47.6812 12.7407C47.9736 12.1999 48.1314 11.3623 48.5802 11.1659C51.6672 9.81591 53.5132 7.49262 54.548 4.41846C54.7017 3.96164 55.0219 3.43808 55.4215 3.2115C55.9601 2.90598 56.7316 2.6124 57.2503 2.7771C57.6725 2.9111 57.9811 3.69584 58.1389 4.24743C58.3288 4.90962 58.2983 5.63127 58.3762 6.32586C58.5078 7.49652 58.9104 7.74527 60.0234 7.36155C60.4717 7.20709 60.913 6.97661 61.3732 6.93032C61.7619 6.89134 62.4874 7.01218 62.515 7.16055C62.5956 7.59471 62.5589 8.21841 62.2841 8.51296C61.677 9.16419 60.9137 9.68265 60.1832 10.214C57.8758 11.8931 56.4057 13.9972 56.7462 16.9454C56.8093 17.4906 57.152 18.1672 57.5894 18.4513C57.8761 18.6374 58.6321 18.3287 59.0583 18.0593C59.6838 17.6641 60.184 17.0833 60.771 16.6223C61.5082 16.0432 62.1307 16.1903 62.4139 17.0791C62.9692 18.8213 62.3966 20.3911 61.4052 21.8049C59.6724 24.2758 57.1121 25.6821 54.3604 26.7667C53.3052 27.1826 52.1833 27.5551 51.0626 27.6674C48.5934 27.9145 47.6452 26.9624 47.6787 23.5768Z" fill="#F089AF"/>
<path d="M95.0718 9.22538C95.6263 8.9184 96.1493 8.78733 96.332 8.46841C96.4417 8.27691 96.1131 7.64615 95.8202 7.46732C94.9986 6.96568 94.1162 6.53494 93.2085 6.20871C92.9032 6.09908 92.2278 6.28765 92.1188 6.51959C91.9806 6.81365 92.1116 7.47439 92.365 7.65565C93.1963 8.24987 94.1356 8.69889 95.0718 9.22538ZM99.8231 12.5841C100.707 13.3296 101.645 14.022 102.461 14.8328C103.679 16.0427 104.939 17.2458 105.94 18.6216C106.762 19.7513 106.238 20.5346 104.83 20.4203C102.318 20.2164 99.9023 19.5822 97.7791 18.1921C96.2906 17.2175 96.2178 16.3943 97.4981 15.2093C98.2053 14.5549 98.1149 13.9584 97.5636 13.3969C96.405 12.2157 94.9554 11.633 93.2743 11.7809C92.365 11.8608 92.0674 12.4521 92.5137 13.2721C92.9424 14.0598 93.5091 14.7749 93.9415 15.5608C94.4798 16.5402 94.2145 17.2967 93.1536 17.5745C91.2208 18.08 89.247 18.2191 87.3069 17.6032C85.9236 17.1642 85.5664 16.366 85.9854 14.9673C86.3416 13.7784 86.8194 12.606 87.0088 11.391C87.33 9.3299 86.3488 7.51995 85.564 5.69123C85.2872 5.04658 84.9764 4.4107 84.764 3.74558C84.4467 2.75204 84.8491 1.87033 85.8549 1.79724C87.2816 1.69345 88.7888 1.73804 90.1671 2.08278C95.154 3.33067 99.2783 6.02623 102.686 9.77892C103.201 10.3459 103.648 11.0402 103.897 11.7528C104.215 12.6606 103.733 13.104 102.764 12.9006C101.852 12.7091 100.957 12.4316 100.055 12.1919C99.9775 12.3227 99.9003 12.4535 99.8231 12.5841" fill="#F089AF"/>
<path d="M78.6532 87.6272C86.7897 87.8136 94.5138 81.2967 94.5384 72.1558C94.5627 63.0748 87.2168 56.5306 78.6934 56.4882C69.9418 56.4446 62.7113 63.5012 62.7297 72.0586C62.7488 80.9792 70.3936 87.8563 78.6532 87.6272ZM99.2019 47.0881C99.2019 47.7508 99.1711 48.4152 99.2081 49.0759C99.2863 50.4763 100.497 51.4296 101.897 51.1577C105.407 50.4761 108.917 50.3386 112.372 51.3609C117.85 52.9818 121.87 57.0461 121.987 63.3026C122.07 67.7178 120.07 71.4317 116.608 74.1762C114.628 75.7457 112.297 76.9144 110.042 78.1165C108.385 78.9999 107.938 80.2878 109.186 81.6636C111.232 83.9199 113.064 86.2841 114.079 89.1882C116.983 97.4925 112.148 105.95 103.37 107.625C98.3843 108.576 93.9919 106.948 90.0368 104.006C89.5632 103.654 89.112 103.272 88.6617 102.891C87.1985 101.652 85.6749 101.974 84.9846 103.737C83.5241 107.467 81.3557 110.673 77.9066 112.893C73.5504 115.698 68.7638 116.253 63.7506 115.223C57.0662 113.851 51.6536 110.519 48.1263 104.708C44.5686 98.8478 45.0405 92.899 48.3628 87.0567C48.4981 86.8184 48.6505 86.5899 48.7915 86.3547C49.9544 84.4159 49.4326 83.14 47.2084 82.5134C43.9302 81.5898 40.8871 80.1884 38.2446 78.0593C32.5361 73.4607 29.8807 67.5743 31.337 60.3783C32.7945 53.1763 37.5523 48.7377 44.6237 46.6488C48.3683 45.5427 52.1947 45.4716 56.0393 46.1245C58.1353 46.4805 58.9124 45.8616 59.3587 43.5391C60.2421 38.942 62.4832 35.1296 66.4053 32.4218C70.7833 29.3993 75.7161 28.4601 80.9961 29.0173C85.4049 29.4824 89.3867 30.9508 92.8342 33.7267C97.127 37.1834 99.2031 41.6633 99.2019 47.0881" fill="#F089AF"/>
</svg>
