<svg width="621" height="648" viewBox="0 0 621 648" fill="none" xmlns="http://www.w3.org/2000/svg">
<path d="M106.601 522.214L108.732 524.499L119.079 514.85C120.441 513.58 121.724 512.944 122.928 512.944C124.132 512.943 125.185 513.426 126.087 514.393C127.056 515.433 127.471 516.552 127.33 517.752C127.189 518.951 126.466 520.159 125.163 521.374L100.383 544.482C98.9775 545.793 97.666 546.428 96.449 546.385C95.232 546.343 93.968 545.619 92.6569 544.213L82.7622 533.602C81.3964 532.138 80.2946 530.824 79.4568 529.661C78.6042 528.512 77.9791 527.343 77.5814 526.153C77.0638 524.746 76.8385 523.286 76.9055 521.773C76.9725 520.259 77.3488 518.813 78.0345 517.434C78.6919 516.054 79.6064 514.818 80.778 513.725C83.1798 511.486 85.7334 510.378 88.4388 510.401C91.1305 510.41 94.0603 511.511 97.2283 513.705C96.7645 511.974 96.6414 510.021 96.8589 507.847C97.0765 505.673 97.4839 503.541 98.0811 501.45C98.65 499.359 99.2719 497.574 99.9469 496.096C100.594 494.617 101.122 493.686 101.532 493.303C101.957 492.907 102.511 492.65 103.195 492.533C103.851 492.414 104.515 492.479 105.186 492.73C105.872 492.966 106.502 493.392 107.076 494.007C107.759 494.739 108.156 495.518 108.269 496.344C108.397 497.156 108.368 497.991 108.182 498.849C107.982 499.692 107.657 500.899 107.205 502.47L105.294 509.14C104.571 511.566 104.141 513.542 104.003 515.067C103.851 516.578 103.976 517.858 104.379 518.906C104.782 519.954 105.522 521.057 106.601 522.214ZM89.5866 531.099L95.1998 537.118L104.053 528.862L98.6035 523.019C97.1421 521.452 95.7812 520.257 94.5206 519.433C93.2453 518.624 92.026 518.241 90.8627 518.285C89.671 518.329 88.504 518.883 87.3617 519.948C86.4683 520.782 85.8965 521.739 85.6462 522.821C85.3813 523.917 85.456 525.025 85.8703 526.145C86.2583 527.207 87.497 528.858 89.5866 531.099Z" fill="#3A4440"/>
<path d="M50.9782 480.169L62.0906 496.912L71.1002 490.932L60.8682 475.516C60.1152 474.381 59.8146 473.367 59.9664 472.473C60.0904 471.574 60.5696 470.847 61.4038 470.293C62.238 469.74 63.1048 469.561 64.0041 469.757C64.8868 469.965 65.7102 470.644 66.4742 471.795L76.7063 487.212L87.1425 480.285L75.6481 462.966C74.8729 461.799 74.5668 460.74 74.7299 459.791C74.8651 458.836 75.3832 458.059 76.2842 457.461C77.1518 456.885 78.0602 456.715 79.0094 456.95C79.9309 457.18 80.7793 457.879 81.5544 459.046L94.959 479.243C96.0331 480.862 96.4496 482.268 96.2083 483.461C95.956 484.638 95.0289 485.758 93.4272 486.821L65.8476 505.126C64.7798 505.834 63.807 506.252 62.9292 506.378C62.0347 506.515 61.2159 506.349 60.4726 505.881C59.7016 505.408 58.9672 504.645 58.2696 503.594L45.247 483.973C44.4608 482.788 44.1464 481.735 44.3038 480.814C44.4335 479.886 44.9237 479.14 45.7746 478.576C46.6422 478 47.5368 477.827 48.4583 478.056C49.352 478.28 50.192 478.985 50.9782 480.169Z" fill="#3A4440"/>
<path d="M42.4174 418.064L50.1572 414.697C51.1855 414.249 52.0558 413.991 52.768 413.921C53.4618 413.86 54.1764 413.997 54.9119 414.332C55.6393 414.649 56.4163 415.13 57.2429 415.774C59.6274 417.642 61.6139 419.573 63.2025 421.568C64.791 423.563 66.1644 425.891 67.3227 428.554C68.6727 431.657 69.4255 434.693 69.581 437.661C69.7365 440.628 69.2967 443.407 68.2617 445.998C67.2266 448.588 65.6262 450.933 63.4605 453.033C61.2867 455.114 58.6023 456.85 55.4072 458.239C52.2672 459.605 49.1898 460.387 46.1749 460.585C43.16 460.783 40.3482 460.368 37.7394 459.341C35.1307 458.314 32.7817 456.705 30.6925 454.513C28.585 452.328 26.8123 449.584 25.3744 446.279C24.1921 443.561 23.5129 440.996 23.3367 438.583C23.1422 436.178 23.3123 434.084 23.8468 432.301C24.3814 430.518 25.1201 429.028 26.0628 427.832C27.0055 426.636 27.9543 425.83 28.9092 425.414C29.9375 424.967 30.9866 424.969 32.0566 425.421C33.1003 425.862 33.8538 426.615 34.3171 427.68C34.5727 428.268 34.6827 428.897 34.6469 429.568C34.6031 430.22 34.4132 430.838 34.0772 431.421C32.9373 433.118 32.1152 434.491 31.6108 435.54C31.1064 436.589 30.8384 437.831 30.8068 439.264C30.7671 440.679 31.1467 442.304 31.9455 444.141C32.7683 446.032 33.8338 447.577 35.1419 448.777C36.4316 449.985 37.9325 450.85 39.6445 451.372C41.3301 451.883 43.1965 452.032 45.2437 451.818C47.2829 451.586 49.395 450.995 51.5802 450.045C56.3177 447.984 59.4914 445.315 61.1012 442.037C62.703 438.742 62.6571 435.148 60.9636 431.255C60.1408 429.363 59.1221 427.699 57.9073 426.262C56.6846 424.807 55.2427 423.425 53.5817 422.117L47.0262 424.969L49.7822 431.304C50.4452 432.828 50.7189 434.085 50.6034 435.074C50.4798 436.045 49.8672 436.77 48.7654 437.249C47.8656 437.641 46.9822 437.643 46.115 437.256C45.2398 436.85 44.5585 436.088 44.0713 434.967L40.0332 425.685C39.5379 424.547 39.2195 423.539 39.078 422.661C38.9365 421.784 39.1108 420.955 39.6009 420.174C40.083 419.374 41.0218 418.671 42.4174 418.064Z" fill="#3A4440"/>
<path d="M13.1205 381.437L17.7816 400.984L28.3003 398.476L24.0084 380.478C23.6926 379.153 23.76 378.097 24.2105 377.311C24.637 376.509 25.3372 375.992 26.3111 375.76C27.2851 375.527 28.1603 375.658 28.937 376.153C29.6941 376.651 30.2329 377.573 30.5534 378.917L34.8452 396.916L47.0294 394.01L42.208 373.791C41.8829 372.427 41.9604 371.328 42.4407 370.493C42.8968 369.643 43.6508 369.093 44.7026 368.842C45.7155 368.601 46.627 368.754 47.437 369.302C48.2229 369.835 48.7785 370.783 49.1036 372.147L54.7262 395.726C55.1767 397.616 55.083 399.079 54.4452 400.116C53.8027 401.134 52.5464 401.866 50.6764 402.312L18.4776 409.99C17.2309 410.287 16.1739 410.344 15.3065 410.159C14.4196 409.98 13.7079 409.542 13.1715 408.846C12.611 408.136 12.1844 407.167 11.8918 405.94L6.42945 383.033C6.09967 381.65 6.16748 380.553 6.63289 379.742C7.07417 378.916 7.79152 378.385 8.78495 378.148C9.79786 377.906 10.6973 378.052 11.4832 378.585C12.2449 379.104 12.7907 380.054 13.1205 381.437Z" fill="#3A4440"/>
<path d="M6.48408 347.412L31.4796 328.893L5.32446 330.298C3.62477 330.389 2.33568 330.097 1.45718 329.423C0.557613 328.729 0.074542 327.762 0.00796961 326.522C-0.0607503 325.243 0.314946 324.21 1.13506 323.424C1.93517 322.639 3.18507 322.201 4.88476 322.109L39.4683 320.252C43.3276 320.045 45.3432 321.541 45.515 324.741C45.5579 325.541 45.4766 326.267 45.271 326.92C45.0854 327.571 44.7577 328.19 44.2878 328.777C43.818 329.364 43.266 329.915 42.6319 330.43C41.9778 330.947 41.3137 331.464 40.6396 331.981L15.9215 350.064L41.6867 348.68C43.3664 348.59 44.6571 348.912 45.5588 349.645C46.4605 350.379 46.9441 351.356 47.0096 352.575C47.0773 353.835 46.7016 354.868 45.8825 355.674C45.0435 356.481 43.7941 356.929 42.1344 357.019L8.21074 358.84C6.77101 358.917 5.63263 358.818 4.7956 358.542C3.87537 358.211 3.11168 357.62 2.50454 356.77C1.8774 355.921 1.53645 354.987 1.48169 353.967C1.43874 353.168 1.53221 352.481 1.76209 351.907C1.99091 351.313 2.314 350.794 2.73137 350.351C3.14766 349.887 3.69394 349.417 4.37018 348.939C5.04536 348.442 5.74999 347.933 6.48408 347.412Z" fill="#3A4440"/>
<path d="M11.79 274.07L9.36477 294.018L20.0992 295.323L22.3323 276.955C22.4966 275.604 22.9268 274.637 23.6228 274.056C24.3013 273.453 25.1375 273.212 26.1315 273.332C27.1254 273.453 27.9005 273.88 28.4569 274.614C28.9934 275.345 29.1782 276.396 29.0115 277.767L26.7784 296.135L39.2125 297.647L41.7211 277.013C41.8902 275.621 42.3451 274.618 43.0857 274.002C43.8088 273.363 44.7071 273.11 45.7805 273.24C46.8142 273.366 47.6156 273.826 48.1845 274.622C48.7361 275.395 48.9273 276.477 48.7581 277.868L45.8326 301.932C45.5982 303.86 45.0016 305.199 44.0429 305.95C43.0866 306.681 41.6543 306.931 39.746 306.699L6.88667 302.704C5.61444 302.549 4.60371 302.235 3.85449 301.76C3.08538 301.283 2.57026 300.626 2.30911 299.787C2.03051 298.926 1.96733 297.869 2.11959 296.617L4.96167 273.24C5.13326 271.829 5.57819 270.824 6.29648 270.225C6.9973 269.604 7.85461 269.355 8.86842 269.479C9.90211 269.604 10.6947 270.054 11.2462 270.827C11.7803 271.578 11.9616 272.659 11.79 274.07Z" fill="#3A4440"/>
<path d="M36.8005 246.964L35.9031 249.956L49.4546 254.02C51.2384 254.555 52.4344 255.342 53.0425 256.381C53.6506 257.421 53.7649 258.573 53.3853 259.839C52.9769 261.201 52.2193 262.124 51.1127 262.607C50.006 263.091 48.5991 263.077 46.892 262.565L14.4377 252.832C12.5963 252.28 11.3869 251.468 10.8095 250.396C10.232 249.324 10.2194 247.867 10.7716 246.026L14.9389 232.129C15.5141 230.211 16.0922 228.597 16.6732 227.287C17.2351 225.971 17.9293 224.841 18.7559 223.897C19.709 222.741 20.8559 221.809 22.1965 221.103C23.5372 220.397 24.9757 219.992 26.512 219.889C28.0349 219.76 29.5636 219.926 31.0981 220.386C34.2438 221.329 36.489 222.975 37.8338 225.322C39.1844 227.651 39.7122 230.736 39.4172 234.577C40.6772 233.304 42.3007 232.212 44.2877 231.303C46.2747 230.393 48.3212 229.669 50.4271 229.13C52.5197 228.566 54.3744 228.202 55.9913 228.039C57.5947 227.851 58.665 227.837 59.2021 227.998C59.7583 228.165 60.2599 228.514 60.7069 229.045C61.1404 229.552 61.4186 230.158 61.5414 230.864C61.6834 231.575 61.6337 232.334 61.3921 233.139C61.1045 234.098 60.6327 234.835 59.9768 235.349C59.3401 235.869 58.6045 236.265 57.7702 236.538C56.9417 236.791 55.7352 237.119 54.151 237.522L47.4275 239.237C44.9686 239.838 43.0458 240.464 41.6592 241.114C40.2783 241.745 39.2368 242.499 38.5349 243.376C37.833 244.252 37.2549 245.448 36.8005 246.964ZM20.5439 236.757L18.1799 244.641L29.7748 248.118L32.0699 240.465C32.6853 238.412 33.0304 236.634 33.105 235.131C33.1605 233.621 32.8755 232.375 32.2501 231.393C31.6113 230.386 30.5438 229.659 29.0477 229.21C27.8777 228.859 26.7623 228.849 25.7017 229.179C24.6219 229.503 23.7032 230.126 22.9457 231.049C22.2246 231.92 21.424 233.823 20.5439 236.757Z" fill="#3A4440"/>
<path d="M73.6312 192.798L67.7476 192.206L59.7389 208.217L63.8488 212.624C65.4516 214.343 66.4723 215.638 66.911 216.506C67.3318 217.366 67.2465 218.387 66.6553 219.569C66.1536 220.572 65.343 221.275 64.2235 221.678C63.104 222.081 62.0786 222.049 61.1473 221.583C60.61 221.314 60.0996 220.947 59.6161 220.481C59.1326 220.016 58.4834 219.322 57.6686 218.399L37.1326 195.532C36.5416 194.879 35.8343 194.099 35.0105 193.195C34.1778 192.263 33.5331 191.403 33.0765 190.615C32.6288 189.809 32.3827 188.936 32.3381 187.996C32.2845 187.028 32.5309 185.999 33.0774 184.906C33.6328 183.796 34.309 182.981 35.1062 182.461C35.8943 181.915 36.7317 181.584 37.6183 181.468C38.5139 181.334 39.4229 181.307 40.3453 181.388C41.2588 181.442 42.4722 181.545 43.9857 181.697L74.546 184.12C76.8834 184.281 78.4909 184.582 79.3685 185.021C80.2818 185.477 80.931 186.284 81.3159 187.439C81.6919 188.567 81.6111 189.669 81.0736 190.743C80.7601 191.37 80.3749 191.849 79.9181 192.181C79.4792 192.521 78.9956 192.749 78.4672 192.866C77.9209 192.973 77.1642 193.009 76.197 192.973C75.2208 192.91 74.3656 192.851 73.6312 192.798ZM54.7962 203.125L60.6818 191.358L41.4591 189.166L54.7962 203.125Z" fill="#3A4440"/>
<path d="M70.4607 139.669L64.9091 147.663L91.1839 165.911C92.6971 166.962 93.5896 168.082 93.8614 169.27C94.1167 170.447 93.8732 171.57 93.1307 172.639C92.3767 173.725 91.3898 174.356 90.1699 174.533C88.9615 174.693 87.6088 174.253 86.1121 173.214L59.8373 154.966L54.2857 162.959C53.4175 164.209 52.5007 164.95 51.5353 165.181C50.5535 165.402 49.6102 165.198 48.7056 164.569C47.7681 163.918 47.245 163.092 47.1363 162.09C47.039 161.071 47.4073 159.962 48.2412 158.761L64.4162 135.471C65.2958 134.205 66.2265 133.462 67.2084 133.242C68.2017 133.005 69.1506 133.201 70.0552 133.829C70.9598 134.457 71.4747 135.278 71.5999 136.291C71.7085 137.293 71.3288 138.419 70.4607 139.669Z" fill="#3A4440"/>
<path d="M101.218 104.749L87.3114 119.255L95.1173 126.739L107.922 113.382C108.864 112.399 109.788 111.884 110.694 111.836C111.599 111.761 112.412 112.069 113.135 112.762C113.858 113.455 114.222 114.262 114.227 115.182C114.218 116.089 113.735 117.041 112.779 118.038L99.9743 131.395L109.016 140.063L123.401 125.058C124.371 124.047 125.337 123.516 126.299 123.468C127.26 123.391 128.131 123.726 128.912 124.475C129.664 125.195 130.029 126.045 130.007 127.022C129.984 127.972 129.488 128.952 128.518 129.964L111.743 147.462C110.399 148.865 109.118 149.579 107.9 149.604C106.697 149.615 105.401 148.956 104.013 147.626L80.1185 124.718C79.1934 123.831 78.5734 122.973 78.2584 122.144C77.9291 121.302 77.9114 120.466 78.2056 119.639C78.4991 118.783 79.0824 117.899 79.9554 116.989L96.2524 99.9892C97.2363 98.9628 98.1952 98.4256 99.1289 98.3776C100.062 98.3013 100.897 98.6165 101.634 99.3232C102.386 100.044 102.751 100.879 102.728 101.828C102.705 102.749 102.202 103.723 101.218 104.749Z" fill="#3A4440"/>
<path d="M524.873 135.708L522.858 133.321L512.048 142.448C510.625 143.65 509.313 144.221 508.11 144.162C506.907 144.103 505.879 143.569 505.026 142.559C504.109 141.473 503.75 140.334 503.95 139.143C504.15 137.952 504.931 136.782 506.293 135.632L532.181 113.773C533.65 112.533 534.991 111.964 536.204 112.066C537.418 112.169 538.645 112.954 539.885 114.423L549.245 125.508C550.536 127.038 551.572 128.404 552.352 129.607C553.147 130.797 553.713 131.996 554.052 133.204C554.5 134.634 554.653 136.103 554.511 137.612C554.37 139.12 553.923 140.546 553.17 141.89C552.445 143.235 551.471 144.425 550.247 145.458C547.738 147.577 545.133 148.558 542.432 148.401C539.744 148.26 536.872 147.016 533.816 144.669C534.194 146.42 534.22 148.376 533.896 150.537C533.571 152.698 533.06 154.808 532.36 156.866C531.689 158.927 530.98 160.679 530.233 162.122C529.514 163.568 528.94 164.471 528.512 164.833C528.068 165.208 527.502 165.437 526.813 165.521C526.152 165.607 525.492 165.509 524.834 165.226C524.16 164.956 523.552 164.5 523.01 163.857C522.364 163.092 522.005 162.295 521.933 161.464C521.845 160.647 521.916 159.814 522.143 158.967C522.384 158.135 522.769 156.945 523.297 155.398L525.535 148.83C526.376 146.443 526.903 144.491 527.116 142.974C527.343 141.472 527.28 140.188 526.93 139.121C526.579 138.054 525.894 136.917 524.873 135.708ZM542.305 127.672L536.995 121.384L527.746 129.193L532.901 135.298C534.283 136.935 535.584 138.196 536.802 139.08C538.036 139.952 539.235 140.394 540.399 140.407C541.592 140.422 542.784 139.926 543.978 138.919C544.911 138.131 545.53 137.202 545.833 136.134C546.151 135.052 546.131 133.942 545.773 132.803C545.438 131.724 544.282 130.013 542.305 127.672Z" fill="#3A4440"/>
<path d="M579.93 183.406L569.847 166.024L560.493 171.45L569.777 187.455C570.46 188.633 570.699 189.663 570.494 190.547C570.316 191.437 569.794 192.133 568.928 192.636C568.061 193.138 567.186 193.264 566.3 193.014C565.431 192.754 564.65 192.026 563.957 190.831L554.673 174.826L543.838 181.11L554.267 199.091C554.971 200.303 555.212 201.378 554.993 202.316C554.8 203.261 554.236 204.005 553.301 204.548C552.4 205.07 551.483 205.185 550.549 204.893C549.644 204.609 548.839 203.86 548.136 202.647L535.973 181.679C534.998 179.999 534.667 178.571 534.98 177.394C535.303 176.234 536.296 175.172 537.959 174.207L566.592 157.599C567.7 156.956 568.697 156.598 569.58 156.525C570.481 156.442 571.289 156.657 572.003 157.169C572.744 157.688 573.431 158.493 574.064 159.585L585.88 179.955C586.593 181.185 586.843 182.255 586.631 183.166C586.445 184.083 585.911 184.798 585.028 185.311C584.127 185.833 583.224 185.952 582.318 185.667C581.439 185.39 580.643 184.636 579.93 183.406Z" fill="#3A4440"/>
<path d="M577.164 227.375L574.343 219.707L562.644 224.01C560.972 224.626 559.558 224.698 558.403 224.226C557.248 223.755 556.449 222.918 556.007 221.715C555.544 220.456 555.593 219.286 556.156 218.204C556.737 217.115 557.854 216.267 559.508 215.659L591.363 203.94C593.205 203.262 594.676 203.201 595.777 203.757C596.877 204.312 597.766 205.511 598.444 207.352L602.395 218.093C603.563 221.269 604.218 223.802 604.358 225.692C604.51 227.556 604.266 229.3 603.626 230.922C602.992 232.564 602.003 233.994 600.66 235.214C599.316 236.434 597.658 237.407 595.684 238.133C591.474 239.681 587.803 239.56 584.668 237.768C581.553 235.97 579.052 232.505 577.164 227.375ZM595.362 218.376L593.287 212.738L580.658 217.384L582.732 223.022C583.458 224.995 584.27 226.564 585.167 227.727C586.072 228.909 587.121 229.675 588.317 230.025C589.512 230.375 590.871 230.269 592.394 229.709C594.217 229.039 595.504 227.957 596.257 226.464C597.036 224.812 596.737 222.116 595.362 218.376Z" fill="#3A4440"/>
<path d="M587.307 255.019L608.149 251.271C609.923 250.952 611.324 251.107 612.353 251.736C613.385 252.385 614.018 253.359 614.252 254.66C614.497 256.02 614.247 257.174 613.501 258.122C612.76 259.089 611.502 259.732 609.728 260.051L588.413 263.885C585.989 264.321 584.007 264.952 582.467 265.778C580.95 266.621 579.862 267.813 579.204 269.356C578.565 270.895 578.469 272.906 578.915 275.389C579.532 278.819 580.875 281.08 582.943 282.173C585.031 283.262 587.928 283.474 591.633 282.807L613.126 278.942C614.919 278.62 616.32 278.775 617.329 279.407C618.358 280.036 618.991 281.011 619.229 282.331C619.466 283.652 619.214 284.796 618.472 285.763C617.754 286.747 616.498 287.4 614.705 287.723L593.863 291.471C590.473 292.08 587.584 292.254 585.197 291.991C582.814 291.749 580.6 290.865 578.555 289.34C576.813 288.026 575.42 286.384 574.374 284.416C573.328 282.447 572.553 280.064 572.05 277.265C571.451 273.934 571.29 271.003 571.567 268.471C571.864 265.935 572.625 263.774 573.85 261.987C575.095 260.196 576.826 258.735 579.044 257.604C581.281 256.469 584.036 255.608 587.307 255.019Z" fill="#3A4440"/>
<path d="M595.729 321.207L595.762 318.083L581.616 317.933C579.753 317.913 578.386 317.488 577.514 316.658C576.641 315.827 576.212 314.751 576.226 313.43C576.241 312.008 576.714 310.912 577.643 310.141C578.572 309.369 579.928 308.993 581.71 309.012L615.591 309.372C617.513 309.393 618.9 309.838 619.752 310.708C620.604 311.579 621.02 312.975 620.999 314.897L620.845 329.404C620.824 331.407 620.715 333.118 620.52 334.538C620.345 335.958 619.991 337.236 619.458 338.371C618.863 339.747 618.019 340.96 616.926 342.009C615.834 343.059 614.564 343.847 613.116 344.372C611.688 344.918 610.174 345.182 608.572 345.165C605.288 345.13 602.675 344.171 600.732 342.288C598.789 340.425 597.427 337.607 596.646 333.833C595.789 335.406 594.531 336.905 592.874 338.329C591.216 339.753 589.451 341.016 587.577 342.118C585.722 343.24 584.041 344.103 582.532 344.708C581.044 345.333 580.019 345.642 579.459 345.636C578.878 345.63 578.299 345.434 577.723 345.047C577.166 344.681 576.731 344.175 576.417 343.531C576.083 342.887 575.921 342.144 575.93 341.303C575.941 340.302 576.19 339.464 576.678 338.788C577.145 338.112 577.742 337.527 578.469 337.035C579.195 336.562 580.263 335.912 581.673 335.086L587.659 331.575C589.855 330.317 591.529 329.183 592.681 328.174C593.833 327.185 594.625 326.172 595.057 325.135C595.488 324.098 595.712 322.789 595.729 321.207ZM614.177 326.51L614.265 318.28L602.16 318.151L602.075 326.141C602.052 328.283 602.213 330.088 602.558 331.553C602.923 333.019 603.542 334.137 604.415 334.907C605.308 335.698 606.535 336.101 608.097 336.118C609.319 336.131 610.393 335.832 611.321 335.221C612.269 334.61 612.979 333.757 613.451 332.66C613.902 331.624 614.145 329.574 614.177 326.51Z" fill="#3A4440"/>
<path d="M588.513 379.124L590.071 371.104L577.835 368.727C576.085 368.387 574.839 367.716 574.095 366.715C573.351 365.713 573.101 364.584 573.346 363.326C573.602 362.009 574.25 361.033 575.291 360.399C576.352 359.769 577.747 359.622 579.477 359.958L612.796 366.431C614.723 366.805 616.013 367.515 616.667 368.56C617.321 369.605 617.46 371.091 617.086 373.017L614.903 384.251C614.258 387.573 613.506 390.079 612.647 391.769C611.812 393.442 610.7 394.807 609.312 395.864C607.92 396.939 606.333 397.651 604.552 397.999C602.771 398.346 600.848 398.32 598.784 397.919C594.381 397.063 591.303 395.057 589.55 391.902C587.816 388.75 587.471 384.491 588.513 379.124ZM608.74 380.851L609.886 374.954L596.676 372.387L595.531 378.284C595.13 380.348 595.012 382.11 595.177 383.57C595.338 385.05 595.84 386.249 596.681 387.167C597.523 388.086 598.74 388.699 600.332 389.009C602.239 389.379 603.9 389.121 605.317 388.233C606.839 387.223 607.98 384.763 608.74 380.851Z" fill="#3A4440"/>
<path d="M601.277 434.39C599.652 438.656 597.388 441.983 594.486 444.371C591.596 446.784 588.251 448.167 584.452 448.52C580.672 448.881 576.63 448.241 572.326 446.602C569.145 445.39 566.417 443.858 564.144 442.007C561.871 440.155 560.108 438.005 558.855 435.556C557.602 433.107 556.947 430.437 556.892 427.544C556.837 424.652 557.425 421.587 558.658 418.349C559.884 415.131 561.497 412.445 563.495 410.292C565.513 408.146 567.791 406.581 570.329 405.598C572.868 404.615 575.634 404.19 578.626 404.323C581.611 404.474 584.648 405.138 587.735 406.314C590.898 407.519 593.628 409.073 595.924 410.976C598.213 412.898 599.956 415.072 601.153 417.5C602.35 419.927 602.965 422.561 602.997 425.402C603.048 428.25 602.475 431.246 601.277 434.39ZM575.6 438.174C578.613 439.321 581.409 439.829 583.988 439.697C586.567 439.565 588.763 438.805 590.577 437.418C592.403 436.056 593.762 434.206 594.653 431.866C595.287 430.201 595.557 428.536 595.462 426.871C595.379 425.233 594.935 423.67 594.129 422.185C593.317 420.718 592.089 419.329 590.445 418.018C588.814 416.732 586.838 415.647 584.517 414.763C582.178 413.872 579.953 413.357 577.842 413.217C575.724 413.096 573.835 413.33 572.174 413.919C570.526 414.534 569.129 415.416 567.984 416.566C566.832 417.734 565.939 419.151 565.304 420.817C564.492 422.95 564.28 425.109 564.67 427.293C565.052 429.495 566.157 431.545 567.985 433.441C569.806 435.356 572.344 436.934 575.6 438.174Z" fill="#3A4440"/>
<path d="M540.249 483.977C537.973 482.594 536.286 480.761 535.19 478.478C534.083 476.212 533.702 473.638 534.048 470.755C534.394 467.872 535.508 464.882 537.39 461.784C539.646 458.07 542.209 455.433 545.079 453.873C547.129 452.775 549.319 452.197 551.652 452.138C553.991 452.106 555.956 452.574 557.547 453.541C558.472 454.102 559.066 454.897 559.332 455.926C559.604 456.982 559.439 458.006 558.836 458.998C558.347 459.803 557.679 460.323 556.833 460.558C555.977 460.811 554.924 460.828 553.675 460.608C552.186 460.359 550.873 460.264 549.736 460.323C548.588 460.399 547.443 460.781 546.299 461.468C545.172 462.166 544.109 463.336 543.111 464.979C541.738 467.238 541.148 469.386 541.339 471.424C541.537 473.489 542.423 475 543.997 475.957C545.247 476.716 546.49 476.944 547.728 476.642C548.973 476.367 550.17 475.747 551.319 474.782C552.458 473.833 553.872 472.49 555.561 470.751C557.837 468.432 559.951 466.612 561.902 465.29C563.86 463.996 565.894 463.252 568.003 463.057C570.12 462.891 572.265 463.468 574.438 464.788C576.509 466.046 578.005 467.729 578.928 469.836C579.85 471.943 580.089 474.326 579.645 476.985C579.218 479.655 578.126 482.435 576.368 485.328C574.965 487.638 573.462 489.455 571.861 490.778C570.267 492.13 568.653 493.07 567.019 493.6C565.402 494.141 563.915 494.35 562.559 494.23C561.203 494.109 560.029 493.747 559.036 493.144C558.129 492.592 557.506 491.768 557.165 490.671C556.831 489.601 556.955 488.587 557.537 487.628C558.068 486.755 558.687 486.218 559.396 486.016C560.111 485.841 561.126 485.79 562.441 485.863C564.277 486.041 565.88 485.891 567.25 485.411C568.637 484.941 569.975 483.645 571.264 481.523C572.46 479.555 572.991 477.698 572.856 475.953C572.728 474.235 572.057 473.007 570.842 472.269C570.089 471.811 569.314 471.621 568.516 471.699C567.719 471.777 566.906 472.056 566.075 472.536C565.245 473.015 564.495 473.555 563.825 474.156C563.156 474.757 562.092 475.774 560.635 477.209C558.849 479.029 557.137 480.613 555.498 481.96C553.849 483.325 552.232 484.346 550.649 485.024C549.055 485.719 547.396 486 545.673 485.867C543.956 485.761 542.148 485.131 540.249 483.977Z" fill="#3A4440"/>
<path d="M529.504 534.148L542.804 519.084L534.698 511.927L522.451 525.798C521.55 526.819 520.648 527.371 519.745 527.456C518.845 527.569 518.019 527.294 517.268 526.631C516.518 525.968 516.121 525.177 516.078 524.258C516.05 523.352 516.493 522.381 517.408 521.345L529.654 507.474L520.264 499.184L506.507 514.766C505.579 515.817 504.636 516.386 503.677 516.474C502.719 516.591 501.835 516.291 501.024 515.575C500.244 514.886 499.844 514.053 499.826 513.075C499.81 512.125 500.265 511.125 501.193 510.074L517.236 491.903C518.522 490.447 519.772 489.681 520.988 489.605C522.19 489.545 523.511 490.151 524.953 491.423L549.767 513.331C550.727 514.179 551.382 515.011 551.731 515.826C552.094 516.655 552.146 517.489 551.886 518.328C551.628 519.195 551.081 520.102 550.246 521.047L534.66 538.701C533.719 539.767 532.783 540.343 531.852 540.429C530.923 540.543 530.076 540.263 529.31 539.587C528.53 538.898 528.131 538.078 528.115 537.129C528.1 536.208 528.563 535.214 529.504 534.148Z" fill="#3A4440"/>
<path d="M458.499 115.228C452.453 115.228 446.322 113.694 440.699 110.474C407.338 91.3567 369.565 78.7394 323.191 76.2436C267.355 73.2407 226.237 84.3632 184.723 107.958C167.503 117.744 145.607 111.725 135.814 94.4979C126.022 77.2774 132.048 53.6166 149.275 43.8309C203.063 13.249 255.811 -0.836847 326.082 1.19141C383.42 2.84431 433.909 20.0318 476.918 44.6804C494.105 54.532 499.512 79.9972 489.653 97.1847C483.029 108.748 470.938 115.228 458.499 115.228Z" fill="#3A4440"/>
<path d="M458.499 115.228C452.453 115.228 446.322 113.694 440.699 110.474C407.338 91.3567 369.565 78.7394 323.191 76.2436C267.355 73.2407 226.237 84.3632 184.723 107.958C167.503 117.744 145.607 111.725 135.814 94.4979C126.022 77.2774 132.048 53.6166 149.275 43.8309C203.063 13.249 255.811 -0.836847 326.082 1.19141C383.42 2.84431 433.909 20.0318 476.918 44.6804C494.105 54.532 499.512 79.9972 489.653 97.1847C483.029 108.748 470.938 115.228 458.499 115.228Z" fill="#3A4440" stroke="#3A4440" stroke-width="0.129333" stroke-miterlimit="10"/>
<path d="M175.819 73.2002L173.03 74.6067L179.4 87.2393C180.238 88.9021 180.489 90.3118 180.153 91.4682C179.816 92.6246 179.058 93.5003 177.878 94.0953C176.608 94.7355 175.418 94.8201 174.306 94.3492C173.194 93.8783 172.236 92.8472 171.434 91.2558L156.179 61.002C155.313 59.2855 155.071 57.8489 155.452 56.6924C155.834 55.5358 156.882 54.5248 158.599 53.6593L171.553 47.1272C173.341 46.2256 174.911 45.5352 176.261 45.056C177.603 44.5589 178.901 44.2859 180.154 44.2369C181.65 44.1333 183.114 44.3254 184.549 44.8131C185.983 45.3008 187.267 46.0666 188.399 47.1106C189.539 48.1277 190.47 49.3514 191.192 50.7819C192.67 53.7143 193.02 56.4759 192.241 59.0666C191.479 61.6484 189.603 64.1533 186.611 66.5814C188.402 66.6201 190.311 67.048 192.338 67.8651C194.364 68.6821 196.298 69.6697 198.137 70.8277C199.986 71.9588 201.526 73.0551 202.756 74.1166C203.995 75.1513 204.741 75.9189 204.994 76.4196C205.255 76.9381 205.347 77.5423 205.269 78.2321C205.199 78.8951 204.95 79.5138 204.523 80.0884C204.104 80.6809 203.519 81.1665 202.768 81.5452C201.874 81.996 201.015 82.1601 200.19 82.0375C199.375 81.9328 198.581 81.6713 197.81 81.253C197.056 80.8256 195.988 80.1755 194.606 79.3025L188.737 75.6014C186.61 74.2294 184.833 73.2637 183.407 72.7044C181.999 72.136 180.736 71.8984 179.617 71.9918C178.498 72.0851 177.232 72.4879 175.819 73.2002ZM172.048 54.3795L164.699 58.0851L170.149 68.8938L177.284 65.2965C179.197 64.3318 180.725 63.3594 181.868 62.3794C183.002 61.3815 183.71 60.3179 183.993 59.1885C184.285 58.0323 184.079 56.7568 183.376 55.3621C182.826 54.2714 182.066 53.4546 181.097 52.9116C180.119 52.3507 179.035 52.1125 177.844 52.1972C176.716 52.2726 174.784 53.0001 172.048 54.3795Z" fill="#586546"/>
<path d="M234.439 30.3025L215.243 36.2448L218.44 46.5747L236.116 41.1031C237.417 40.7005 238.474 40.6979 239.289 41.0955C240.117 41.4681 240.679 42.1326 240.975 43.0891C241.272 44.0455 241.199 44.9275 240.757 45.7351C240.309 46.5235 239.425 47.122 238.105 47.5306L220.43 53.0022L224.134 64.9676L243.99 58.821C245.329 58.4065 246.431 58.4112 247.296 58.8353C248.174 59.2342 248.773 59.9502 249.093 60.9832C249.401 61.9779 249.308 62.8975 248.815 63.7419C248.335 64.5613 247.425 65.1783 246.086 65.5928L222.93 72.7609C221.075 73.3353 219.608 73.3385 218.531 72.7706C217.473 72.1967 216.66 70.9916 216.091 69.1552L206.303 37.5342C205.924 36.31 205.798 35.259 205.924 34.3813C206.045 33.4845 206.435 32.7455 207.093 32.1643C207.765 31.558 208.704 31.0684 209.909 30.6953L232.405 23.7315C233.763 23.3111 234.862 23.3063 235.702 23.7171C236.555 24.1029 237.133 24.7835 237.435 25.7591C237.743 26.7539 237.657 27.6609 237.176 28.4803C236.71 29.2747 235.797 29.8821 234.439 30.3025Z" fill="#586546"/>
<path d="M284.047 22.101L274.405 23.4215L278.746 55.1156C278.995 56.9408 278.775 58.3556 278.084 59.3597C277.39 60.3441 276.398 60.9246 275.109 61.1012C273.799 61.2805 272.667 60.9808 271.711 60.2022C270.775 59.4208 270.184 58.1274 269.937 56.3219L265.596 24.6279L255.954 25.9484C254.446 26.1548 253.28 25.981 252.457 25.4268C251.63 24.8528 251.142 24.0202 250.993 22.929C250.838 21.7981 251.093 20.8537 251.757 20.0958C252.441 19.3351 253.507 18.8556 254.955 18.6572L283.049 14.8099C284.576 14.6007 285.753 14.7831 286.58 15.3571C287.426 15.9284 287.924 16.7596 288.073 17.8508C288.223 18.942 287.967 19.8765 287.305 20.6543C286.641 21.4123 285.555 21.8945 284.047 22.101Z" fill="#586546"/>
<path d="M311.435 18.3826L311.015 30.9913L330.258 31.6319L330.678 19.0232C330.738 17.2219 331.183 15.8843 332.014 15.0103C332.864 14.137 333.95 13.7223 335.271 13.7663C336.612 13.811 337.678 14.2972 338.468 15.2252C339.28 16.1338 339.655 17.4987 339.594 19.32L338.44 53.994C338.379 55.8152 337.914 57.1622 337.043 58.0348C336.173 58.9075 335.077 59.3218 333.756 59.2778C332.415 59.2332 331.359 58.7472 330.589 57.82C329.819 56.8727 329.464 55.4984 329.524 53.6972L330.017 38.8969L310.773 38.2563L310.281 53.0566C310.22 54.8778 309.754 56.2248 308.884 57.0974C308.013 57.9701 306.918 58.3844 305.597 58.3404C304.256 58.2958 303.2 57.8098 302.429 56.8826C301.659 55.9353 301.304 54.561 301.364 52.7598L302.519 18.0857C302.579 16.2845 303.014 14.9466 303.824 14.0719C304.655 13.1979 305.751 12.7836 307.112 12.8289C308.453 12.8735 309.518 13.3598 310.309 14.2878C311.12 15.1964 311.495 16.5613 311.435 18.3826Z" fill="#586546"/>
<path d="M353.923 56.6391L359.998 22.482C360.314 20.7076 360.955 19.4487 361.921 18.7053C362.887 17.9619 364.011 17.7042 365.293 17.9321C366.614 18.1671 367.599 18.8001 368.25 19.8311C368.924 20.8458 369.101 22.2503 368.782 24.0444L362.706 58.2014C362.387 59.9955 361.734 61.2625 360.748 62.0025C359.782 62.7459 358.639 63.0001 357.318 62.7651C356.056 62.5407 355.09 61.9112 354.42 60.8767C353.773 59.826 353.607 58.4135 353.923 56.6391Z" fill="#586546"/>
<path d="M399.945 31.6557L408.129 61.6681L416.313 36.7868C416.845 35.1699 417.585 34.0746 418.532 33.5009C419.505 32.9145 420.581 32.8152 421.761 33.2032C422.978 33.6037 423.804 34.3286 424.239 35.3781C424.68 36.4086 424.635 37.7323 424.103 39.3492L413.281 72.2484C412.073 75.9198 409.948 77.2549 406.904 76.2537C406.143 76.0034 405.496 75.664 404.962 75.2355C404.422 74.826 403.964 74.2959 403.588 73.6451C403.212 72.9944 402.899 72.28 402.649 71.5021C402.405 70.7052 402.164 69.8987 401.927 69.0828L394.049 39.4871L385.987 63.9975C385.461 65.5954 384.693 66.6813 383.682 67.2552C382.671 67.8291 381.585 67.9253 380.425 67.5436C379.226 67.1494 378.4 66.4244 377.946 65.3686C377.499 64.2939 377.535 62.9671 378.054 61.3882L388.67 29.1167C389.12 27.747 389.626 26.7223 390.187 26.0425C390.83 25.3054 391.657 24.8082 392.67 24.5509C393.688 24.2746 394.682 24.2959 395.652 24.6151C396.413 24.8654 397.019 25.2018 397.471 25.6243C397.941 26.053 398.307 26.5423 398.569 27.0922C398.85 27.6484 399.09 28.3282 399.289 29.1316C399.508 29.9413 399.727 30.7827 399.945 31.6557Z" fill="#586546"/>
<path d="M450.671 52.1848L443.227 65.7107L467.374 58.1552C468.536 57.7888 469.473 57.5615 470.184 57.4731C470.913 57.3943 471.707 57.5915 472.567 58.0647C473.69 58.6826 474.41 59.5132 474.727 60.5565C475.072 61.5918 474.983 62.5831 474.462 63.5305C473.834 64.6708 472.624 65.4789 470.83 65.9547L456.377 69.7258L458.692 91.4347C458.865 92.9473 458.918 94.222 458.85 95.259C458.792 96.2784 458.55 97.1741 458.125 97.946C457.652 98.8056 456.9 99.3629 455.868 99.6179C454.854 99.8825 453.768 99.6962 452.61 99.0589C451.522 98.4603 450.762 97.7446 450.328 96.9119C449.905 96.0616 449.669 95.1202 449.62 94.0876C449.571 93.055 449.536 92.1215 449.516 91.2872L448.1 71.9933L438.331 74.6052L433.942 82.5786C433.054 84.1926 432.024 85.1915 430.853 85.5754C429.691 85.9418 428.532 85.8063 427.374 85.1691C426.707 84.8021 426.163 84.2743 425.742 83.5855C425.321 82.8966 425.108 82.1623 425.103 81.3823C425.128 80.7559 425.293 80.1037 425.598 79.4256C425.902 78.7476 426.392 77.7945 427.068 76.5665L442.856 47.8831C443.725 46.3042 444.718 45.3084 445.837 44.8955C446.973 44.4923 448.138 44.6189 449.331 45.2755C450.506 45.9225 451.236 46.8386 451.521 48.024C451.833 49.2014 451.55 50.5884 450.671 52.1848Z" fill="#586546"/>
<path d="M164.942 534.573C170.987 534.527 177.131 536.015 182.781 539.196C216.28 558.056 254.152 570.391 300.545 572.537C356.401 575.119 397.428 563.687 438.763 539.782C455.911 529.858 477.853 535.719 487.771 552.867C497.695 570.015 491.847 593.716 474.699 603.639C421.141 634.623 368.499 649.104 298.214 647.609C240.863 646.391 190.249 629.579 147.056 605.259C129.79 595.533 124.199 570.114 133.919 552.847C140.458 541.238 152.502 534.666 164.942 534.573Z" fill="#3A4440"/>
<path d="M164.942 534.573C170.987 534.527 177.131 536.015 182.781 539.196C216.28 558.056 254.152 570.391 300.545 572.537C356.401 575.119 397.428 563.687 438.763 539.782C455.911 529.858 477.853 535.719 487.771 552.867C497.695 570.015 491.847 593.716 474.699 603.639C421.141 634.623 368.499 649.104 298.214 647.609C240.863 646.391 190.249 629.579 147.056 605.259C129.79 595.533 124.199 570.114 133.919 552.847C140.458 541.238 152.502 534.666 164.942 534.573Z" fill="#3A4440" stroke="#3A4440" stroke-width="0.129333" stroke-miterlimit="10"/>
<path d="M448.127 574.663L450.906 573.235L444.441 560.651C443.59 558.994 443.328 557.587 443.656 556.428C443.983 555.269 444.735 554.387 445.911 553.783C447.175 553.134 448.365 553.04 449.481 553.503C450.597 553.965 451.562 554.989 452.376 556.574L467.859 586.712C468.738 588.422 468.991 589.857 468.618 591.016C468.246 592.176 467.205 593.195 465.495 594.073L452.59 600.703C450.809 601.618 449.244 602.32 447.897 602.81C446.56 603.317 445.264 603.6 444.011 603.658C442.516 603.773 441.05 603.592 439.612 603.115C438.174 602.638 436.885 601.882 435.745 600.847C434.597 599.838 433.656 598.622 432.924 597.197C431.423 594.275 431.053 591.517 431.813 588.92C432.555 586.332 434.412 583.813 437.386 581.363C435.594 581.338 433.682 580.924 431.649 580.122C429.617 579.321 427.676 578.348 425.827 577.204C423.97 576.087 422.422 575.002 421.184 573.95C419.937 572.924 419.185 572.162 418.929 571.664C418.664 571.147 418.567 570.544 418.64 569.853C418.705 569.19 418.949 568.569 419.372 567.991C419.787 567.396 420.368 566.906 421.116 566.521C422.007 566.064 422.865 565.893 423.69 566.01C424.506 566.108 425.301 566.364 426.076 566.776C426.833 567.198 427.906 567.84 429.295 568.702L435.192 572.359C437.329 573.715 439.113 574.667 440.543 575.216C441.955 575.774 443.22 576.002 444.339 575.9C445.457 575.798 446.72 575.386 448.127 574.663ZM452.04 593.455L459.361 589.694L453.83 578.926L446.722 582.577C444.817 583.556 443.296 584.54 442.16 585.529C441.034 586.535 440.334 587.604 440.059 588.736C439.776 589.894 439.992 591.168 440.706 592.557C441.264 593.644 442.029 594.455 443.003 594.991C443.985 595.544 445.071 595.774 446.261 595.681C447.389 595.597 449.315 594.855 452.04 593.455Z" fill="#586546"/>
<path d="M389.831 618.003L408.983 611.916L405.707 601.61L388.073 607.215C386.775 607.628 385.717 607.638 384.9 607.247C384.069 606.881 383.502 606.22 383.198 605.266C382.895 604.312 382.961 603.429 383.397 602.618C383.839 601.827 384.718 601.221 386.035 600.803L403.669 595.198L399.875 583.261L380.065 589.557C378.729 589.982 377.627 589.985 376.759 589.568C375.878 589.176 375.274 588.464 374.946 587.434C374.631 586.441 374.716 585.521 375.203 584.673C375.677 583.85 376.582 583.226 377.918 582.801L401.019 575.459C402.871 574.87 404.337 574.856 405.418 575.416C406.481 575.982 407.303 577.181 407.885 579.013L417.912 610.559C418.3 611.781 418.435 612.831 418.315 613.709C418.201 614.607 417.817 615.349 417.162 615.935C416.495 616.546 415.561 617.043 414.358 617.425L391.915 624.559C390.56 624.989 389.461 625.002 388.618 624.598C387.762 624.219 387.179 623.542 386.87 622.569C386.555 621.577 386.634 620.669 387.108 619.846C387.568 619.048 388.476 618.434 389.831 618.003Z" fill="#586546"/>
<path d="M340.286 626.578L349.918 625.185L345.339 593.524C345.075 591.701 345.285 590.284 345.969 589.275C346.655 588.285 347.642 587.698 348.931 587.511C350.239 587.322 351.373 587.613 352.335 588.385C353.276 589.159 353.877 590.448 354.138 592.251L358.718 623.912L368.35 622.519C369.856 622.301 371.023 622.466 371.851 623.014C372.682 623.581 373.176 624.41 373.334 625.5C373.497 626.63 373.25 627.576 372.591 628.339C371.913 629.105 370.85 629.593 369.403 629.802L341.34 633.861C339.814 634.082 338.635 633.908 337.805 633.341C336.954 632.776 336.45 631.948 336.292 630.858C336.135 629.768 336.384 628.832 337.039 628.049C337.698 627.286 338.78 626.796 340.286 626.578Z" fill="#586546"/>
<path d="M312.927 630.504L313.252 617.892L294.004 617.396L293.68 630.008C293.633 631.81 293.198 633.151 292.374 634.031C291.53 634.911 290.448 635.333 289.126 635.299C287.785 635.265 286.716 634.787 285.918 633.865C285.1 632.962 284.714 631.6 284.761 629.778L285.654 595.096C285.701 593.275 286.156 591.924 287.02 591.045C287.884 590.166 288.977 589.743 290.298 589.777C291.639 589.812 292.699 590.29 293.476 591.211C294.253 592.153 294.619 593.524 294.572 595.326L294.191 610.13L313.439 610.625L313.82 595.821C313.867 594 314.323 592.649 315.187 591.77C316.051 590.891 317.143 590.468 318.464 590.502C319.806 590.537 320.865 591.015 321.643 591.936C322.42 592.878 322.785 594.249 322.739 596.051L321.846 630.733C321.799 632.535 321.374 633.876 320.57 634.757C319.746 635.637 318.654 636.06 317.292 636.024C315.951 635.99 314.882 635.512 314.084 634.59C313.266 633.687 312.881 632.325 312.927 630.504Z" fill="#586546"/>
<path d="M270.152 592.568L264.333 626.77C264.03 628.547 263.399 629.81 262.438 630.561C261.478 631.312 260.356 631.578 259.073 631.36C257.75 631.135 256.76 630.509 256.101 629.483C255.42 628.473 255.232 627.07 255.538 625.274L261.357 591.072C261.663 589.275 262.306 588.003 263.286 587.256C264.247 586.505 265.388 586.243 266.711 586.468C267.974 586.683 268.945 587.305 269.623 588.334C270.278 589.38 270.454 590.791 270.152 592.568Z" fill="#586546"/>
<path d="M224.312 617.885L215.904 587.935L207.906 612.877C207.387 614.498 206.655 615.599 205.712 616.18C204.744 616.774 203.668 616.881 202.486 616.502C201.265 616.111 200.434 615.392 199.991 614.346C199.543 613.319 199.578 611.995 200.098 610.374L210.672 577.394C211.852 573.714 213.968 572.363 217.019 573.341C217.781 573.585 218.431 573.92 218.968 574.344C219.511 574.75 219.973 575.277 220.354 575.924C220.735 576.572 221.054 577.284 221.309 578.06C221.559 578.855 221.806 579.66 222.05 580.474L230.15 610.01L238.028 585.439C238.541 583.838 239.301 582.746 240.308 582.165C241.314 581.583 242.399 581.479 243.563 581.852C244.764 582.237 245.595 582.956 246.057 584.008C246.513 585.079 246.487 586.406 245.979 587.989L235.607 620.34C235.167 621.712 234.669 622.741 234.113 623.425C233.475 624.167 232.652 624.67 231.641 624.935C230.625 625.219 229.631 625.205 228.658 624.893C227.895 624.649 227.287 624.317 226.832 623.898C226.359 623.473 225.989 622.986 225.723 622.438C225.438 621.884 225.193 621.206 224.987 620.404C224.763 619.596 224.538 618.757 224.312 617.885Z" fill="#586546"/>
<path d="M173.437 597.747L180.779 584.165L156.689 591.903C155.53 592.278 154.595 592.512 153.884 592.606C153.156 592.69 152.36 592.499 151.497 592.032C150.369 591.423 149.643 590.598 149.318 589.557C148.966 588.524 149.047 587.532 149.561 586.581C150.18 585.436 151.384 584.619 153.174 584.129L167.599 580.249L165.12 558.558C164.936 557.047 164.873 555.773 164.933 554.735C164.984 553.715 165.219 552.818 165.638 552.043C166.104 551.18 166.853 550.617 167.882 550.354C168.895 550.082 169.982 550.26 171.145 550.888C172.237 551.479 173.003 552.189 173.442 553.018C173.872 553.865 174.115 554.805 174.172 555.837C174.228 556.869 174.27 557.803 174.297 558.637L175.858 577.92L185.607 575.234L189.936 567.228C190.812 565.607 191.834 564.6 193.003 564.208C194.162 563.832 195.322 563.959 196.485 564.588C197.154 564.95 197.702 565.473 198.128 566.159C198.554 566.845 198.773 567.577 198.784 568.357C198.764 568.984 198.604 569.637 198.304 570.318C198.005 570.998 197.522 571.955 196.855 573.188L181.285 601.99C180.427 603.575 179.441 604.578 178.326 605C177.192 605.412 176.027 605.294 174.829 604.646C173.649 604.008 172.912 603.097 172.618 601.914C172.297 600.739 172.57 599.35 173.437 597.747Z" fill="#586546"/>
<path d="M495.007 224.97C495.007 279.146 412.592 323.063 310.929 323.063C209.272 323.063 126.858 279.146 126.858 224.97C126.858 170.793 209.272 126.876 310.929 126.876C412.592 126.876 495.007 170.793 495.007 224.97Z" stroke="#3A4440" stroke-width="5" stroke-miterlimit="10"/>
<path d="M495.007 423.816C495.007 477.993 412.592 521.91 310.929 521.91C209.272 521.91 126.858 477.993 126.858 423.816C126.858 369.639 209.272 325.722 310.929 325.722C412.592 325.722 495.007 369.639 495.007 423.816Z" stroke="#3A4440" stroke-width="5" stroke-miterlimit="10"/>
<path d="M526.944 307.146C512.1 247.352 421.053 201.341 310.934 201.341C200.809 201.341 109.768 247.352 94.9178 307.146" stroke="#3A4440" stroke-width="5" stroke-miterlimit="10" stroke-linecap="round" stroke-linejoin="round"/>
<path d="M94.9204 341.567C109.764 401.361 200.811 447.372 310.93 447.372C421.055 447.372 512.096 401.361 526.946 341.567" stroke="#3A4440" stroke-width="5" stroke-miterlimit="10" stroke-linecap="round" stroke-linejoin="round"/>
<path d="M345.902 539.626C444.174 523.782 520.464 442.29 528.334 341.568" stroke="#3A4440" stroke-width="5" stroke-miterlimit="10" stroke-linecap="round" stroke-linejoin="round"/>
<path d="M93.533 341.567C101.396 442.288 177.693 523.781 275.964 539.625" stroke="#3A4440" stroke-width="5" stroke-miterlimit="10" stroke-linecap="round" stroke-linejoin="round"/>
<path d="M345.903 538.573C360.364 532.818 369.742 523.592 369.742 513.187C369.742 495.75 343.414 481.618 310.935 481.618C278.457 481.618 252.129 495.75 252.129 513.187C252.129 523.592 261.506 532.818 275.961 538.573" stroke="#3A4440" stroke-width="5" stroke-miterlimit="10" stroke-linecap="round" stroke-linejoin="round"/>
<path d="M528.331 307.146C520.468 206.425 444.171 124.926 345.9 109.088" stroke="#3A4440" stroke-width="5" stroke-miterlimit="10" stroke-linecap="round" stroke-linejoin="round"/>
<path d="M275.963 109.086C177.691 124.93 101.401 206.423 93.5317 307.144" stroke="#3A4440" stroke-width="5" stroke-miterlimit="10" stroke-linecap="round" stroke-linejoin="round"/>
<path d="M275.962 110.601C261.501 116.304 252.123 125.457 252.123 135.783C252.123 153.076 278.451 167.102 310.93 167.102C343.408 167.102 369.736 153.076 369.736 135.783C369.736 125.457 360.359 116.304 345.904 110.601" stroke="#3A4440" stroke-width="5" stroke-miterlimit="10" stroke-linecap="round" stroke-linejoin="round"/>
<path d="M406.593 324.356C406.593 353.423 363.763 376.992 310.929 376.992C258.102 376.992 215.272 353.423 215.272 324.356C215.272 295.289 258.102 271.72 310.929 271.72C363.763 271.72 406.593 295.289 406.593 324.356Z" fill="#3A4440"/>
<path d="M406.593 324.356C406.593 353.423 363.763 376.992 310.929 376.992C258.102 376.992 215.272 353.423 215.272 324.356C215.272 295.289 258.102 271.72 310.929 271.72C363.763 271.72 406.593 295.289 406.593 324.356Z" stroke="#3A4440" stroke-width="0.184" stroke-miterlimit="10"/>
<path d="M316.328 314.122C316.058 314.227 315.985 314.569 316.189 314.78C319.067 317.664 315.471 321.398 312.455 318.672C312.245 318.481 311.909 318.547 311.81 318.81C310.085 323.618 302.479 319.884 305.284 315.557C305.429 315.333 305.324 315.03 305.06 314.958C300.101 313.575 301.504 307.312 306.674 308.208C306.884 308.241 307.088 308.096 307.121 307.879C307.786 303.486 314.734 304.375 314.391 308.702C314.372 308.972 314.609 309.183 314.872 309.13C318.823 308.313 319.969 312.666 316.328 314.122ZM326.982 324.19C325.369 319.765 325.178 316.295 325.178 312.383C325.178 308.807 325.791 304.454 325.791 301.392C325.791 296.974 321.879 293.055 311.079 293.055C298.831 293.055 295.347 297.395 295.347 301.906C295.347 305.218 296.328 308.583 295.966 311.705C294.682 322.768 282.927 338.731 282.927 348.26C282.927 352.764 286.417 355.655 292.199 355.655C297.217 355.655 300.938 353.166 300.938 348.826C300.938 347.298 300.958 345.704 300.958 343.577C300.958 339.323 304.955 337.117 309.716 337.117C315.333 337.117 319.159 339.923 319.159 343.834C319.159 345.448 318.646 347.068 318.646 348.681C318.646 353.956 325.264 355.543 329.327 355.154C334.588 354.647 338.935 351.309 338.935 347.054C338.935 340.68 330.473 334.141 326.982 324.19" fill="#586546"/>
</svg>
