<svg width="116" height="122" viewBox="0 0 116 122" fill="none" xmlns="http://www.w3.org/2000/svg">
<path d="M19.7802 97.7131L20.1756 98.137L22.0954 96.3466C22.3482 96.1109 22.5863 95.993 22.8097 95.9929C23.0332 95.9929 23.2286 96.0825 23.3958 96.2618C23.5757 96.4548 23.6526 96.6625 23.6265 96.8851C23.6003 97.1076 23.4663 97.3317 23.2244 97.5572L18.6265 101.845C18.3656 102.088 18.1223 102.206 17.8964 102.198C17.6706 102.19 17.4361 102.056 17.1928 101.795L15.3568 99.8262C15.1034 99.5544 14.8989 99.3107 14.7435 99.095C14.5853 98.8817 14.4693 98.6647 14.3955 98.444C14.2994 98.183 14.2576 97.912 14.2701 97.6312C14.2825 97.3503 14.3523 97.0819 14.4796 96.8261C14.6016 96.5701 14.7712 96.3407 14.9886 96.138C15.4343 95.7224 15.9081 95.5168 16.4101 95.5212C16.9096 95.5228 17.4532 95.7271 18.041 96.1341C17.955 95.813 17.9321 95.4507 17.9725 95.0472C18.0129 94.6438 18.0885 94.2481 18.1993 93.8603C18.3048 93.4722 18.4202 93.1411 18.5455 92.8668C18.6655 92.5923 18.7635 92.4196 18.8396 92.3486C18.9184 92.2751 19.0213 92.2274 19.1483 92.2056C19.27 92.1835 19.3931 92.1957 19.5177 92.2421C19.645 92.286 19.7618 92.365 19.8683 92.4792C19.995 92.615 20.0688 92.7596 20.0897 92.9128C20.1134 93.0635 20.108 93.2184 20.0735 93.3775C20.0365 93.534 19.9761 93.758 19.8923 94.0495L19.5376 95.2872C19.4036 95.7374 19.3237 96.1039 19.2981 96.387C19.2699 96.6673 19.2932 96.9047 19.3679 97.0992C19.4426 97.2938 19.58 97.4984 19.7802 97.7131ZM16.6231 99.3617L17.6646 100.479L19.3073 98.9466L18.2962 97.8624C18.0251 97.5716 17.7725 97.3499 17.5386 97.1971C17.302 97.0469 17.0757 96.9759 16.8599 96.9841C16.6388 96.9922 16.4222 97.095 16.2103 97.2927C16.0445 97.4473 15.9384 97.625 15.8919 97.8258C15.8428 98.0291 15.8566 98.2347 15.9335 98.4424C16.0055 98.6395 16.2354 98.9459 16.6231 99.3617Z" fill="#3A4440"/>
<path d="M9.45918 89.9115L11.5211 93.0182L13.1929 91.9087L11.2943 89.0481C11.1546 88.8375 11.0988 88.6494 11.127 88.4835C11.15 88.3166 11.2389 88.1818 11.3937 88.079C11.5485 87.9763 11.7093 87.9431 11.8762 87.9795C12.04 88.018 12.1927 88.144 12.3345 88.3577L14.2331 91.2183L16.1696 89.933L14.0368 86.7195C13.8929 86.5028 13.8361 86.3063 13.8664 86.1302C13.8915 85.953 13.9876 85.8089 14.1548 85.6979C14.3158 85.5911 14.4843 85.5595 14.6605 85.6031C14.8315 85.6457 14.9889 85.7754 15.1327 85.9921L17.62 89.7397C17.8193 90.04 17.8965 90.3009 17.8518 90.5223C17.805 90.7407 17.6329 90.9485 17.3357 91.1458L12.2182 94.5423C12.0201 94.6738 11.8396 94.7512 11.6767 94.7746C11.5108 94.8 11.3588 94.7693 11.2209 94.6825C11.0778 94.5946 10.9416 94.4531 10.8121 94.2581L8.39574 90.6173C8.24986 90.3975 8.19152 90.2021 8.22072 90.0311C8.24478 89.859 8.33575 89.7206 8.49364 89.6158C8.65463 89.509 8.82061 89.4768 8.9916 89.5194C9.15743 89.561 9.31329 89.6917 9.45918 89.9115Z" fill="#3A4440"/>
<path d="M7.87069 78.3877L9.30684 77.7629C9.49765 77.6799 9.65913 77.6319 9.79128 77.619C9.92002 77.6076 10.0526 77.633 10.1891 77.6952C10.3241 77.7539 10.4682 77.8432 10.6216 77.9629C11.0641 78.3093 11.4327 78.6676 11.7274 79.0378C12.0222 79.408 12.277 79.8401 12.492 80.3341C12.7425 80.9099 12.8821 81.4732 12.911 82.0239C12.9398 82.5746 12.8582 83.0902 12.6662 83.5709C12.4741 84.0515 12.1772 84.4867 11.7753 84.8762C11.372 85.2624 10.8739 85.5845 10.281 85.8424C9.69836 86.0958 9.12733 86.2409 8.56791 86.2776C8.00848 86.3143 7.48674 86.2374 7.00268 86.0468C6.51862 85.8563 6.08276 85.5576 5.6951 85.1508C5.30404 84.7456 4.97511 84.2363 4.7083 83.623C4.48893 83.1187 4.3629 82.6427 4.33021 82.195C4.29412 81.7488 4.32567 81.3602 4.42486 81.0294C4.52406 80.6985 4.66112 80.4221 4.83604 80.2001C5.01097 79.9782 5.18702 79.8287 5.36419 79.7516C5.555 79.6686 5.74968 79.669 5.94822 79.7528C6.14187 79.8347 6.28169 79.9744 6.36766 80.172C6.41509 80.2811 6.43549 80.3978 6.42884 80.5223C6.42072 80.6433 6.38548 80.7579 6.32313 80.8661C6.11163 81.181 5.95909 81.4357 5.86549 81.6304C5.7719 81.8251 5.72217 82.0554 5.7163 82.3214C5.70894 82.5839 5.77938 82.8855 5.9276 83.2263C6.08028 83.5772 6.27797 83.864 6.5207 84.0866C6.76001 84.3107 7.0385 84.4712 7.35617 84.568C7.66894 84.6629 8.01526 84.6906 8.39512 84.6509C8.77349 84.6079 9.16541 84.4982 9.57088 84.3218C10.4499 83.9394 11.0388 83.4441 11.3375 82.836C11.6348 82.2245 11.6262 81.5576 11.312 80.8353C11.1593 80.4843 10.9703 80.1755 10.7449 79.9089C10.518 79.6389 10.2505 79.3825 9.94226 79.1397L8.72588 79.6689L9.23725 80.8444C9.36028 81.1272 9.41107 81.3604 9.38963 81.5439C9.3667 81.7241 9.25302 81.8586 9.04858 81.9476C8.88163 82.0202 8.7177 82.0206 8.55679 81.9488C8.39439 81.8736 8.26799 81.732 8.17757 81.5242L7.42829 79.8018C7.33639 79.5906 7.27732 79.4035 7.25106 79.2407C7.2248 79.0779 7.25714 78.924 7.34808 78.7791C7.43753 78.6308 7.61174 78.5003 7.87069 78.3877Z" fill="#3A4440"/>
<path d="M2.43455 71.5915L3.29943 75.2185L5.25121 74.7531L4.45485 71.4134C4.39624 71.1676 4.40874 70.9717 4.49234 70.8257C4.57147 70.677 4.7014 70.5811 4.88212 70.538C5.06284 70.4949 5.22525 70.5192 5.36935 70.6109C5.50984 70.7034 5.60982 70.8744 5.66929 71.1238L6.46565 74.4635L8.72646 73.9244L7.83184 70.1727C7.77151 69.9197 7.7859 69.7157 7.87501 69.5607C7.95964 69.403 8.09955 69.3009 8.29473 69.2544C8.48267 69.2096 8.6518 69.238 8.8021 69.3397C8.94793 69.4386 9.05101 69.6146 9.11134 69.8676L10.1546 74.2428C10.2382 74.5934 10.2208 74.8649 10.1025 75.0574C9.98327 75.2463 9.75017 75.3821 9.40318 75.4648L3.42858 76.8895C3.19726 76.9446 3.00112 76.9551 2.84017 76.9209C2.67561 76.8876 2.54356 76.8064 2.44402 76.6773C2.34001 76.5455 2.26086 76.3657 2.20656 76.138L1.19301 71.8875C1.13181 71.6309 1.1444 71.4273 1.23075 71.2769C1.31264 71.1236 1.44574 71.0251 1.63008 70.9811C1.81803 70.9363 1.98491 70.9633 2.13074 71.0623C2.27209 71.1584 2.37336 71.3348 2.43455 71.5915Z" fill="#3A4440"/>
<path d="M1.20314 65.2779L5.84115 61.8418L0.987971 62.1024C0.672589 62.1193 0.433393 62.0652 0.270385 61.94C0.103467 61.8113 0.0138315 61.6319 0.00147879 61.4018C-0.0112724 61.1644 0.0584392 60.9727 0.210614 60.8269C0.359078 60.6812 0.591001 60.5999 0.906383 60.583L7.32348 60.2384C8.03959 60.2 8.41358 60.4776 8.44545 61.0712C8.45342 61.2196 8.43833 61.3544 8.40019 61.4755C8.36575 61.5964 8.30494 61.7113 8.21776 61.8202C8.13058 61.9291 8.02815 62.0313 7.91049 62.127C7.78912 62.2228 7.6659 62.3187 7.54081 62.4147L2.95428 65.77L7.73511 65.5133C8.04678 65.4965 8.28627 65.5562 8.45359 65.6924C8.62091 65.8285 8.71064 66.0097 8.72279 66.2361C8.73535 66.4698 8.66563 66.6615 8.51366 66.811C8.35797 66.9608 8.12615 67.0439 7.81819 67.0605L1.52353 67.3985C1.25638 67.4128 1.04515 67.3944 0.88984 67.3432C0.719087 67.2817 0.577382 67.1721 0.464725 67.0144C0.348358 66.8569 0.285094 66.6836 0.274932 66.4943C0.266963 66.3459 0.284306 66.2185 0.326963 66.112C0.36942 66.0018 0.42937 65.9056 0.506815 65.8233C0.58406 65.7372 0.685422 65.6499 0.810902 65.5613C0.936183 65.469 1.06693 65.3746 1.20314 65.2779Z" fill="#3A4440"/>
<path d="M2.18767 51.6691L1.73766 55.3706L3.72948 55.6127L4.14383 52.2045C4.17432 51.9537 4.25414 51.7744 4.38328 51.6665C4.50919 51.5546 4.66435 51.5098 4.84878 51.5322C5.03321 51.5547 5.17704 51.6339 5.28027 51.77C5.37982 51.9056 5.41412 52.1007 5.38318 52.3552L4.96883 55.7634L7.27601 56.0439L7.74148 52.2152C7.77287 51.957 7.85728 51.7707 7.99469 51.6564C8.12887 51.538 8.29555 51.4909 8.49473 51.5151C8.68654 51.5384 8.83523 51.6239 8.94081 51.7715C9.04314 51.9149 9.07862 52.1157 9.04723 52.3739L8.5044 56.8389C8.4609 57.1967 8.35021 57.4453 8.17232 57.5846C7.99487 57.7202 7.7291 57.7665 7.375 57.7235L1.27785 56.9822C1.04178 56.9535 0.854235 56.8951 0.715214 56.8071C0.572504 56.7186 0.47692 56.5966 0.428464 56.441C0.376768 56.2812 0.365045 56.0852 0.393296 55.8528L0.920655 51.5151C0.952493 51.2532 1.03505 51.0667 1.16833 50.9557C1.29837 50.8405 1.45745 50.7943 1.64557 50.8172C1.83737 50.8405 1.98444 50.9239 2.08678 51.0673C2.18588 51.2066 2.21951 51.4072 2.18767 51.6691Z" fill="#3A4440"/>
<path d="M6.82845 46.6394L6.66195 47.1946L9.17646 47.9487C9.50746 48.0479 9.72938 48.194 9.84222 48.3869C9.95506 48.5798 9.97626 48.7937 9.90582 49.0286C9.83004 49.2813 9.68948 49.4525 9.48413 49.5422C9.27879 49.6319 9.01774 49.6293 8.70098 49.5343L2.67896 47.7284C2.33729 47.6259 2.11288 47.4752 2.00573 47.2763C1.89858 47.0773 1.89624 46.807 1.9987 46.4654L2.77197 43.8868C2.8787 43.5309 2.98597 43.2314 3.09378 42.9883C3.19803 42.7441 3.32684 42.5345 3.48022 42.3594C3.65707 42.1447 3.86988 41.9719 4.11864 41.8409C4.3674 41.7099 4.63432 41.6348 4.91939 41.6156C5.20197 41.5917 5.48563 41.6224 5.77036 41.7078C6.35405 41.8829 6.77066 42.1882 7.0202 42.6238C7.2708 43.0558 7.36873 43.6283 7.314 44.3411C7.5478 44.1048 7.84905 43.9023 8.21774 43.7335C8.58643 43.5648 8.96616 43.4304 9.35693 43.3303C9.7452 43.2257 10.0894 43.1582 10.3894 43.1279C10.6869 43.093 10.8855 43.0905 10.9851 43.1204C11.0884 43.1513 11.1814 43.2161 11.2644 43.3146C11.3448 43.4086 11.3964 43.521 11.4192 43.652C11.4456 43.7841 11.4363 43.9248 11.3915 44.0743C11.3381 44.2523 11.2506 44.3889 11.1289 44.4843C11.0108 44.5808 10.8743 44.6543 10.7195 44.7048C10.5657 44.7518 10.3419 44.8127 10.0479 44.8875L8.80033 45.2058C8.34408 45.3173 7.9873 45.4333 7.73 45.554C7.47377 45.6711 7.28053 45.811 7.15029 45.9737C7.02005 46.1363 6.91277 46.3582 6.82845 46.6394ZM3.812 44.7456L3.37333 46.2084L5.52482 46.8536L5.95067 45.4335C6.06487 45.0527 6.1289 44.7228 6.14275 44.4438C6.15304 44.1637 6.10016 43.9325 5.98412 43.7503C5.86558 43.5635 5.66751 43.4284 5.3899 43.3452C5.1728 43.2801 4.96584 43.2781 4.76903 43.3394C4.56867 43.3995 4.39821 43.5152 4.25765 43.6864C4.12384 43.848 3.9753 44.2011 3.812 44.7456Z" fill="#3A4440"/>
<path d="M13.6625 36.5887L12.5708 36.4789L11.0847 39.4498L11.8474 40.2675C12.1448 40.5866 12.3342 40.8268 12.4156 40.988C12.4936 41.1475 12.4778 41.3369 12.3681 41.5563C12.275 41.7424 12.1246 41.8728 11.9169 41.9475C11.7092 42.0223 11.5189 42.0164 11.3461 41.93C11.2464 41.8801 11.1517 41.812 11.062 41.7256C10.9722 41.6391 10.8518 41.5103 10.7006 41.3392L6.89008 37.0962C6.78042 36.9749 6.64917 36.8303 6.49632 36.6624C6.3418 36.4896 6.22218 36.33 6.13746 36.1838C6.05439 36.0342 6.00872 35.8722 6.00044 35.6977C5.99049 35.5182 6.03622 35.3271 6.13762 35.1244C6.24068 34.9184 6.36616 34.7672 6.51407 34.6708C6.66032 34.5695 6.8157 34.508 6.98021 34.4865C7.14639 34.4616 7.31505 34.4566 7.48621 34.4716C7.6557 34.4816 7.88087 34.5007 8.16169 34.529L13.8323 34.9785C14.266 35.0085 14.5642 35.0642 14.7271 35.1457C14.8966 35.2305 15.017 35.38 15.0884 35.5944C15.1582 35.8038 15.1432 36.0082 15.0435 36.2076C14.9853 36.3239 14.9138 36.4128 14.8291 36.4743C14.7476 36.5374 14.6579 36.5797 14.5599 36.6013C14.4585 36.6213 14.3181 36.6279 14.1386 36.6212C13.9575 36.6095 13.7988 36.5987 13.6625 36.5887ZM10.1676 38.505L11.2597 36.3217L7.69287 35.9148L10.1676 38.505Z" fill="#3A4440"/>
<path d="M13.0742 26.7306L12.0441 28.2138L16.9195 31.5999C17.2003 31.7949 17.3659 32.0026 17.4163 32.2231C17.4637 32.4415 17.4185 32.6499 17.2807 32.8483C17.1408 33.0497 16.9577 33.1668 16.7313 33.1996C16.5071 33.2294 16.2561 33.1478 15.9784 32.9549L11.103 29.5689L10.0729 31.0521C9.9118 31.284 9.74169 31.4215 9.56255 31.4645C9.38037 31.5053 9.20534 31.4675 9.03749 31.3509C8.86353 31.2301 8.76647 31.0767 8.7463 30.8908C8.72825 30.7018 8.79659 30.4959 8.95132 30.2731L11.9526 25.9517C12.1159 25.7167 12.2886 25.5788 12.4707 25.5379C12.655 25.494 12.8311 25.5303 12.999 25.6469C13.1668 25.7635 13.2624 25.9158 13.2856 26.1038C13.3058 26.2897 13.2353 26.4987 13.0742 26.7306Z" fill="#3A4440"/>
<path d="M18.7813 20.2511L16.2009 22.9427L17.6493 24.3313L20.0253 21.8529C20.2002 21.6705 20.3716 21.5749 20.5396 21.5661C20.7075 21.552 20.8585 21.6093 20.9926 21.7379C21.1267 21.8664 21.1943 22.0161 21.1952 22.1869C21.1935 22.3551 21.104 22.5318 20.9265 22.7169L18.5506 25.1953L20.2283 26.8037L22.8974 24.0195C23.0774 23.8317 23.2567 23.7334 23.4352 23.7243C23.6136 23.7101 23.7752 23.7723 23.9201 23.9112C24.0595 24.0449 24.1273 24.2025 24.1232 24.3839C24.119 24.5601 24.0269 24.742 23.8469 24.9298L20.7343 28.1766C20.4848 28.4368 20.2472 28.5693 20.0213 28.5741C19.7979 28.5761 19.5575 28.4538 19.3 28.2069L14.8663 23.9564C14.6946 23.7918 14.5796 23.6326 14.5211 23.4788C14.46 23.3224 14.4567 23.1674 14.5113 23.0139C14.5658 22.855 14.674 22.6911 14.836 22.5221L17.86 19.3678C18.0425 19.1774 18.2204 19.0777 18.3937 19.0688C18.5669 19.0546 18.7218 19.1131 18.8586 19.2442C18.9981 19.378 19.0658 19.5329 19.0616 19.7091C19.0573 19.88 18.9639 20.0606 18.7813 20.2511Z" fill="#3A4440"/>
<path d="M97.392 25.9955L97.0181 25.5527L95.0123 27.2463C94.7483 27.4692 94.5047 27.5752 94.2815 27.5643C94.0583 27.5534 93.8676 27.4542 93.7094 27.2668C93.5392 27.0653 93.4726 26.854 93.5097 26.633C93.5468 26.412 93.6917 26.1948 93.9444 25.9815L98.748 21.9255C99.0205 21.6953 99.2694 21.5898 99.4945 21.6088C99.7197 21.6278 99.9473 21.7735 100.177 22.0461L101.914 24.1029C102.154 24.3868 102.346 24.6404 102.491 24.8635C102.638 25.0843 102.743 25.3067 102.806 25.5309C102.889 25.7963 102.918 26.0689 102.891 26.3488C102.865 26.6288 102.782 26.8933 102.643 27.1426C102.508 27.3923 102.327 27.613 102.1 27.8048C101.635 28.1979 101.151 28.3799 100.65 28.3508C100.151 28.3246 99.6184 28.0937 99.0513 27.6583C99.1214 27.9832 99.1264 28.3462 99.0662 28.7472C99.006 29.1482 98.911 29.5396 98.7812 29.9215C98.6567 30.3039 98.5251 30.629 98.3865 30.8968C98.2531 31.165 98.1467 31.3327 98.0672 31.3998C97.9848 31.4693 97.8797 31.5119 97.7519 31.5275C97.6292 31.5435 97.5068 31.5252 97.3847 31.4727C97.2597 31.4226 97.1469 31.338 97.0462 31.2187C96.9264 31.0768 96.8597 30.9288 96.8464 30.7747C96.8302 30.6231 96.8432 30.4686 96.8855 30.3113C96.9302 30.1569 97.0015 29.9361 97.0996 29.6491L97.5148 28.4304C97.6709 27.9874 97.7687 27.6252 97.8082 27.3438C97.8502 27.0652 97.8387 26.8269 97.7736 26.6289C97.7086 26.431 97.5814 26.2198 97.392 25.9955ZM100.627 24.5045L99.6413 23.3377L97.9251 24.7868L98.8816 25.9195C99.1381 26.2233 99.3794 26.4572 99.6055 26.6213C99.8344 26.783 100.057 26.8651 100.273 26.8675C100.494 26.8703 100.716 26.7783 100.937 26.5913C101.11 26.4451 101.225 26.2728 101.281 26.0745C101.34 25.8739 101.337 25.6679 101.27 25.4566C101.208 25.2562 100.993 24.9389 100.627 24.5045Z" fill="#3A4440"/>
<path d="M107.608 34.8462L105.737 31.6208L104.001 32.6276L105.724 35.5974C105.851 35.816 105.895 36.0072 105.857 36.171C105.824 36.3363 105.727 36.4655 105.566 36.5587C105.406 36.6519 105.243 36.6753 105.079 36.6289C104.918 36.5806 104.773 36.4456 104.644 36.2238L102.921 33.254L100.911 34.4201L102.846 37.7564C102.977 37.9814 103.022 38.1809 102.981 38.3549C102.945 38.5303 102.84 38.6683 102.667 38.769C102.5 38.8659 102.33 38.8873 102.156 38.8331C101.988 38.7803 101.839 38.6414 101.708 38.4164L99.4516 34.5257C99.2707 34.2139 99.2093 33.9489 99.2674 33.7305C99.3273 33.5153 99.5115 33.3182 99.8201 33.1393L105.133 30.0575C105.339 29.9381 105.524 29.8717 105.688 29.8582C105.855 29.8428 106.005 29.8827 106.137 29.9777C106.275 30.074 106.402 30.2234 106.519 30.4259L108.712 34.2058C108.844 34.434 108.891 34.6325 108.851 34.8015C108.817 34.9718 108.718 35.1045 108.554 35.1995C108.387 35.2965 108.219 35.3185 108.051 35.2657C107.888 35.2142 107.74 35.0744 107.608 34.8462Z" fill="#3A4440"/>
<path d="M107.095 43.0046L106.571 41.5818L104.401 42.3804C104.09 42.4946 103.828 42.5079 103.614 42.4205C103.399 42.333 103.251 42.1777 103.169 41.9545C103.083 41.7209 103.092 41.5037 103.197 41.303C103.304 41.101 103.512 40.9436 103.819 40.8307L109.729 38.6562C110.071 38.5305 110.344 38.5192 110.548 38.6222C110.753 38.7253 110.918 38.9477 111.043 39.2894L111.776 41.2824C111.993 41.8717 112.115 42.3417 112.141 42.6924C112.169 43.0383 112.124 43.3618 112.005 43.6629C111.887 43.9675 111.704 44.2329 111.454 44.4592C111.205 44.6856 110.897 44.8661 110.531 45.0008C109.75 45.2881 109.069 45.2656 108.487 44.9332C107.909 44.5995 107.445 43.9566 107.095 43.0046ZM110.471 41.3349L110.086 40.2887L107.743 41.1508L108.128 42.1969C108.263 42.5631 108.413 42.8541 108.58 43.07C108.748 43.2894 108.942 43.4315 109.164 43.4964C109.386 43.5613 109.638 43.5418 109.921 43.4378C110.259 43.3134 110.498 43.1127 110.637 42.8357C110.782 42.5291 110.727 42.0288 110.471 41.3349Z" fill="#3A4440"/>
<path d="M108.977 48.1342L112.844 47.4387C113.173 47.3795 113.433 47.4083 113.624 47.525C113.816 47.6453 113.933 47.8262 113.977 48.0675C114.022 48.3199 113.976 48.534 113.837 48.7098C113.7 48.8894 113.466 49.0087 113.137 49.0679L109.182 49.7792C108.732 49.8601 108.364 49.9772 108.079 50.1305C107.797 50.2868 107.595 50.5081 107.473 50.7944C107.355 51.0799 107.337 51.4531 107.42 51.9139C107.534 52.5502 107.783 52.9698 108.167 53.1726C108.555 53.3748 109.092 53.414 109.78 53.2904L113.768 52.5732C114.1 52.5133 114.36 52.5421 114.548 52.6594C114.738 52.7761 114.856 52.957 114.9 53.202C114.944 53.447 114.897 53.6593 114.76 53.8388C114.626 54.0214 114.393 54.1426 114.061 54.2024L110.193 54.8979C109.564 55.011 109.028 55.0432 108.585 54.9945C108.143 54.9494 107.732 54.7855 107.353 54.5026C107.03 54.2587 106.771 53.9541 106.577 53.5888C106.383 53.2235 106.239 52.7812 106.146 52.2619C106.035 51.6439 106.005 51.0999 106.056 50.6301C106.111 50.1596 106.253 49.7586 106.48 49.427C106.711 49.0948 107.032 48.8237 107.444 48.6138C107.859 48.4032 108.37 48.2433 108.977 48.1342Z" fill="#3A4440"/>
<path d="M110.54 60.4156L110.546 59.8359L107.921 59.808C107.575 59.8044 107.321 59.7255 107.16 59.5714C106.998 59.4173 106.918 59.2177 106.921 58.9725C106.924 58.7087 107.011 58.5052 107.184 58.3621C107.356 58.219 107.608 58.1493 107.938 58.1528L114.225 58.2196C114.582 58.2234 114.839 58.306 114.997 58.4675C115.155 58.6289 115.232 58.888 115.229 59.2447L115.2 61.9366C115.196 62.3082 115.176 62.6257 115.14 62.8891C115.107 63.1526 115.041 63.3897 114.943 63.6005C114.832 63.8557 114.675 64.0807 114.473 64.2755C114.27 64.4703 114.034 64.6164 113.766 64.7139C113.501 64.8151 113.22 64.8641 112.923 64.861C112.313 64.8545 111.828 64.6766 111.468 64.3271C111.107 63.9814 110.855 63.4585 110.71 62.7584C110.551 63.0503 110.317 63.3283 110.01 63.5926C109.702 63.8569 109.375 64.0912 109.027 64.2956C108.683 64.5038 108.371 64.664 108.091 64.7762C107.815 64.8922 107.625 64.9496 107.521 64.9485C107.413 64.9473 107.305 64.9109 107.198 64.8391C107.095 64.7712 107.014 64.6774 106.956 64.5579C106.894 64.4383 106.864 64.3005 106.866 64.1445C106.868 63.9587 106.914 63.8031 107.004 63.6777C107.091 63.5523 107.202 63.4439 107.337 63.3524C107.472 63.2646 107.67 63.1441 107.931 62.9908L109.042 62.3393C109.45 62.1059 109.76 61.8955 109.974 61.7083C110.188 61.5247 110.335 61.3368 110.415 61.1444C110.495 60.952 110.536 60.7091 110.54 60.4156ZM113.963 61.3995L113.979 59.8724L111.733 59.8485L111.717 61.331C111.713 61.7286 111.743 62.0633 111.807 62.3353C111.874 62.6073 111.989 62.8147 112.151 62.9577C112.317 63.1043 112.545 63.1792 112.834 63.1823C113.061 63.1847 113.261 63.1292 113.433 63.0159C113.609 62.9025 113.74 62.7442 113.828 62.5407C113.912 62.3484 113.957 61.968 113.963 61.3995Z" fill="#3A4440"/>
<path d="M109.201 71.1623L109.49 69.6741L107.219 69.2329C106.895 69.1699 106.663 69.0454 106.525 68.8596C106.387 68.6739 106.341 68.4642 106.386 68.2308C106.434 67.9864 106.554 67.8054 106.747 67.6877C106.944 67.5708 107.203 67.5435 107.524 67.6059L113.706 68.807C114.064 68.8765 114.303 69.0081 114.425 69.202C114.546 69.3959 114.572 69.6716 114.502 70.0291L114.097 72.1136C113.978 72.73 113.838 73.195 113.679 73.5085C113.524 73.8191 113.318 74.0723 113.06 74.2683C112.802 74.4679 112.507 74.6 112.177 74.6645C111.846 74.729 111.489 74.724 111.106 74.6496C110.289 74.4909 109.718 74.1187 109.393 73.5332C109.071 72.9483 109.007 72.158 109.201 71.1623ZM112.954 71.4826L113.166 70.3884L110.715 69.9122L110.503 71.0064C110.428 71.3894 110.406 71.7164 110.437 71.9873C110.467 72.2618 110.56 72.4843 110.716 72.6547C110.872 72.8251 111.098 72.939 111.394 72.9964C111.747 73.0651 112.056 73.0172 112.319 72.8525C112.601 72.6651 112.813 72.2085 112.954 71.4826Z" fill="#3A4440"/>
<path d="M111.569 81.417C111.267 82.2087 110.847 82.826 110.309 83.269C109.773 83.7168 109.152 83.9734 108.447 84.039C107.746 84.1058 106.996 83.9871 106.197 83.6829C105.607 83.4581 105.101 83.1739 104.679 82.8303C104.257 82.4867 103.93 82.0878 103.697 81.6334C103.465 81.1791 103.343 80.6835 103.333 80.1468C103.323 79.6101 103.432 79.0414 103.661 78.4406C103.888 77.8434 104.188 77.345 104.558 76.9455C104.933 76.5473 105.356 76.2571 105.827 76.0747C106.298 75.8923 106.811 75.8134 107.366 75.838C107.92 75.866 108.483 75.9892 109.056 76.2074C109.643 76.4309 110.15 76.7193 110.576 77.0724C111.001 77.4291 111.324 77.8326 111.546 78.283C111.768 78.7334 111.882 79.2221 111.888 79.7493C111.898 80.2777 111.791 80.8336 111.569 81.417ZM106.805 82.1191C107.364 82.3321 107.882 82.4263 108.361 82.4018C108.839 82.3773 109.247 82.2363 109.584 81.9788C109.922 81.7262 110.174 81.3828 110.34 80.9488C110.458 80.6397 110.508 80.3308 110.49 80.0219C110.475 79.7178 110.392 79.428 110.243 79.1524C110.092 78.8802 109.864 78.6224 109.559 78.3791C109.256 78.1405 108.89 77.9392 108.459 77.7752C108.025 77.6099 107.612 77.5142 107.221 77.4883C106.827 77.4658 106.477 77.5093 106.169 77.6186C105.863 77.7327 105.604 77.8964 105.391 78.1097C105.178 78.3265 105.012 78.5894 104.894 78.8984C104.743 79.2943 104.704 79.6948 104.776 80.1001C104.847 80.5088 105.052 80.8891 105.392 81.241C105.729 81.5963 106.2 81.889 106.805 82.1191Z" fill="#3A4440"/>
<path d="M100.245 90.6181C99.8226 90.3615 99.5097 90.0213 99.3063 89.5977C99.1009 89.1772 99.0303 88.6995 99.0944 88.1646C99.1586 87.6297 99.3653 87.0748 99.7145 86.5001C100.133 85.811 100.609 85.3217 101.141 85.0322C101.522 84.8285 101.928 84.7211 102.361 84.7102C102.795 84.7043 103.159 84.7911 103.455 84.9705C103.626 85.0747 103.737 85.2222 103.786 85.413C103.836 85.609 103.806 85.799 103.694 85.9832C103.603 86.1324 103.479 86.2289 103.322 86.2727C103.163 86.3196 102.968 86.3226 102.736 86.2818C102.46 86.2357 102.216 86.218 102.005 86.229C101.792 86.2431 101.58 86.3139 101.368 86.4414C101.158 86.5709 100.961 86.7881 100.776 87.0929C100.521 87.5121 100.412 87.9107 100.447 88.2888C100.484 88.672 100.648 88.9523 100.941 89.1298C101.172 89.2707 101.403 89.3131 101.633 89.257C101.864 89.2061 102.086 89.091 102.299 88.9118C102.51 88.7359 102.773 88.4866 103.086 88.164C103.509 87.7336 103.901 87.3959 104.263 87.1506C104.626 86.9105 105.003 86.7724 105.395 86.7364C105.788 86.7054 106.186 86.8125 106.589 87.0575C106.973 87.291 107.251 87.6032 107.422 87.9941C107.593 88.3851 107.638 88.8273 107.555 89.3207C107.476 89.816 107.273 90.332 106.947 90.8687C106.687 91.2974 106.408 91.6345 106.111 91.8801C105.815 92.1308 105.515 92.3053 105.212 92.4037C104.912 92.504 104.636 92.5429 104.385 92.5205C104.133 92.498 103.915 92.4308 103.731 92.3189C103.563 92.2167 103.447 92.0637 103.384 91.8601C103.322 91.6616 103.345 91.4734 103.453 91.2956C103.551 91.1336 103.666 91.0339 103.798 90.9964C103.93 90.964 104.119 90.9545 104.363 90.968C104.704 91.0011 105.001 90.9732 105.255 90.8841C105.512 90.7969 105.761 90.5565 106 90.1627C106.222 89.7976 106.32 89.453 106.295 89.1292C106.272 88.8104 106.147 88.5825 105.922 88.4455C105.782 88.3606 105.638 88.3254 105.49 88.3399C105.342 88.3544 105.191 88.4061 105.037 88.4951C104.883 88.5841 104.744 88.6843 104.62 88.7958C104.495 88.9072 104.298 89.096 104.028 89.3622C103.696 89.7 103.379 89.9939 103.075 90.2439C102.769 90.4971 102.469 90.6866 102.175 90.8124C101.879 90.9414 101.571 90.9935 101.251 90.9688C100.933 90.9491 100.597 90.8323 100.245 90.6181Z" fill="#3A4440"/>
<path d="M98.2513 99.9275L100.719 97.1323L99.215 95.8043L96.9426 98.3781C96.7754 98.5675 96.608 98.67 96.4405 98.6857C96.2734 98.7066 96.1201 98.6556 95.9809 98.5327C95.8416 98.4097 95.768 98.2629 95.76 98.0923C95.7548 97.9241 95.837 97.744 96.0067 97.5518L98.2791 94.978L96.5368 93.4398L93.9841 96.3311C93.8119 96.526 93.6369 96.6317 93.4589 96.648C93.2812 96.6696 93.1172 96.614 92.9668 96.4812C92.8219 96.3533 92.7478 96.1987 92.7444 96.0172C92.7414 95.8411 92.8259 95.6555 92.998 95.4605L95.9749 92.0887C96.2135 91.8185 96.4455 91.6764 96.671 91.6624C96.8941 91.6512 97.1393 91.7636 97.4067 91.9997L102.011 96.0648C102.189 96.2222 102.311 96.3765 102.375 96.5278C102.443 96.6816 102.453 96.8363 102.404 96.992C102.356 97.1529 102.255 97.3211 102.1 97.4966L99.2081 100.772C99.0334 100.97 98.8598 101.077 98.687 101.093C98.5146 101.114 98.3574 101.062 98.2153 100.937C98.0705 100.809 97.9965 100.657 97.9934 100.481C97.9907 100.31 98.0767 100.125 98.2513 99.9275Z" fill="#3A4440"/>
<path d="M85.076 22.1954C83.9542 22.1954 82.8166 21.9107 81.7731 21.3132C75.5829 17.766 68.574 15.4248 59.9692 14.9617C49.6086 14.4045 41.979 16.4683 34.276 20.8464C31.0807 22.6622 27.0178 21.5454 25.2008 18.3488C23.3838 15.1535 24.5019 10.7632 27.6984 8.94742C37.679 3.27284 47.4666 0.659158 60.5057 1.03551C71.1449 1.34221 80.5133 4.53141 88.4937 9.10504C91.6829 10.933 92.6861 15.6582 90.8568 18.8474C89.6276 20.9931 87.3842 22.1954 85.076 22.1954Z" fill="#3A4440"/>
<path d="M85.076 22.1954C83.9542 22.1954 82.8166 21.9107 81.7731 21.3132C75.5829 17.766 68.574 15.4248 59.9692 14.9617C49.6086 14.4045 41.979 16.4683 34.276 20.8464C31.0807 22.6622 27.0178 21.5454 25.2008 18.3488C23.3838 15.1535 24.5019 10.7632 27.6984 8.94742C37.679 3.27284 47.4666 0.659158 60.5057 1.03551C71.1449 1.34221 80.5133 4.53141 88.4937 9.10504C91.6829 10.933 92.6861 15.6582 90.8568 18.8474C89.6276 20.9931 87.3842 22.1954 85.076 22.1954Z" fill="#3A4440" stroke="#3A4440" stroke-width="0.129333" stroke-miterlimit="10"/>
<path d="M32.6238 14.397L32.1063 14.658L33.2882 17.002C33.4438 17.3105 33.4904 17.5721 33.4279 17.7867C33.3655 18.0013 33.2248 18.1637 33.0058 18.2742C32.7703 18.3929 32.5493 18.4086 32.343 18.3213C32.1366 18.2339 31.959 18.0426 31.8101 17.7473L28.9795 12.1336C28.8189 11.8151 28.774 11.5485 28.8447 11.3339C28.9154 11.1193 29.11 10.9317 29.4285 10.7711L31.8323 9.55906C32.1641 9.39177 32.4553 9.26366 32.7059 9.17475C32.9548 9.08251 33.1956 9.03185 33.4282 9.02275C33.7057 9.00353 33.9775 9.03917 34.2437 9.12967C34.5098 9.22016 34.7479 9.36227 34.958 9.55598C35.1697 9.7447 35.3424 9.97177 35.4762 10.2372C35.7506 10.7813 35.8155 11.2937 35.6709 11.7745C35.5296 12.2535 35.1814 12.7183 34.6262 13.1689C34.9586 13.176 35.3128 13.2554 35.6889 13.407C36.0649 13.5587 36.4236 13.7419 36.765 13.9568C37.108 14.1666 37.3937 14.3701 37.622 14.567C37.852 14.759 37.9904 14.9015 38.0373 14.9944C38.0858 15.0906 38.1028 15.2027 38.0882 15.3307C38.0754 15.4537 38.0292 15.5685 37.9498 15.6751C37.8721 15.7851 37.7636 15.8752 37.6242 15.9454C37.4583 16.0291 37.2989 16.0595 37.1459 16.0368C36.9947 16.0174 36.8474 15.9688 36.7043 15.8912C36.5644 15.8119 36.3663 15.6913 36.1098 15.5293L35.0207 14.8425C34.626 14.588 34.2964 14.4088 34.0318 14.305C33.7706 14.1995 33.5361 14.1554 33.3285 14.1728C33.1208 14.1901 32.8859 14.2648 32.6238 14.397ZM31.9241 10.9048L30.5605 11.5923L31.5718 13.5979L32.8956 12.9304C33.2506 12.7514 33.5341 12.571 33.7462 12.3892C33.9566 12.204 34.088 12.0066 34.1405 11.7971C34.1946 11.5825 34.1564 11.3459 34.0259 11.0871C33.9239 10.8847 33.783 10.7331 33.6032 10.6324C33.4217 10.5283 33.2205 10.4841 32.9995 10.4998C32.7902 10.5138 32.4317 10.6488 31.9241 10.9048Z" fill="white"/>
<path d="M43.5009 6.43718L39.939 7.53979L40.5323 9.45654L43.8121 8.44127C44.0534 8.36656 44.2497 8.36609 44.4009 8.43986C44.5546 8.50899 44.6589 8.63229 44.7138 8.80977C44.7687 8.98725 44.7552 9.15091 44.6732 9.30075C44.5902 9.44704 44.4262 9.5581 44.1813 9.63391L40.9015 10.6492L41.5888 12.8694L45.2732 11.7289C45.5216 11.652 45.7261 11.6529 45.8866 11.7315C46.0496 11.8056 46.1607 11.9384 46.22 12.1301C46.2772 12.3147 46.26 12.4853 46.1685 12.642C46.0794 12.794 45.9106 12.9085 45.6621 12.9854L41.3654 14.3155C41.0211 14.4221 40.749 14.4227 40.5492 14.3173C40.3528 14.2108 40.2019 13.9872 40.0965 13.6464L38.2802 7.77906C38.2099 7.55189 38.1865 7.35687 38.2099 7.19401C38.2323 7.02761 38.3046 6.89048 38.4268 6.78264C38.5515 6.67015 38.7256 6.57929 38.9492 6.51007L43.1235 5.21792C43.3755 5.1399 43.5794 5.13901 43.7353 5.21524C43.8936 5.28682 44.0007 5.41312 44.0568 5.59414C44.1139 5.77872 44.0979 5.94703 44.0089 6.09907C43.9223 6.24646 43.7529 6.35917 43.5009 6.43718Z" fill="white"/>
<path d="M52.7059 4.91536L50.9168 5.16038L51.7221 11.0413C51.7685 11.38 51.7276 11.6425 51.5994 11.8289C51.4706 12.0115 51.2866 12.1192 51.0473 12.152C50.8043 12.1853 50.5942 12.1297 50.4169 11.9852C50.2433 11.8402 50.1335 11.6002 50.0876 11.2652L49.2822 5.38423L47.4931 5.62925C47.2133 5.66757 46.997 5.63531 46.8442 5.53248C46.6908 5.42597 46.6003 5.27148 46.5725 5.069C46.5438 4.85917 46.5911 4.68393 46.7143 4.54329C46.8413 4.40214 47.0391 4.31316 47.3078 4.27636L52.5206 3.56247C52.8041 3.52365 53.0225 3.55749 53.1758 3.66401C53.3329 3.77001 53.4252 3.92425 53.453 4.12673C53.4807 4.3292 53.4332 4.5026 53.3104 4.64692C53.1872 4.78757 52.9857 4.87705 52.7059 4.91536Z" fill="white"/>
<path d="M57.7878 4.22539L57.7099 6.56499L61.2806 6.68385L61.3584 4.34426C61.3696 4.01003 61.4522 3.76183 61.6063 3.59966C61.7641 3.43762 61.9656 3.36068 62.2107 3.36883C62.4595 3.37712 62.6572 3.46735 62.8039 3.63953C62.9545 3.80812 63.0241 4.06139 63.0129 4.39933L62.7987 10.8332C62.7874 11.1712 62.701 11.4211 62.5395 11.583C62.378 11.7449 62.1747 11.8218 61.9296 11.8137C61.6807 11.8054 61.4848 11.7152 61.3419 11.5431C61.199 11.3674 61.1331 11.1124 61.1443 10.7781L61.2357 8.0319L57.665 7.91304L57.5736 10.6593C57.5623 10.9972 57.4759 11.2471 57.3144 11.4091C57.1529 11.571 56.9496 11.6479 56.7045 11.6397C56.4556 11.6314 56.2597 11.5413 56.1168 11.3692C55.9739 11.1934 55.908 10.9384 55.9192 10.6042L56.1333 4.17032C56.1445 3.83609 56.2252 3.58783 56.3756 3.42554C56.5297 3.26337 56.7331 3.18649 56.9856 3.1949C57.2344 3.20318 57.4321 3.29341 57.5788 3.46559C57.7294 3.63419 57.799 3.88745 57.7878 4.22539Z" fill="white"/>
<path d="M65.6715 11.324L66.7989 4.98607C66.8575 4.65682 66.9764 4.42323 67.1557 4.28529C67.3349 4.14734 67.5435 4.09952 67.7813 4.14182C68.0264 4.18542 68.2093 4.30287 68.33 4.49417C68.455 4.68247 68.4879 4.94306 68.4287 5.27597L67.3013 11.6139C67.2421 11.9468 67.121 12.1819 66.938 12.3192C66.7588 12.4572 66.5466 12.5043 66.3015 12.4607C66.0674 12.4191 65.8881 12.3023 65.7637 12.1103C65.6437 11.9154 65.6129 11.6533 65.6715 11.324Z" fill="white"/>
<path d="M74.2112 6.68827L75.7296 12.2572L77.2483 7.64037C77.347 7.34034 77.4842 7.13711 77.6601 7.03066C77.8406 6.92184 78.0403 6.90343 78.2591 6.97541C78.485 7.04972 78.6383 7.18424 78.719 7.37898C78.8008 7.57018 78.7924 7.8158 78.6937 8.11582L76.6856 14.2204C76.4615 14.9016 76.0671 15.1493 75.5024 14.9636C75.3612 14.9171 75.2411 14.8542 75.1421 14.7747C75.0419 14.6987 74.9569 14.6003 74.8871 14.4796C74.8173 14.3588 74.7592 14.2263 74.7128 14.0819C74.6676 13.934 74.6229 13.7844 74.5788 13.633L73.1171 8.14141L71.6211 12.6894C71.5236 12.9859 71.381 13.1874 71.1934 13.2939C71.0058 13.4004 70.8044 13.4182 70.5891 13.3474C70.3667 13.2742 70.2134 13.1397 70.1292 12.9438C70.0462 12.7444 70.0528 12.4982 70.1492 12.2052L72.1189 6.21714C72.2025 5.96301 72.2964 5.77287 72.4005 5.64673C72.5198 5.50995 72.6733 5.41769 72.8611 5.36995C73.0501 5.31867 73.2346 5.32264 73.4146 5.38186C73.5558 5.4283 73.6683 5.49072 73.752 5.56912C73.8393 5.64867 73.9072 5.73947 73.9558 5.8415C74.0079 5.9447 74.0525 6.07084 74.0895 6.21992C74.13 6.37016 74.1706 6.52628 74.2112 6.68827Z" fill="white"/>
<path d="M83.6235 10.4975L82.2422 13.0073L86.7229 11.6053C86.9384 11.5374 87.1122 11.4952 87.2442 11.4788C87.3795 11.4642 87.5269 11.5008 87.6864 11.5885C87.8947 11.7032 88.0283 11.8573 88.0872 12.0509C88.1511 12.243 88.1347 12.427 88.038 12.6027C87.9215 12.8143 87.6969 12.9643 87.3641 13.0526L84.6823 13.7523L85.1118 17.7805C85.1439 18.0611 85.1537 18.2977 85.1411 18.4901C85.1303 18.6792 85.0855 18.8454 85.0067 18.9887C84.9189 19.1482 84.7793 19.2516 84.5878 19.2989C84.3996 19.348 84.1981 19.3134 83.9832 19.1952C83.7814 19.0841 83.6403 18.9513 83.56 18.7968C83.4814 18.639 83.4376 18.4643 83.4285 18.2727C83.4194 18.0811 83.413 17.9079 83.4091 17.7531L83.1465 14.1731L81.3338 14.6577L80.5195 16.1372C80.3546 16.4367 80.1635 16.622 79.9462 16.6933C79.7306 16.7612 79.5155 16.7361 79.3006 16.6179C79.1769 16.5498 79.076 16.4518 78.9979 16.324C78.9198 16.1962 78.8803 16.0599 78.8794 15.9152C78.884 15.799 78.9145 15.678 78.971 15.5521C79.0276 15.4263 79.1185 15.2495 79.244 15.0216L82.1733 9.69933C82.3346 9.40636 82.519 9.22157 82.7266 9.14496C82.9374 9.07014 83.1535 9.09365 83.3749 9.21548C83.593 9.33552 83.7284 9.50551 83.7813 9.72546C83.8392 9.94394 83.7866 10.2013 83.6235 10.4975Z" fill="white"/>
<path d="M30.6055 100.006C31.7272 99.9978 32.8672 100.274 33.9156 100.864C40.1315 104.364 47.1588 106.652 55.7672 107.051C66.1315 107.53 73.744 105.408 81.414 100.973C84.5959 99.1315 88.6673 100.219 90.5075 103.401C92.3489 106.583 91.2639 110.98 88.082 112.822C78.1441 118.571 68.3761 121.258 55.3346 120.981C44.6929 120.754 35.3013 117.635 27.2867 113.122C24.0829 111.318 23.0455 106.601 24.849 103.397C26.0624 101.243 28.2973 100.023 30.6055 100.006Z" fill="#3A4440"/>
<path d="M30.6055 100.006C31.7272 99.9978 32.8672 100.274 33.9156 100.864C40.1315 104.364 47.1588 106.652 55.7672 107.051C66.1315 107.53 73.744 105.408 81.414 100.973C84.5959 99.1315 88.6673 100.219 90.5075 103.401C92.3489 106.583 91.2639 110.98 88.082 112.822C78.1441 118.571 68.3761 121.258 55.3346 120.981C44.6929 120.754 35.3013 117.635 27.2867 113.122C24.0829 111.318 23.0455 106.601 24.849 103.397C26.0624 101.243 28.2973 100.023 30.6055 100.006Z" fill="#3A4440" stroke="#3A4440" stroke-width="0.129333" stroke-miterlimit="10"/>
<path d="M83.1515 107.445L83.6671 107.18L82.4675 104.845C82.3096 104.538 82.2611 104.277 82.3219 104.062C82.3827 103.846 82.5221 103.683 82.7403 103.571C82.9749 103.45 83.1958 103.433 83.4028 103.519C83.6098 103.605 83.7888 103.795 83.94 104.089L86.8129 109.681C86.9759 109.998 87.0228 110.264 86.9537 110.48C86.8846 110.695 86.6914 110.884 86.3741 111.047L83.9796 112.277C83.6491 112.447 83.3589 112.577 83.1089 112.668C82.8607 112.762 82.6203 112.814 82.3877 112.825C82.1104 112.847 81.8384 112.813 81.5715 112.725C81.3046 112.636 81.0655 112.496 80.854 112.304C80.6409 112.117 80.4664 111.891 80.3306 111.626C80.0521 111.084 79.9834 110.572 80.1243 110.091C80.262 109.61 80.6067 109.143 81.1585 108.688C80.826 108.684 80.4712 108.607 80.094 108.458C79.7168 108.309 79.3567 108.129 79.0137 107.917C78.6691 107.709 78.3819 107.508 78.1521 107.313C77.9207 107.123 77.7812 106.981 77.7337 106.889C77.6845 106.793 77.6666 106.681 77.6802 106.553C77.6921 106.43 77.7374 106.314 77.816 106.207C77.8929 106.097 78.0008 106.006 78.1396 105.934C78.3048 105.85 78.464 105.818 78.6171 105.839C78.7686 105.858 78.9162 105.905 79.0599 105.982C79.2004 106.06 79.3994 106.179 79.6571 106.339L80.7513 107.018C81.1479 107.269 81.4789 107.446 81.7443 107.548C82.0063 107.651 82.2411 107.694 82.4486 107.675C82.6561 107.656 82.8904 107.579 83.1515 107.445ZM83.8776 110.932L85.236 110.234L84.2096 108.236L82.8909 108.914C82.5373 109.095 82.2551 109.278 82.0444 109.461C81.8354 109.648 81.7054 109.846 81.6545 110.056C81.602 110.271 81.642 110.508 81.7744 110.766C81.878 110.967 82.0201 111.118 82.2007 111.217C82.3829 111.32 82.5845 111.362 82.8053 111.345C83.0145 111.329 83.372 111.192 83.8776 110.932Z" fill="white"/>
<path d="M72.3346 115.487L75.8881 114.358L75.2803 112.445L72.0083 113.485C71.7675 113.562 71.5712 113.564 71.4195 113.491C71.2653 113.423 71.1601 113.301 71.1038 113.124C71.0475 112.947 71.0598 112.783 71.1406 112.632C71.2226 112.485 71.3858 112.373 71.6301 112.295L74.9021 111.255L74.1981 109.04L70.5224 110.209C70.2745 110.288 70.07 110.288 69.9089 110.211C69.7454 110.138 69.6333 110.006 69.5725 109.815C69.514 109.631 69.5299 109.46 69.6202 109.302C69.7082 109.15 69.8761 109.034 70.1239 108.955L74.4105 107.593C74.754 107.484 75.0261 107.481 75.2268 107.585C75.4239 107.69 75.5765 107.912 75.6845 108.252L77.5451 114.106C77.6171 114.332 77.642 114.527 77.6197 114.69C77.5986 114.857 77.5273 114.995 77.4059 115.103C77.2821 115.217 77.1087 115.309 76.8856 115.38L72.7212 116.703C72.4698 116.783 72.2658 116.786 72.1094 116.711C71.9506 116.64 71.8425 116.515 71.7851 116.334C71.7265 116.15 71.7412 115.982 71.8292 115.829C71.9147 115.681 72.0831 115.567 72.3346 115.487Z" fill="white"/>
<path d="M63.1413 117.078L64.9286 116.82L64.0788 110.945C64.0299 110.607 64.0688 110.344 64.1957 110.156C64.323 109.973 64.5062 109.864 64.7453 109.829C64.988 109.794 65.1985 109.848 65.3769 109.991C65.5516 110.135 65.6632 110.374 65.7116 110.709L66.5613 116.583L68.3486 116.325C68.6281 116.284 68.8446 116.315 68.9982 116.417C69.1524 116.522 69.2441 116.676 69.2734 116.878C69.3037 117.088 69.2577 117.263 69.1355 117.405C69.0097 117.547 68.8125 117.638 68.5441 117.676L63.3368 118.43C63.0536 118.471 62.835 118.438 62.6808 118.333C62.523 118.228 62.4295 118.075 62.4002 117.872C62.3709 117.67 62.4172 117.496 62.5388 117.351C62.661 117.21 62.8618 117.119 63.1413 117.078Z" fill="white"/>
<path d="M58.0648 117.807L58.125 115.466L54.5535 115.374L54.4933 117.715C54.4847 118.049 54.4039 118.298 54.251 118.461C54.0944 118.624 53.8936 118.703 53.6484 118.696C53.3995 118.69 53.2011 118.601 53.0531 118.43C52.9013 118.263 52.8297 118.01 52.8384 117.672L53.0041 111.237C53.0128 110.899 53.0973 110.648 53.2576 110.485C53.4179 110.322 53.6207 110.243 53.8658 110.25C54.1147 110.256 54.3113 110.345 54.4556 110.516C54.5997 110.69 54.6675 110.945 54.6589 111.279L54.5882 114.026L58.1597 114.118L58.2304 111.371C58.2391 111.033 58.3236 110.783 58.484 110.619C58.6443 110.456 58.847 110.378 59.0922 110.384C59.341 110.391 59.5376 110.479 59.6819 110.65C59.8261 110.825 59.8939 111.079 59.8852 111.414L59.7196 117.849C59.711 118.183 59.6321 118.432 59.4829 118.596C59.33 118.759 59.1273 118.837 58.8747 118.831C58.6258 118.825 58.4274 118.736 58.2794 118.565C58.1276 118.397 58.0561 118.145 58.0648 117.807Z" fill="white"/>
<path d="M50.1276 110.767L49.0479 117.114C48.9918 117.443 48.8746 117.678 48.6964 117.817C48.5181 117.957 48.31 118.006 48.0719 117.965C47.8264 117.924 47.6427 117.808 47.5205 117.617C47.3941 117.43 47.3592 117.169 47.4159 116.836L48.4957 110.49C48.5524 110.156 48.6717 109.92 48.8536 109.782C49.0319 109.643 49.2437 109.594 49.4891 109.636C49.7236 109.675 49.9037 109.791 50.0295 109.982C50.151 110.176 50.1837 110.438 50.1276 110.767Z" fill="white"/>
<path d="M41.6219 115.465L40.0617 109.908L38.5778 114.536C38.4813 114.837 38.3456 115.041 38.1706 115.149C37.9909 115.259 37.7913 115.279 37.572 115.208C37.3455 115.136 37.1912 115.003 37.1091 114.808C37.0258 114.618 37.0324 114.372 37.1288 114.071L39.0909 107.952C39.3099 107.269 39.7024 107.018 40.2686 107.2C40.4101 107.245 40.5307 107.307 40.6303 107.386C40.731 107.461 40.8168 107.559 40.8875 107.679C40.9582 107.799 41.0173 107.932 41.0647 108.076C41.1111 108.223 41.1569 108.372 41.2021 108.523L42.7051 114.004L44.1669 109.445C44.2621 109.148 44.4032 108.945 44.59 108.837C44.7767 108.729 44.978 108.71 45.1939 108.779C45.4168 108.85 45.5711 108.984 45.6568 109.179C45.7413 109.378 45.7365 109.624 45.6423 109.918L43.7177 115.921C43.636 116.175 43.5436 116.366 43.4405 116.493C43.3222 116.631 43.1693 116.724 42.9819 116.773C42.7933 116.826 42.6087 116.823 42.4283 116.766C42.2868 116.72 42.1738 116.659 42.0895 116.581C42.0016 116.502 41.933 116.412 41.8837 116.31C41.8308 116.207 41.7853 116.081 41.7472 115.933C41.7055 115.783 41.6638 115.627 41.6219 115.465Z" fill="white"/>
<path d="M32.1818 111.728L33.5442 109.208L29.0742 110.644C28.8591 110.714 28.6857 110.757 28.5538 110.775C28.4186 110.79 28.2709 110.755 28.1108 110.668C27.9016 110.555 27.7668 110.402 27.7065 110.209C27.6411 110.017 27.6561 109.833 27.7516 109.657C27.8664 109.444 28.0899 109.292 28.422 109.202L31.0985 108.482L30.6386 104.457C30.6044 104.176 30.5928 103.94 30.6039 103.747C30.6133 103.558 30.6569 103.392 30.7346 103.248C30.8212 103.088 30.9601 102.983 31.1512 102.935C31.339 102.884 31.5408 102.917 31.7565 103.034C31.9592 103.143 32.1012 103.275 32.1828 103.429C32.2625 103.586 32.3077 103.76 32.3182 103.952C32.3287 104.143 32.3365 104.317 32.3415 104.471L32.6311 108.049L34.4401 107.551L35.2433 106.065C35.4058 105.765 35.5955 105.578 35.8123 105.505C36.0274 105.435 36.2427 105.459 36.4585 105.576C36.5827 105.643 36.6843 105.74 36.7634 105.867C36.8424 105.994 36.883 106.13 36.885 106.275C36.8813 106.391 36.8516 106.513 36.7961 106.639C36.7405 106.765 36.6509 106.943 36.5272 107.171L33.638 112.516C33.4789 112.81 33.2959 112.996 33.0889 113.074C32.8787 113.151 32.6624 113.129 32.4401 113.009C32.2211 112.89 32.0844 112.721 32.0299 112.502C31.9703 112.284 32.021 112.026 32.1818 111.728Z" fill="white"/>
<path d="M91.8501 42.5583C91.8501 52.611 76.5578 60.7599 57.6939 60.7599C38.8312 60.7599 23.5389 52.611 23.5389 42.5583C23.5389 32.5056 38.8312 24.3566 57.6939 24.3566C76.5578 24.3566 91.8501 32.5056 91.8501 42.5583Z" stroke="#3A4440" stroke-width="2" stroke-miterlimit="10"/>
<path d="M91.8501 79.4549C91.8501 89.5077 76.5578 97.6566 57.6939 97.6566C38.8312 97.6566 23.5389 89.5077 23.5389 79.4549C23.5389 69.4022 38.8312 61.2533 57.6939 61.2533C76.5578 61.2533 91.8501 69.4022 91.8501 79.4549Z" stroke="#3A4440" stroke-width="2" stroke-miterlimit="10"/>
<path d="M97.7762 57.8065C95.022 46.7115 78.1277 38.1739 57.6948 38.1739C37.2607 38.1739 20.3677 46.7115 17.6123 57.8065" stroke="#3A4440" stroke-width="2" stroke-miterlimit="10" stroke-linecap="round" stroke-linejoin="round"/>
<path d="M17.6128 64.1934C20.367 75.2884 37.2612 83.8259 57.6941 83.8259C78.1282 83.8259 95.0212 75.2884 97.7766 64.1934" stroke="#3A4440" stroke-width="2" stroke-miterlimit="10" stroke-linecap="round" stroke-linejoin="round"/>
<path d="M64.1833 100.944C82.418 98.004 96.5739 82.8828 98.0341 64.1935" stroke="#3A4440" stroke-width="2" stroke-miterlimit="10" stroke-linecap="round" stroke-linejoin="round"/>
<path d="M17.3553 64.1934C18.8143 82.8826 32.9714 98.0038 51.2061 100.944" stroke="#3A4440" stroke-width="2" stroke-miterlimit="10" stroke-linecap="round" stroke-linejoin="round"/>
<path d="M64.1835 100.749C66.8668 99.6806 68.6068 97.9687 68.6068 96.0381C68.6068 92.8025 63.7216 90.1802 57.6951 90.1802C51.6686 90.1802 46.7834 92.8025 46.7834 96.0381C46.7834 97.9687 48.5234 99.6806 51.2055 100.749" stroke="#3A4440" stroke-width="2" stroke-miterlimit="10" stroke-linecap="round" stroke-linejoin="round"/>
<path d="M98.0336 57.8065C96.5746 39.1172 82.4175 23.9948 64.1829 21.0561" stroke="#3A4440" stroke-width="2" stroke-miterlimit="10" stroke-linecap="round" stroke-linejoin="round"/>
<path d="M51.2059 21.0557C32.9712 23.9957 18.8153 39.1169 17.3551 57.8061" stroke="#3A4440" stroke-width="2" stroke-miterlimit="10" stroke-linecap="round" stroke-linejoin="round"/>
<path d="M51.2057 21.3368C48.5224 22.3949 46.7823 24.0934 46.7823 26.0094C46.7823 29.2181 51.6676 31.8208 57.6941 31.8208C63.7206 31.8208 68.6058 29.2181 68.6058 26.0094C68.6058 24.0934 66.8658 22.3949 64.1837 21.3368" stroke="#3A4440" stroke-width="2" stroke-miterlimit="10" stroke-linecap="round" stroke-linejoin="round"/>
<path d="M75.4448 60.9998C75.4448 66.3933 67.4975 70.7665 57.694 70.7665C47.8918 70.7665 39.9445 66.3933 39.9445 60.9998C39.9445 55.6062 47.8918 51.233 57.694 51.233C67.4975 51.233 75.4448 55.6062 75.4448 60.9998Z" fill="#3A4440"/>
<path d="M75.4448 60.9998C75.4448 66.3933 67.4975 70.7665 57.694 70.7665C47.8918 70.7665 39.9445 66.3933 39.9445 60.9998C39.9445 55.6062 47.8918 51.233 57.694 51.233C67.4975 51.233 75.4448 55.6062 75.4448 60.9998Z" stroke="#3A4440" stroke-width="0.184" stroke-miterlimit="10"/>
<path d="M58.6957 59.1007C58.6456 59.1203 58.6321 59.1838 58.67 59.2229C59.204 59.7581 58.5368 60.451 57.9772 59.9451C57.9381 59.9097 57.8758 59.9219 57.8574 59.9707C57.5373 60.8627 56.126 60.1699 56.6465 59.3671C56.6734 59.3256 56.6538 59.2694 56.605 59.2559C55.6849 58.9993 55.9451 57.8373 56.9043 58.0035C56.9434 58.0096 56.9813 57.9827 56.9874 57.9424C57.1108 57.1273 58.4 57.2923 58.3364 58.0951C58.3328 58.1452 58.3767 58.1843 58.4256 58.1745C59.1588 58.023 59.3714 58.8307 58.6957 59.1007ZM60.6727 60.9691C60.3734 60.1479 60.3379 59.504 60.3379 58.7782C60.3379 58.1147 60.4516 57.307 60.4516 56.7388C60.4516 55.9189 59.7257 55.1918 57.7218 55.1918C55.449 55.1918 54.8026 55.9971 54.8026 56.8341C54.8026 57.4487 54.9847 58.0731 54.9175 58.6523C54.6792 60.7051 52.4981 63.667 52.4981 65.4352C52.4981 66.271 53.1457 66.8074 54.2186 66.8074C55.1497 66.8074 55.8401 66.3455 55.8401 65.5402C55.8401 65.2568 55.8437 64.9611 55.8437 64.5664C55.8437 63.777 56.5854 63.3677 57.4689 63.3677C58.5112 63.3677 59.2211 63.8882 59.2211 64.614C59.2211 64.9134 59.1258 65.214 59.1258 65.5134C59.1258 66.4921 60.3538 66.7866 61.1077 66.7145C62.084 66.6204 62.8905 66.0009 62.8905 65.2115C62.8905 64.0287 61.3203 62.8154 60.6727 60.9691" fill="white"/>
</svg>
