<svg width="32" height="32" viewBox="0 0 32 32" fill="none" xmlns="http://www.w3.org/2000/svg">
<path d="M16.7204 21.3625C19.4014 21.4239 21.9466 19.2765 21.9547 16.2645C21.9627 13.2723 19.5422 11.116 16.7336 11.102C13.85 11.0876 11.4675 13.4128 11.4735 16.2325C11.4798 19.1719 13.9988 21.4379 16.7204 21.3625ZM23.4913 8.0046C23.4913 8.22296 23.4811 8.44188 23.4933 8.6596C23.5191 9.12104 23.9181 9.43517 24.3795 9.34558C25.5361 9.12096 26.6925 9.07568 27.8309 9.41253C29.636 9.94662 30.9605 11.2858 30.9992 13.3474C31.0265 14.8022 30.3675 16.026 29.2267 16.9303C28.5742 17.4474 27.8061 17.8325 27.0632 18.2286C26.5172 18.5197 26.3699 18.9441 26.781 19.3974C27.4554 20.1409 28.0589 20.9199 28.3935 21.8768C29.3502 24.6131 27.7569 27.4 24.8647 27.9518C23.2219 28.2652 21.7746 27.7288 20.4714 26.7595C20.3153 26.6434 20.1666 26.5175 20.0182 26.3918C19.5361 25.9837 19.0341 26.0897 18.8066 26.6707C18.3254 27.8998 17.6109 28.956 16.4744 29.6877C15.039 30.6121 13.4618 30.7947 11.8099 30.4555C9.60737 30.0033 7.8239 28.9054 6.66161 26.9908C5.48934 25.0597 5.64482 23.0995 6.73956 21.1745C6.78413 21.0959 6.83435 21.0206 6.8808 20.9432C7.26398 20.3043 7.09206 19.8839 6.35916 19.6774C5.27899 19.3731 4.27627 18.9113 3.40555 18.2098C1.52459 16.6945 0.649622 14.7549 1.12947 12.3838C1.60973 10.0107 3.17744 8.54817 5.5075 7.85986C6.74136 7.4954 8.0022 7.47196 9.26901 7.6871C9.95963 7.80439 10.2157 7.60048 10.3628 6.83519C10.6538 5.32041 11.3923 4.06421 12.6846 3.172C14.1272 2.17606 15.7526 1.86659 17.4924 2.05019C18.9451 2.20344 20.2571 2.68728 21.3931 3.60197C22.8076 4.74096 23.4917 6.21712 23.4913 8.0046" fill="#F089AF"/>
</svg>
