<svg width="32" height="32" viewBox="0 0 32 32" fill="none" xmlns="http://www.w3.org/2000/svg">
<path fill-rule="evenodd" clip-rule="evenodd" d="M6.21291 16.3803C4.67464 19.4931 3.80472 21.2534 2.63412 25.1143C1.98947 26.906 1.67178 28.3371 2.489 30.1209C3.14621 31.5545 6.51604 32.334 8.40258 31.8624C11.2744 31.1444 11.294 29.5779 11.326 27.0234C11.3296 26.738 11.3334 26.4404 11.3412 26.1302C11.3733 24.871 12.1394 23.1552 13.9171 22.7199C15.6948 22.2845 17.8196 22.49 19.1776 23.4818C20.9554 24.7798 20.6998 26.2326 20.3386 27.9079C19.7294 30.7337 23.5264 32.4259 26.6512 31.6447C28.3927 31.2093 30.7146 30.3386 30.7146 27.4C30.7146 25.2491 28.91 22.9964 27.5563 21.3065C27.0604 20.6875 26.6251 20.144 26.361 19.7087C23.0789 14.2977 23.5529 9.36944 23.8577 6.57545C24.0754 4.58007 24.2349 2.77623 22.6242 1.4963C20.2092 -0.423385 15.7243 -0.159343 12.1031 0.444189C10.5794 0.698147 8.63741 2.14933 8.47514 3.85448C8.36429 5.01925 8.30848 5.73395 8.55487 6.8756C9.20683 9.89373 8.40221 11.9126 7.02396 14.7326C6.73298 15.3279 6.46404 15.8721 6.21291 16.3803ZM18.1589 7.88305C18.1591 7.86349 18.1594 7.84392 18.1594 7.82438C18.1595 7.31218 17.9709 6.8892 17.5809 6.56282C17.2677 6.30072 16.9059 6.16208 16.5054 6.11817C16.0256 6.06556 15.5775 6.15424 15.1797 6.43962C14.8234 6.69528 14.6198 7.05524 14.5395 7.48929C14.499 7.70858 14.4284 7.76701 14.238 7.7334C13.8887 7.67175 13.541 7.67847 13.2008 7.7829C12.5584 7.98014 12.1261 8.39921 11.9937 9.07922C11.8614 9.75865 12.1026 10.3144 12.6213 10.7486C12.8613 10.9497 13.1378 11.082 13.4356 11.1692C13.6377 11.2283 13.6851 11.3488 13.5795 11.5319C13.5743 11.5408 13.569 11.5496 13.5637 11.5584C13.5558 11.5715 13.5479 11.5847 13.5405 11.5981C13.2387 12.1498 13.1958 12.7114 13.519 13.2648C13.8395 13.8134 14.3313 14.128 14.9386 14.2576C15.394 14.3548 15.8289 14.3025 16.2247 14.0376C16.538 13.8279 16.735 13.5253 16.8677 13.1731C16.9304 13.0066 17.0689 12.9762 17.2018 13.0932L17.2021 13.0935C17.2429 13.1294 17.2838 13.1653 17.3267 13.1985C17.6861 13.4763 18.0851 13.63 18.5381 13.5402C19.3355 13.3821 19.7748 12.5835 19.5111 11.7994C19.4188 11.5252 19.2524 11.302 19.0665 11.0889C18.9531 10.959 18.9937 10.8374 19.1443 10.754C19.1672 10.7413 19.1902 10.7287 19.2132 10.716C19.3961 10.6154 19.581 10.5136 19.7408 10.382C20.0554 10.1229 20.2371 9.7722 20.2295 9.35533C20.2189 8.7646 19.8537 8.38086 19.3559 8.22781C19.042 8.13129 18.7232 8.14427 18.4043 8.20863C18.2771 8.2343 18.1671 8.14429 18.16 8.01207C18.1577 7.96917 18.1583 7.92611 18.1589 7.88305Z" fill="#F089AF"/>
</svg>
