<svg width="420" height="434" viewBox="0 0 420 434" fill="none" xmlns="http://www.w3.org/2000/svg">
<mask id="path-1-inside-1_2_127" fill="white">
<path d="M220.15 293.138C257.549 294.068 293.052 261.558 293.165 215.958C293.277 170.657 259.512 138.01 220.335 137.799C180.11 137.581 146.876 172.784 146.96 215.473C147.048 259.974 182.186 294.281 220.15 293.138ZM314.6 90.9056C314.6 94.2115 314.458 97.5258 314.628 100.822C314.988 107.808 320.554 112.564 326.99 111.207C343.123 107.807 359.254 107.121 375.134 112.221C400.315 120.307 418.79 140.582 419.33 171.793C419.711 193.818 410.519 212.345 394.605 226.037C385.503 233.866 374.789 239.696 364.426 245.693C356.809 250.1 354.755 256.525 360.49 263.388C369.896 274.644 378.315 286.438 382.982 300.925C396.327 342.351 374.103 384.545 333.758 392.898C310.842 397.643 290.653 389.522 272.474 374.847C270.297 373.09 268.223 371.183 266.153 369.281C259.428 363.102 252.425 364.706 249.252 373.503C242.539 392.11 232.572 408.101 216.719 419.179C196.696 433.173 174.695 435.938 151.653 430.803C120.929 423.957 96.0503 407.335 79.8372 378.349C63.4848 349.113 65.6536 319.437 80.9244 290.292C81.5462 289.103 82.2467 287.963 82.8947 286.79C88.2398 277.118 85.8416 270.753 75.6181 267.627C60.5504 263.02 46.5632 256.029 34.4173 245.408C8.17914 222.467 -4.02609 193.102 2.6675 157.205C9.36679 121.277 31.2353 99.135 63.7381 88.7143C80.9495 83.1965 98.5374 82.8416 116.209 86.0988C125.842 87.8745 129.414 84.7874 131.466 73.2012C135.526 50.2681 145.827 31.2498 163.854 17.742C183.977 2.664 206.65 -2.0213 230.919 0.75827C251.184 3.07846 269.486 10.4036 285.332 24.2516C305.063 41.4955 314.606 63.8439 314.6 90.9056Z"/>
</mask>
<path d="M220.15 293.138L220.12 292.139L220.148 292.138L220.175 292.138L220.15 293.138ZM293.165 215.958L294.165 215.96L293.165 215.958ZM220.335 137.799L220.33 138.799H220.33L220.335 137.799ZM146.96 215.473L147.96 215.471L146.96 215.473ZM314.628 100.822L315.627 100.77V100.771L314.628 100.822ZM326.99 111.207L327.196 112.186H327.196L326.99 111.207ZM375.134 112.221L374.829 113.173L374.828 113.173L375.134 112.221ZM419.33 171.793L418.33 171.81L419.33 171.793ZM394.605 226.037L395.257 226.795L395.257 226.795L394.605 226.037ZM364.426 245.693L364.927 246.559L364.927 246.559L364.426 245.693ZM360.49 263.388L359.723 264.029L359.722 264.029L360.49 263.388ZM382.982 300.925L383.934 300.618L383.934 300.618L382.982 300.925ZM333.758 392.898L333.555 391.919L333.758 392.898ZM272.474 374.847L271.846 375.625L271.846 375.625L272.474 374.847ZM266.153 369.281L266.83 368.544L266.83 368.544L266.153 369.281ZM249.252 373.503L250.193 373.842L250.193 373.842L249.252 373.503ZM216.719 419.179L216.146 418.36L216.146 418.36L216.719 419.179ZM151.653 430.803L151.87 429.827L151.87 429.827L151.653 430.803ZM79.8372 378.349L78.9644 378.837L78.9644 378.837L79.8372 378.349ZM80.9244 290.292L81.8105 290.755L81.8102 290.756L80.9244 290.292ZM82.8947 286.79L82.0194 286.307L82.0195 286.306L82.8947 286.79ZM75.6181 267.627L75.3257 268.583H75.3257L75.6181 267.627ZM34.4173 245.408L35.0755 244.655L35.0756 244.655L34.4173 245.408ZM2.6675 157.205L1.68444 157.021H1.68444L2.6675 157.205ZM63.7381 88.7143L63.4328 87.7621H63.4328L63.7381 88.7143ZM116.209 86.0988L116.027 87.0823H116.027L116.209 86.0988ZM131.466 73.2012L130.481 73.0269L131.466 73.2012ZM163.854 17.742L163.255 16.9418L163.854 17.742ZM230.919 0.75827L230.805 1.7518H230.805L230.919 0.75827ZM285.332 24.2516L284.674 25.0046L285.332 24.2516ZM220.175 292.138C256.977 293.053 292.053 261.031 292.165 215.955L294.165 215.96C294.051 262.084 258.121 295.082 220.126 294.138L220.175 292.138ZM292.165 215.955C292.275 171.176 258.927 139.007 220.33 138.799L220.341 136.799C260.098 137.013 294.278 170.137 294.165 215.96L292.165 215.955ZM220.33 138.799C180.716 138.585 147.877 173.279 147.96 215.471L145.96 215.475C145.875 172.289 179.504 136.578 220.341 136.799L220.33 138.799ZM147.96 215.471C148.047 259.472 182.78 293.262 220.12 292.139L220.18 294.138C181.592 295.299 146.049 260.476 145.96 215.475L147.96 215.471ZM315.6 90.9056C315.6 94.2705 315.459 97.5068 315.627 100.77L313.63 100.873C313.458 97.5449 313.6 94.1525 313.6 90.9056H315.6ZM315.627 100.771C315.96 107.238 321.039 111.44 326.784 110.229L327.196 112.186C320.07 113.688 314.016 108.378 313.63 100.873L315.627 100.771ZM326.784 110.229C343.019 106.807 359.339 106.098 375.44 111.269L374.828 113.173C359.17 108.144 343.228 108.807 327.196 112.186L326.784 110.229ZM375.44 111.269C400.986 119.472 419.782 140.094 420.33 171.776L418.33 171.81C417.799 141.07 399.644 121.142 374.829 113.173L375.44 111.269ZM420.33 171.776C420.716 194.119 411.38 212.924 395.257 226.795L393.952 225.279C409.658 211.767 418.706 193.517 418.33 171.81L420.33 171.776ZM395.257 226.795C386.066 234.7 375.251 240.584 364.927 246.559L363.925 244.828C374.326 238.809 384.939 233.032 393.953 225.279L395.257 226.795ZM364.927 246.559C361.246 248.689 359.08 251.209 358.421 253.86C357.772 256.475 358.525 259.478 361.257 262.747L359.722 264.029C356.719 260.435 355.632 256.794 356.48 253.378C357.32 250 359.99 247.105 363.925 244.828L364.927 246.559ZM361.257 262.747C370.691 274.034 379.208 285.947 383.934 300.618L382.031 301.232C377.423 286.928 369.102 275.253 359.723 264.029L361.257 262.747ZM383.934 300.618C397.438 342.537 374.961 385.388 333.96 393.877L333.555 391.919C373.244 383.701 395.217 342.166 382.031 301.232L383.934 300.618ZM333.96 393.877C310.654 398.703 290.167 390.415 271.846 375.625L273.102 374.069C291.139 388.629 311.03 396.583 333.555 391.919L333.96 393.877ZM271.846 375.625C269.64 373.844 267.542 371.915 265.477 370.017L266.83 368.544C268.904 370.45 270.954 372.335 273.102 374.069L271.846 375.625ZM265.477 370.017C262.256 367.058 259.154 366.126 256.607 366.747C254.062 367.368 251.714 369.626 250.193 373.842L248.311 373.164C249.964 368.583 252.703 365.64 256.134 364.804C259.563 363.968 263.325 365.324 266.83 368.544L265.477 370.017ZM250.193 373.842C243.435 392.573 233.367 408.766 217.291 419.999L216.146 418.36C231.777 407.437 241.643 391.648 248.311 373.163L250.193 373.842ZM217.291 419.999C197.003 434.179 174.705 436.965 151.435 431.779L151.87 429.827C174.685 434.912 196.389 432.168 216.146 418.36L217.291 419.999ZM151.435 431.779C120.462 424.878 95.3303 408.097 78.9644 378.837L80.7099 377.86C96.7703 406.574 121.395 423.036 151.87 429.827L151.435 431.779ZM78.9644 378.837C62.4177 349.253 64.6412 319.214 80.0386 289.828L81.8102 290.756C66.666 319.659 64.5519 348.972 80.7099 377.86L78.9644 378.837ZM80.0383 289.828C80.659 288.642 81.4097 287.41 82.0194 286.307L83.77 287.274C83.0837 288.516 82.4334 289.564 81.8105 290.755L80.0383 289.828ZM82.0195 286.306C84.637 281.57 85.2146 277.892 84.1595 275.108C83.1102 272.34 80.3114 270.108 75.3257 268.583L75.9105 266.671C81.1484 268.272 84.6604 270.786 86.0297 274.399C87.3934 277.998 86.4975 282.338 83.77 287.274L82.0195 286.306ZM75.3257 268.583C60.1516 263.943 46.0315 256.892 33.759 246.16L35.0756 244.655C47.0949 255.165 60.9493 262.096 75.9106 266.671L75.3257 268.583ZM33.7591 246.16C7.28283 223.012 -5.0805 193.302 1.68444 157.021L3.65055 157.388C-2.97169 192.903 9.07544 221.923 35.0755 244.655L33.7591 246.16ZM1.68444 157.021C8.45635 120.704 30.608 98.286 63.4328 87.7621L64.0434 89.6666C31.8627 99.984 10.2772 121.85 3.65055 157.388L1.68444 157.021ZM63.4328 87.7621C80.8284 82.1852 98.5869 81.8339 116.39 85.1154L116.027 87.0823C98.488 83.8493 81.0706 84.2078 64.0434 89.6666L63.4328 87.7621ZM116.39 85.1154C121.131 85.9893 124.037 85.593 126.033 83.8984C128.093 82.15 129.457 78.8092 130.481 73.0269L132.45 73.3755C131.423 79.1794 129.975 83.1753 127.328 85.4231C124.617 87.7246 120.92 87.984 116.027 87.0823L116.39 85.1154ZM130.481 73.0269C134.578 49.8893 144.99 30.6273 163.255 16.9418L164.454 18.5423C146.664 31.8723 136.475 50.6469 132.45 73.3755L130.481 73.0269ZM163.255 16.9418C183.613 1.68768 206.551 -3.03922 231.033 -0.235229L230.805 1.7518C206.75 -1.00339 184.342 3.64032 164.454 18.5423L163.255 16.9418ZM231.033 -0.235229C251.477 2.10556 269.975 9.50339 285.99 23.4987L284.674 25.0046C268.996 11.3038 250.89 4.05136 230.805 1.7518L231.033 -0.235229ZM285.99 23.4987C305.955 40.9467 315.606 63.5778 315.6 90.9059L313.6 90.9055C313.606 64.1101 304.172 42.0443 284.674 25.0046L285.99 23.4987Z" fill="#EF6A9A" mask="url(#path-1-inside-1_2_127)"/>
</svg>
