<svg width="18" height="18" viewBox="0 0 18 18" fill="none" xmlns="http://www.w3.org/2000/svg">
<path d="M9.43223 12.1802C11.0408 12.2188 12.5679 10.868 12.5728 8.97325C12.5776 7.09095 11.1253 5.73446 9.44018 5.72568C7.70998 5.71664 6.28049 7.17933 6.28412 8.9531C6.2879 10.8022 7.79929 12.2276 9.43223 12.1802ZM13.4948 3.77722C13.4948 3.91458 13.4887 4.0523 13.496 4.18925C13.5115 4.47953 13.7509 4.67714 14.0277 4.62078C14.7216 4.47948 15.4155 4.451 16.0985 4.6629C17.1816 4.99888 17.9763 5.84132 17.9995 7.13817C18.0159 8.05334 17.6205 8.82317 16.936 9.39205C16.5445 9.71738 16.0837 9.95963 15.6379 10.2088C15.3103 10.3919 15.2219 10.6589 15.4686 10.944C15.8732 11.4117 16.2353 11.9018 16.4361 12.5037C17.0101 14.225 16.0542 15.9782 14.3188 16.3253C13.3331 16.5225 12.4647 16.185 11.6828 15.5753C11.5892 15.5022 11.5 15.423 11.4109 15.344C11.1217 15.0872 10.8205 15.1539 10.684 15.5194C10.3952 16.2926 9.96654 16.957 9.28462 17.4173C8.4234 17.9988 7.47708 18.1137 6.48595 17.9003C5.16442 17.6158 4.09434 16.9252 3.39697 15.7208C2.69361 14.506 2.78689 13.2729 3.44373 12.0619C3.47048 12.0125 3.50061 11.9651 3.52848 11.9164C3.75839 11.5145 3.65524 11.2501 3.2155 11.1202C2.56739 10.9287 1.96576 10.6383 1.44333 10.1969C0.314754 9.24373 -0.210227 8.02359 0.0776831 6.53202C0.365839 5.03918 1.30647 4.11916 2.7045 3.68617C3.44481 3.4569 4.20132 3.44215 4.96141 3.57749C5.37578 3.65127 5.52943 3.523 5.61766 3.04158C5.79231 2.08869 6.23539 1.29846 7.01079 0.737202C7.87633 0.110693 8.85156 -0.0839863 9.89543 0.0315094C10.7671 0.127914 11.5543 0.432281 12.2359 1.00768C13.0846 1.72418 13.495 2.65278 13.4948 3.77722Z" fill="#F089AF"/>
</svg>
