<svg width="28" height="28" viewBox="0 0 28 28" fill="none" xmlns="http://www.w3.org/2000/svg">
<path d="M12.1791 16.91C13.6199 17.9376 15.8438 17.6498 17.0172 15.9276C18.183 14.2167 17.6976 12.0855 16.1686 11.0378C14.5988 9.96207 12.3948 10.4119 11.3037 12.0293C10.1663 13.7153 10.6629 15.9457 12.1791 16.91ZM21.0626 11.7653C20.9779 11.8903 20.8874 12.012 20.8095 12.1412C20.6445 12.415 20.7406 12.7427 21.0274 12.8622C21.7464 13.1616 22.3958 13.5638 22.887 14.1782C23.6658 15.1523 23.8696 16.4097 23.0906 17.6049C22.5409 18.4483 21.7059 18.9053 20.7317 19.0009C20.1745 19.0556 19.6054 18.9919 19.0458 18.9437C18.6345 18.9083 18.3894 19.0969 18.438 19.5087C18.5179 20.1842 18.5452 20.8538 18.3566 21.5258C17.8172 23.4473 15.8652 24.4538 14.0709 23.6992C13.0518 23.2705 12.4693 22.4275 12.1335 21.3899C12.0933 21.2656 12.061 21.1384 12.0287 21.0115C11.9237 20.5993 11.6083 20.4742 11.2585 20.7228C10.5186 21.2486 9.7183 21.5891 8.8134 21.5875C7.67047 21.5856 6.73794 21.1063 5.96714 20.3006C4.93936 19.2262 4.39115 17.9371 4.49929 16.4102C4.60837 14.8701 5.4541 13.8049 6.79934 13.1075C6.85416 13.079 6.91082 13.0545 6.96627 13.0273C7.42356 12.8032 7.49282 12.4988 7.17256 12.1092C6.70056 11.535 6.33198 10.8993 6.12859 10.1752C5.6891 8.61093 5.9639 7.17604 7.14634 5.99554C8.32977 4.81403 9.75388 4.55667 11.294 5.02497C12.1095 5.27297 12.8074 5.72629 13.416 6.31849C13.7478 6.64132 13.9668 6.61933 14.3442 6.23541C15.0911 5.47552 15.9821 5.02936 17.0344 4.99671C18.2091 4.96028 19.2172 5.38471 20.0964 6.13392C20.8305 6.75948 21.3595 7.52232 21.6251 8.46676C21.9558 9.6428 21.7566 10.7416 21.0626 11.7653Z" fill="#586546"/>
</svg>
