<svg width="287" height="287" viewBox="0 0 287 287" fill="none" xmlns="http://www.w3.org/2000/svg">
<mask id="path-1-inside-1_215_530" fill="white">
<path d="M150.392 194.206C176.04 194.822 200.389 173.284 200.466 143.074C200.543 113.061 177.387 91.4328 150.518 91.2927C122.931 91.1486 100.139 114.47 100.197 142.752C100.257 172.235 124.355 194.963 150.392 194.206ZM215.167 60.2257C215.167 62.4158 215.07 64.6116 215.186 66.7953C215.433 71.4236 219.25 74.5744 223.664 73.6758C234.728 71.4228 245.791 70.9687 256.682 74.3473C273.951 79.7043 286.622 93.1366 286.992 113.814C287.254 128.406 280.949 140.68 270.035 149.751C263.793 154.938 256.445 158.801 249.338 162.774C244.115 165.693 242.705 169.95 246.639 174.496C253.09 181.953 258.864 189.767 262.064 199.365C271.217 226.81 255.975 254.764 228.305 260.298C212.589 263.441 198.743 258.061 186.276 248.339C184.783 247.175 183.361 245.911 181.941 244.651C177.329 240.558 172.526 241.62 170.35 247.448C165.746 259.776 158.911 270.37 148.038 277.709C134.306 286.981 119.218 288.812 103.415 285.41C82.3438 280.875 65.282 269.863 54.1628 250.659C42.9481 231.29 44.4355 211.629 54.9084 192.32C55.3348 191.533 55.8153 190.778 56.2597 190.001C59.9254 183.593 58.2807 179.376 51.2693 177.305C40.9356 174.253 31.3429 169.621 23.0131 162.584C5.01858 147.386 -3.35195 127.932 1.23861 104.149C5.83309 80.3468 20.8309 65.6777 43.1218 58.7739C54.9256 55.1183 66.9877 54.8832 79.1069 57.0411C85.7138 58.2175 88.1636 56.1723 89.5704 48.4964C92.3551 33.303 99.4198 20.7033 111.783 11.7543C125.584 1.76495 141.133 -1.3391 157.777 0.502397C171.675 2.03952 184.227 6.89248 195.094 16.0669C208.626 27.4911 215.171 42.2971 215.167 60.2257"/>
</mask>
<path d="M150.392 194.206L150.363 193.207L150.389 193.206L150.416 193.206L150.392 194.206ZM200.466 143.074L201.466 143.076L201.466 143.076L200.466 143.074ZM150.518 91.2927L150.513 92.2927L150.513 92.2927L150.518 91.2927ZM100.197 142.752L101.197 142.75L101.197 142.75L100.197 142.752ZM215.186 66.7953L216.185 66.742L216.185 66.7421L215.186 66.7953ZM223.664 73.6758L223.864 74.6557L223.863 74.6557L223.664 73.6758ZM256.682 74.3473L256.386 75.3024L256.386 75.3024L256.682 74.3473ZM286.992 113.814L285.992 113.832L285.992 113.832L286.992 113.814ZM270.035 149.751L270.674 150.52L270.674 150.52L270.035 149.751ZM249.338 162.774L249.826 163.646L249.826 163.646L249.338 162.774ZM246.639 174.496L245.882 175.151L245.882 175.151L246.639 174.496ZM262.064 199.365L263.013 199.049L263.013 199.049L262.064 199.365ZM228.305 260.298L228.109 259.317L228.109 259.317L228.305 260.298ZM186.276 248.339L185.661 249.128L185.661 249.128L186.276 248.339ZM181.941 244.651L182.605 243.903L182.605 243.903L181.941 244.651ZM170.35 247.448L171.287 247.798L171.287 247.798L170.35 247.448ZM148.038 277.709L147.479 276.881L147.479 276.881L148.038 277.709ZM103.415 285.41L103.625 284.433L103.625 284.433L103.415 285.41ZM54.1628 250.659L53.2974 251.16L53.2973 251.16L54.1628 250.659ZM54.9084 192.32L55.7878 192.797L55.7874 192.797L54.9084 192.32ZM56.2597 190.001L55.3916 189.504L55.3917 189.504L56.2597 190.001ZM51.2693 177.305L50.986 178.264L50.986 178.264L51.2693 177.305ZM23.0131 162.584L23.6584 161.82L23.6584 161.82L23.0131 162.584ZM1.23861 104.149L0.256738 103.96L0.256738 103.96L1.23861 104.149ZM43.1218 58.7739L42.8259 57.8187L42.8259 57.8187L43.1218 58.7739ZM79.1069 57.0411L78.9316 58.0257L78.9316 58.0257L79.1069 57.0411ZM89.5704 48.4964L88.5868 48.3161L88.5868 48.3161L89.5704 48.4964ZM111.783 11.7543L111.197 10.9442L111.197 10.9442L111.783 11.7543ZM157.777 0.502397L157.667 1.49634L157.667 1.49633L157.777 0.502397ZM195.094 16.0669L194.449 16.831L194.449 16.831L195.094 16.0669ZM150.416 193.206C175.501 193.809 199.39 172.723 199.466 143.071L201.466 143.076C201.387 173.844 176.579 195.835 150.368 195.206L150.416 193.206ZM199.466 143.071C199.541 113.613 176.834 92.43 150.513 92.2927L150.524 90.2928C177.94 90.4357 201.544 112.509 201.466 143.076L199.466 143.071ZM150.513 92.2927C123.505 92.1516 101.14 114.999 101.197 142.75L99.1967 142.754C99.1378 113.942 122.357 90.1456 150.524 90.2928L150.513 92.2927ZM101.197 142.75C101.256 171.698 124.917 193.946 150.363 193.207L150.421 195.206C123.794 195.98 99.2581 172.771 99.1967 142.754L101.197 142.75ZM216.167 60.2257C216.167 62.4769 216.07 64.5919 216.185 66.742L214.188 66.8486C214.069 64.6314 214.167 62.3548 214.167 60.2257H216.167ZM216.185 66.7421C216.402 70.814 219.701 73.4622 223.464 72.6959L223.863 74.6557C218.8 75.6866 214.464 72.0333 214.188 66.8485L216.185 66.7421ZM223.464 72.6959C234.628 70.4228 245.873 69.947 256.978 73.3922L256.386 75.3024C245.71 71.9903 234.829 72.4228 223.864 74.6557L223.464 72.6959ZM256.978 73.3922C274.598 78.8579 287.613 92.6258 287.992 113.796L285.992 113.832C285.631 93.6475 273.305 80.5507 256.386 75.3024L256.978 73.3922ZM287.992 113.796C288.259 128.72 281.799 141.275 270.674 150.52L269.396 148.982C280.1 140.086 286.248 128.092 285.992 113.832L287.992 113.796ZM270.674 150.52C264.343 155.781 256.894 159.695 249.826 163.646L248.85 161.901C255.996 157.906 263.242 154.095 269.396 148.982L270.674 150.52ZM249.826 163.646C247.336 165.038 245.941 166.648 245.523 168.274C245.117 169.855 245.566 171.728 247.395 173.842L245.882 175.151C243.778 172.718 242.966 170.189 243.586 167.776C244.195 165.407 246.117 163.429 248.85 161.901L249.826 163.646ZM247.395 173.842C253.873 181.33 259.75 189.263 263.013 199.049L261.116 199.681C257.978 190.271 252.307 182.577 245.882 175.151L247.395 173.842ZM263.013 199.049C272.341 227.022 256.804 255.618 228.502 261.278L228.109 259.317C255.146 253.91 270.092 226.598 261.116 199.681L263.013 199.049ZM228.502 261.278C212.409 264.497 198.273 258.962 185.661 249.128L186.891 247.55C199.214 257.16 212.77 262.385 228.109 259.317L228.502 261.278ZM185.661 249.128C184.139 247.94 182.692 246.655 181.277 245.399L182.605 243.903C184.029 245.167 185.427 246.409 186.891 247.55L185.661 249.128ZM181.277 245.399C179.117 243.482 177.086 242.92 175.461 243.303C173.845 243.683 172.303 245.077 171.287 247.798L169.413 247.099C170.573 243.992 172.521 241.94 175.003 241.356C177.477 240.773 180.153 241.727 182.605 243.903L181.277 245.399ZM171.287 247.798C166.635 260.254 159.694 271.048 148.598 278.538L147.479 276.881C158.128 269.692 164.857 259.298 169.413 247.099L171.287 247.798ZM148.598 278.538C134.603 287.987 119.226 289.837 103.204 286.388L103.625 284.433C119.21 287.788 134.01 285.974 147.479 276.881L148.598 278.538ZM103.204 286.388C81.8942 281.801 64.5756 270.639 53.2974 251.16L55.0282 250.158C65.9883 269.087 82.7935 279.949 103.625 284.433L103.204 286.388ZM53.2973 251.16C41.8768 231.435 43.4226 211.399 54.0294 191.844L55.7874 192.797C45.4484 211.859 44.0193 231.144 55.0282 250.158L53.2973 251.16ZM54.0291 191.844C54.4544 191.059 54.9872 190.211 55.3916 189.504L57.1277 190.497C56.6433 191.344 56.2153 192.007 55.7878 192.797L54.0291 191.844ZM55.3917 189.504C57.1679 186.399 57.502 184.086 56.8375 182.392C56.1752 180.704 54.3763 179.265 50.986 178.264L51.5526 176.346C55.1738 177.416 57.7029 179.121 58.6993 181.661C59.6936 184.196 59.0172 187.194 57.1277 190.497L55.3917 189.504ZM50.986 178.264C40.5492 175.181 30.8249 170.492 22.3678 163.348L23.6584 161.82C31.861 168.75 41.322 173.324 51.5526 176.346L50.986 178.264ZM22.3679 163.348C4.13304 147.947 -4.41094 128.142 0.256738 103.96L2.22049 104.339C-2.29296 127.722 5.90413 146.825 23.6584 161.82L22.3679 163.348ZM0.256738 103.96C4.92913 79.7537 20.2248 64.8185 42.8259 57.8187L43.4176 59.7292C21.4369 66.5369 6.73705 80.94 2.22049 104.339L0.256738 103.96ZM42.8259 57.8187C54.8087 54.1077 67.0356 53.876 79.2822 56.0566L78.9316 58.0257C66.9398 55.8904 55.0425 56.129 43.4176 59.7292L42.8259 57.8187ZM79.2822 56.0566C82.5156 56.6324 84.3944 56.3486 85.6546 55.3152C86.9674 54.2386 87.8863 52.1381 88.5868 48.3161L90.5541 48.6766C89.8477 52.5306 88.8384 55.2907 86.9228 56.8616C84.9546 58.4757 82.3051 58.6263 78.9316 58.0257L79.2822 56.0566ZM88.5868 48.3161C91.4106 32.9093 98.5942 20.0663 111.197 10.9442L112.369 12.5643C100.245 21.3402 93.2996 33.6968 90.5541 48.6766L88.5868 48.3161ZM111.197 10.9442C125.231 0.785853 141.039 -2.35562 157.887 -0.491538L157.667 1.49633C141.227 -0.322575 125.937 2.74405 112.369 12.5643L111.197 10.9442ZM157.887 -0.491542C171.958 1.06472 184.703 5.98547 195.739 15.3028L194.449 16.831C183.751 7.79949 171.392 3.01433 157.667 1.49634L157.887 -0.491542ZM195.739 15.3028C209.508 26.9271 216.171 42.0186 216.167 60.2259L214.167 60.2255C214.171 42.5756 207.744 28.0551 194.449 16.831L195.739 15.3028Z" fill="#EFB9B2" fill-opacity="0.5" mask="url(#path-1-inside-1_215_530)"/>
</svg>
