<svg width="132" height="126" viewBox="0 0 132 126" fill="none" xmlns="http://www.w3.org/2000/svg">
<path d="M69.1248 85.1392C80.9136 85.4092 92.105 75.967 92.1406 62.7229C92.1759 49.5657 81.5325 40.0838 69.1831 40.0224C56.5031 39.9592 46.027 50.1834 46.0536 62.582C46.0813 75.507 57.1576 85.471 69.1248 85.1392ZM98.8974 26.4028C98.8974 27.3629 98.8528 28.3255 98.9064 29.2829C99.0197 31.3119 100.774 32.6932 102.803 32.2992C107.889 31.3115 112.973 31.1124 117.979 32.5936C125.917 34.9421 131.741 40.8308 131.911 49.8957C132.031 56.2927 129.133 61.6738 124.117 65.6503C121.248 67.9243 117.87 69.6176 114.604 71.3593C112.203 72.6393 111.555 74.5052 113.363 76.4986C116.328 79.7677 118.982 83.1931 120.453 87.4008C124.66 99.4327 117.654 111.687 104.936 114.113C97.7128 115.492 91.3487 113.133 85.6183 108.871C84.9321 108.36 84.2783 107.806 83.6259 107.254C81.5059 105.459 79.2985 105.925 78.2983 108.48C76.1823 113.885 73.0405 118.529 68.043 121.747C61.7315 125.811 54.7963 126.614 47.5328 125.123C37.8478 123.134 30.0057 118.307 24.8949 109.888C19.7403 101.396 20.424 92.7773 25.2377 84.3125C25.4337 83.9673 25.6545 83.6361 25.8587 83.2955C27.5436 80.4864 26.7877 78.6377 23.565 77.7298C18.8153 76.3916 14.4062 74.3612 10.5776 71.2763C2.3067 64.6135 -1.54066 56.0848 0.569306 45.6587C2.68107 35.2238 9.57453 28.7929 19.8201 25.7663C25.2456 24.1637 30.7897 24.0607 36.36 25.0067C39.3968 25.5224 40.5228 24.6258 41.1694 21.2607C42.4493 14.6 45.6965 9.07632 51.379 5.15312C57.7223 0.773855 64.8693 -0.586944 72.5194 0.220357C78.9072 0.894227 84.6764 3.02174 89.6714 7.04378C95.8912 12.0521 98.8992 18.543 98.8974 26.4028" fill="#F089AF"/>
</svg>
