<svg width="73" height="74" viewBox="0 0 73 74" fill="none" xmlns="http://www.w3.org/2000/svg">
<path d="M7.36435 10.3479C7.18339 9.70864 7.0702 9.0313 6.7964 8.42372C6.55179 7.8808 6.08856 7.82352 5.73558 8.2819C5.40989 8.70505 5.14657 9.22659 5.03209 9.74248C4.85254 10.5519 4.95596 11.3714 5.55379 12.0309C6.03349 12.5599 6.60744 12.5088 6.91159 11.8746C7.12844 11.4224 7.20527 10.9054 7.36435 10.3479ZM0 15.5088C0.60995 13.1082 2.00328 11.0356 2.93197 8.76833C3.54933 7.26098 3.74041 5.72094 3.44838 4.10768C3.33802 3.49743 3.35825 2.85185 3.40791 2.22926C3.47474 1.39035 4.15458 0.854942 5.02938 1.00554C6.47248 1.25396 7.82369 1.75552 8.90546 2.78164C9.62695 3.46579 9.89969 4.33011 9.65625 5.26614C8.81933 8.48423 9.50764 11.4652 10.9778 14.3575C11.419 15.2255 11.8584 16.1198 12.1058 17.0513C12.4288 18.2675 11.1229 19.8983 9.85156 20.0458C8.41552 20.2123 7.45283 19.0959 7.72568 17.5854C7.88746 16.6899 7.95288 15.8225 7.15656 15.1286C6.54826 14.5985 5.84794 14.416 5.06609 14.5245C4.49426 14.6039 4.06727 15.1498 4.05292 15.8228C4.03809 16.5196 4.14105 17.2254 4.06186 17.9128C3.9322 19.0364 2.9941 19.5552 1.91951 19.1561C1.13566 18.8649 0.619716 18.3 0.32533 17.5337C0.221672 17.2637 0.108718 16.9971 0 16.729V15.5088Z" fill="white"/>
<path d="M57.7953 66.7844C57.6894 65.7226 57.407 64.935 56.7773 64.3055C56.2418 63.7701 55.6935 63.9332 55.4893 64.6631C55.2646 65.466 55.6906 66.7462 56.4112 67.2301C56.6633 67.3995 57.0884 67.5532 57.3211 67.4551C57.574 67.3484 57.6948 66.9402 57.7953 66.7844ZM52.4333 69.2619C52.6754 68.1483 52.8922 67.0288 53.1657 65.9228C53.5734 64.274 53.5806 62.6805 52.7154 61.1464C52.509 60.7801 52.382 60.3623 52.27 59.9545C52.079 59.2602 52.3675 58.742 53.083 58.6566C54.794 58.4522 56.4136 58.7827 57.8572 59.7284C58.4256 60.1008 58.7681 60.6851 58.7604 61.3759C58.7258 64.482 60.2362 66.9061 62.2505 69.119C62.7254 69.6408 63.2345 70.1473 63.6198 70.7297C64.2514 71.6844 63.8006 73.1816 62.779 73.7661C61.8793 74.2809 60.5008 73.916 59.9851 72.9658C59.7906 72.6074 59.6916 72.1608 59.6808 71.751C59.6339 69.9726 57.808 69.1567 56.5846 69.3107C56.1584 69.3644 55.884 69.6127 55.9366 70.0628C55.9768 70.4059 56.0735 70.7439 56.1622 71.0798C56.2374 71.3642 56.3637 71.6373 56.4212 71.9242C56.5712 72.6731 56.0195 73.1706 55.2623 73.02C53.9129 72.7516 52.386 71.2175 52.4333 69.2619Z" fill="white"/>
<path d="M48.5168 64.6398C49.1418 64.6311 49.3178 64.3604 49.0832 63.8722C48.7777 63.2364 48.2156 62.8975 47.5377 62.8044C47.2828 62.7694 46.8754 62.8781 46.7583 63.059C46.6395 63.2426 46.7095 63.6443 46.8427 63.8662C47.2326 64.5161 47.9647 64.514 48.5168 64.6398ZM44.7581 57.0002C46.7749 56.9785 48.2293 57.9791 49.2862 59.5541C50.24 60.9755 50.7917 62.5657 50.8347 64.2844C50.8625 65.3998 50.2566 65.8974 49.1257 65.7764C48.8088 65.7425 48.4925 65.6864 48.1752 65.6806C48.001 65.6773 47.7569 65.7055 47.6701 65.8153C47.5915 65.9149 47.6356 66.1673 47.7083 66.3126C48.102 67.1005 49.0375 67.5972 49.911 67.3961C50.254 67.3173 50.5767 67.0226 50.8362 66.7579C51.1684 66.4192 51.5232 66.3781 51.7074 66.8081C52.0496 67.6075 52.1662 68.4591 51.7898 69.2773C51.5043 69.8983 50.7534 70.1172 49.9215 69.896C48.5416 69.5291 47.3989 68.7456 46.3734 67.8143C44.1531 65.798 42.6608 63.3304 41.8984 60.4587C41.7613 59.9422 41.7679 59.361 41.836 58.8254C41.9669 57.7967 42.8758 57.0961 44.0813 57.0027C44.3056 56.9853 44.5325 57.0002 44.7581 57.0002Z" fill="white"/>
<path d="M36.3835 61.3152C35.8472 61.3181 34.9233 62.0867 34.8224 62.6139C34.7539 62.9717 35.0687 63.3015 35.4591 63.2808C35.9655 63.2542 36.8086 62.5729 36.9245 62.0966C37.0258 61.6801 36.7718 61.3131 36.3835 61.3152ZM39.2454 65.7406C39.2306 65.5287 39.2617 65.2023 39.1756 64.909C39.0238 64.3922 38.4012 64.0975 37.8529 64.2232C37.1407 64.3866 36.5146 64.9737 36.6321 65.4764C36.6994 65.7637 36.9655 66.0305 37.1973 66.2505C37.4925 66.5307 37.8714 66.7263 38.1645 67.0081C38.6709 67.4951 38.6689 68.0318 38.1689 68.5151C37.5032 69.1583 36.675 69.4993 35.7627 69.6331C35.2374 69.7102 34.894 69.4827 34.7859 68.9484C34.702 68.5335 34.6265 68.1145 34.5052 67.7096C34.1879 66.6509 33.5479 66.1913 32.4345 66.193C32.1145 66.1936 31.7934 66.1917 31.4747 66.2158C31.0182 66.2503 30.8951 66.0098 30.9851 65.6363C31.0624 65.3153 31.1623 64.9905 31.3123 64.697C32.3184 62.7281 33.6031 60.9607 35.3903 59.6026C36.2369 58.9594 37.2158 58.5839 38.3279 58.653C39.4308 58.7215 40.3683 59.723 40.3339 60.812C40.317 61.3477 39.9711 61.6768 39.5971 62.001C38.9273 62.5817 38.9624 62.7376 39.7655 63.0998C40.3789 63.3763 41.0219 63.6214 41.5725 63.9934C42.6196 64.7007 43.2055 65.7223 43.2733 66.9771C43.317 67.7849 42.8333 68.2587 42.0149 68.3033C41.2553 68.3448 40.5652 68.1295 39.944 67.708C39.271 67.2513 39.1466 66.5821 39.2454 65.7406Z" fill="white"/>
<path d="M64.9885 69.3481C64.9885 67.7243 65.0659 66.0958 64.9659 64.4781C64.873 62.975 64.6016 61.4817 64.3871 59.9871C64.2708 59.1761 64.4725 58.4407 64.9165 57.7811C65.4604 56.9733 66.2262 56.406 67.1668 56.1057C67.8472 55.8884 68.3666 56.1504 68.4531 56.8429C68.5336 57.486 68.5343 58.1765 68.3823 58.8023C68.0166 60.3068 67.4895 61.7738 67.1302 63.2794C66.9401 64.076 66.9113 64.9223 66.9181 65.7453C66.9208 66.08 67.1755 66.6609 67.3794 66.6893C67.7076 66.7353 68.1971 66.5043 68.4263 66.2336C68.9993 65.5568 69.5214 64.8234 69.9582 64.0548C70.4979 63.1055 70.9066 62.0851 71.4223 61.1214C71.6264 60.7399 71.9434 60.4062 72.2557 60.096C72.377 59.9753 72.6708 59.8896 72.8055 59.953C72.9292 60.0111 73.0241 60.3047 72.9946 60.4711C72.8282 61.4111 72.7124 62.374 72.4092 63.2739C71.5769 65.7445 70.401 68.0602 68.6943 70.0672C68.0257 70.8536 67.2302 71.5542 66.4117 72.1945C65.6655 72.7786 65.1859 72.5392 65.0052 71.6105C64.9524 71.3392 64.8977 71.0646 64.8866 70.7897C64.8674 70.31 64.8813 69.829 64.8813 69.3486C64.9171 69.3484 64.9527 69.3482 64.9885 69.3481Z" fill="white"/>
<path d="M17.3637 2.84758C18.4856 2.84816 19.1768 3.52538 19.0534 4.78017C18.9712 5.61723 18.6412 6.45579 18.2906 7.23684C17.6861 8.58286 16.9248 9.86201 16.3409 11.2155C16.0944 11.787 16.0734 12.4741 16.0524 13.112C16.0234 13.9865 16.5624 14.3543 17.3826 13.9869C17.9872 13.7162 18.5396 13.3106 19.0679 12.9056C19.4949 12.5781 19.8182 12.1182 20.2515 11.8014C20.5044 11.6166 20.9723 11.4333 21.1834 11.544C21.4712 11.6947 21.7957 12.144 21.7678 12.4339C21.7079 13.0556 21.5376 13.7161 21.2251 14.2561C20.339 15.7875 18.9736 16.8769 17.4404 17.7363C16.5321 18.2454 15.5575 18.6548 14.5806 19.0286C13.5591 19.4194 12.9832 18.9572 13.1505 17.891C13.3755 16.4561 13.5893 15.0116 13.951 13.6068C14.5934 11.1118 15.005 8.5988 15.0714 6.02294C15.0886 5.35853 15.2729 4.67184 15.5162 4.04624C15.8221 3.25953 16.4804 2.84828 17.3637 2.84758Z" fill="white"/>
<path d="M35.4193 6.29637C36.0334 6.09773 36.6586 5.91942 37.2606 5.68394C37.4129 5.62435 37.5922 5.37004 37.5747 5.22718C37.5574 5.08617 37.3263 4.92137 37.1541 4.85658C36.5359 4.62433 35.3904 4.97807 35.0241 5.51082C34.9322 5.64456 34.8643 5.87322 34.9198 6.0028C34.9728 6.12626 35.2013 6.17707 35.4193 6.29637ZM30.4752 5.82599C30.6695 4.97034 30.7775 4.08396 31.0783 3.26595C31.5218 2.06002 32.4863 1.31951 33.7358 0.985171C35.1494 0.607062 36.5664 0.572299 37.9185 1.22516C39.2283 1.85757 39.8916 3.2648 39.5668 4.59788C39.4009 5.27892 38.9656 5.75404 38.3587 6.05108C37.7903 6.32929 37.1764 6.51754 36.5848 6.75082C36.1851 6.90835 35.7783 7.0549 35.3979 7.25019C35.2796 7.31083 35.1463 7.54792 35.1828 7.64517C35.2346 7.78294 35.4302 7.94278 35.5773 7.95618C35.8688 7.98251 36.2104 7.99533 36.4581 7.87187C37.2884 7.45819 38.0802 6.97025 38.901 6.53694C39.1422 6.40967 39.431 6.36925 39.6981 6.28898C39.7247 6.57747 39.8599 6.91424 39.7539 7.1436C39.5661 7.54989 39.3013 7.98181 38.9465 8.24317C37.4562 9.341 35.7651 9.99744 33.8935 10.0616C32.1882 10.1202 31.0616 9.17169 30.7492 7.50739C30.6477 6.96621 30.6251 6.41071 30.5664 5.86168C30.5361 5.84978 30.5056 5.83789 30.4752 5.82599Z" fill="white"/>
<path d="M22.6009 11.8909C22.7261 11.4262 22.9594 10.5389 23.2048 9.655C23.3872 8.99856 23.5874 8.34698 23.7755 7.69216C23.8934 7.28148 23.7719 7.07406 23.2958 7.04669C23.0595 7.03306 22.8329 6.85694 22.602 6.75427C22.7406 6.49789 22.8155 6.10084 23.0282 6.00776C24.4915 5.36783 25.3666 4.26654 25.8571 2.8093C25.9299 2.59276 26.0817 2.34458 26.2712 2.23717C26.5265 2.09235 26.8922 1.95318 27.1381 2.03125C27.3382 2.09477 27.4845 2.46676 27.5593 2.72823C27.6493 3.04213 27.6348 3.3842 27.6718 3.71346C27.7341 4.26838 27.925 4.3863 28.4526 4.2044C28.6651 4.13118 28.8743 4.02193 29.0924 3.99999C29.2767 3.98151 29.6206 4.03879 29.6336 4.10913C29.6719 4.31493 29.6545 4.61058 29.5242 4.7502C29.2364 5.0589 28.8746 5.30466 28.5283 5.55654C27.4346 6.35249 26.7377 7.34985 26.8991 8.74738C26.929 9.00584 27.0915 9.32655 27.2988 9.46121C27.4347 9.54944 27.7931 9.40312 27.9951 9.27539C28.2916 9.08807 28.5287 8.81274 28.807 8.59424C29.1564 8.31972 29.4515 8.38948 29.5858 8.81078C29.849 9.63664 29.5775 10.3807 29.1076 11.0509C28.2862 12.2222 27.0725 12.8888 25.7682 13.403C25.268 13.6001 24.7362 13.7767 24.2049 13.8299C23.0344 13.947 22.585 13.4957 22.6009 11.8909Z" fill="white"/>
<path d="M45.0665 5.08772C45.3294 4.9422 45.5773 4.88007 45.6639 4.72889C45.7159 4.63812 45.5601 4.33912 45.4213 4.25435C45.0318 4.01656 44.6135 3.81238 44.1832 3.65774C44.0385 3.60577 43.7184 3.69516 43.6667 3.8051C43.6012 3.9445 43.6633 4.2577 43.7834 4.34363C44.1775 4.6253 44.6227 4.83815 45.0665 5.08772ZM47.3188 6.67984C47.7375 7.03324 48.1822 7.36146 48.569 7.7458C49.1465 8.31932 49.744 8.8896 50.2183 9.54177C50.6078 10.0773 50.3597 10.4486 49.6922 10.3944C48.5014 10.2978 47.3563 9.99714 46.3498 9.33816C45.6442 8.8762 45.6098 8.48597 46.2166 7.92423C46.5519 7.61403 46.509 7.33131 46.2477 7.06511C45.6985 6.50522 45.0113 6.22898 44.2144 6.29908C43.7834 6.33696 43.6424 6.61725 43.8539 7.00598C44.0571 7.37936 44.3257 7.71832 44.5307 8.09088C44.7859 8.55515 44.6601 8.91374 44.1572 9.0454C43.241 9.28503 42.3054 9.35098 41.3858 9.05902C40.73 8.85091 40.5607 8.47257 40.7593 7.80955C40.9282 7.24597 41.1547 6.69024 41.2444 6.1143C41.3967 5.13726 40.9316 4.2793 40.5595 3.41244C40.4284 3.10686 40.281 2.80543 40.1803 2.49015C40.03 2.01919 40.2207 1.60123 40.6974 1.56659C41.3738 1.51739 42.0882 1.53852 42.7416 1.70194C45.1055 2.29347 47.0605 3.57124 48.6759 5.35011C48.9198 5.61885 49.1319 5.94799 49.25 6.2858C49.4005 6.71611 49.1721 6.9263 48.713 6.82986C48.2803 6.73909 47.8564 6.60755 47.4285 6.49391C47.392 6.55592 47.3554 6.61794 47.3188 6.67984Z" fill="white"/>
<path d="M37.2837 42.2525C41.1406 42.3408 44.802 39.2516 44.8137 34.9186C44.8252 30.614 41.3431 27.5119 37.3027 27.4918C33.1543 27.4711 29.7268 30.8161 29.7355 34.8725C29.7446 39.1012 33.3684 42.3611 37.2837 42.2525ZM47.0243 23.0359C47.0243 23.35 47.0097 23.665 47.0272 23.9782C47.0643 24.642 47.6384 25.0939 48.3021 24.965C49.9659 24.6419 51.6295 24.5767 53.2672 25.0613C55.8641 25.8297 57.7695 27.7563 57.8251 30.722C57.8644 32.8149 56.9164 34.5754 55.2752 35.8764C54.3365 36.6204 53.2316 37.1744 52.1629 37.7442C51.3774 38.1629 51.1654 38.7734 51.7569 39.4256C52.727 40.4951 53.5952 41.6158 54.0766 42.9924C55.4529 46.9289 53.1608 50.9382 49 51.7319C46.6367 52.1828 44.5546 51.4111 42.6798 50.0167C42.4553 49.8497 42.2414 49.6685 42.028 49.4877C41.3344 48.9006 40.6122 49.053 40.2849 49.8889C39.5926 51.6571 38.5648 53.1766 36.9298 54.2292C34.8648 55.559 32.5959 55.8217 30.2195 55.3338C27.0509 54.6832 24.4852 53.1038 22.8131 50.3494C21.1267 47.5713 21.3504 44.7514 22.9253 41.982C22.9894 41.8691 23.0616 41.7607 23.1285 41.6493C23.6797 40.7302 23.4324 40.1254 22.378 39.8284C20.8241 39.3906 19.3816 38.7263 18.129 37.717C15.423 35.5372 14.1643 32.7469 14.8546 29.3358C15.5455 25.9218 17.8008 23.8179 21.1528 22.8277C22.9278 22.3033 24.7417 22.2696 26.5641 22.5791C27.5577 22.7479 27.926 22.4545 28.1376 21.3536C28.5563 19.1744 29.6187 17.3673 31.4778 16.0837C33.5531 14.651 35.8914 14.2058 38.3943 14.4699C40.4841 14.6903 42.3716 15.3864 44.0058 16.7023C46.0408 18.3408 47.0249 20.4644 47.0243 23.0359Z" fill="white"/>
</svg>
