<svg width="73" height="74" viewBox="0 0 73 74" fill="none" xmlns="http://www.w3.org/2000/svg">
<path d="M7.36435 10.3479C7.18339 9.70864 7.0702 9.0313 6.7964 8.42372C6.55179 7.8808 6.08856 7.82352 5.73558 8.2819C5.40989 8.70505 5.14657 9.22659 5.03209 9.74248C4.85254 10.5519 4.95596 11.3714 5.55379 12.0309C6.03349 12.5599 6.60744 12.5088 6.91159 11.8746C7.12844 11.4224 7.20527 10.9054 7.36435 10.3479ZM0 15.5088C0.60995 13.1082 2.00328 11.0356 2.93197 8.76833C3.54933 7.26098 3.74041 5.72094 3.44838 4.10768C3.33802 3.49743 3.35825 2.85185 3.40791 2.22926C3.47474 1.39035 4.15458 0.854942 5.02938 1.00554C6.47248 1.25396 7.82369 1.75552 8.90546 2.78164C9.62695 3.46579 9.89969 4.33011 9.65625 5.26614C8.81933 8.48423 9.50764 11.4652 10.9778 14.3575C11.419 15.2255 11.8584 16.1198 12.1058 17.0513C12.4288 18.2675 11.1229 19.8983 9.85156 20.0458C8.41552 20.2123 7.45283 19.0959 7.72568 17.5854C7.88746 16.6899 7.95288 15.8225 7.15656 15.1286C6.54826 14.5985 5.84794 14.416 5.06609 14.5245C4.49426 14.6039 4.06727 15.1498 4.05292 15.8228C4.03809 16.5196 4.14105 17.2254 4.06186 17.9128C3.9322 19.0364 2.9941 19.5552 1.91951 19.1561C1.13566 18.8649 0.619716 18.3 0.32533 17.5337C0.221672 17.2637 0.108718 16.9971 0 16.729V15.5088Z" fill="#EF6A9A"/>
<path d="M57.7952 66.7844C57.6893 65.7226 57.4069 64.935 56.7772 64.3055C56.2417 63.7701 55.6934 63.9332 55.4892 64.6631C55.2644 65.466 55.6905 66.7462 56.411 67.2301C56.6632 67.3995 57.0883 67.5532 57.321 67.4551C57.5739 67.3484 57.6947 66.9402 57.7952 66.7844ZM52.4332 69.2619C52.6753 68.1483 52.8921 67.0288 53.1656 65.9228C53.5733 64.274 53.5805 62.6805 52.7153 61.1464C52.5088 60.7801 52.3819 60.3623 52.2699 59.9545C52.0789 59.2602 52.3674 58.742 53.0829 58.6566C54.7939 58.4522 56.4135 58.7827 57.8571 59.7284C58.4255 60.1008 58.768 60.6851 58.7602 61.3759C58.7256 64.482 60.236 66.9061 62.2504 69.119C62.7253 69.6408 63.2344 70.1473 63.6197 70.7297C64.2513 71.6844 63.8004 73.1816 62.7789 73.7661C61.8792 74.2809 60.5007 73.916 59.985 72.9658C59.7905 72.6074 59.6915 72.1608 59.6807 71.751C59.6337 69.9726 57.8079 69.1567 56.5845 69.3107C56.1583 69.3644 55.8839 69.6127 55.9365 70.0628C55.9766 70.4059 56.0733 70.7439 56.1621 71.0798C56.2372 71.3642 56.3636 71.6373 56.421 71.9242C56.571 72.6731 56.0193 73.1706 55.2622 73.02C53.9128 72.7516 52.3859 71.2175 52.4332 69.2619Z" fill="#EF6A9A"/>
<path d="M48.517 64.6398C49.142 64.6311 49.3181 64.3604 49.0834 63.8722C48.778 63.2364 48.2158 62.8975 47.538 62.8044C47.283 62.7694 46.8757 62.8781 46.7586 63.059C46.6398 63.2426 46.7098 63.6443 46.843 63.8662C47.2329 64.5161 47.965 64.514 48.517 64.6398ZM44.7584 57.0002C46.7752 56.9785 48.2296 57.9791 49.2864 59.5541C50.2403 60.9755 50.792 62.5657 50.8349 64.2844C50.8627 65.3998 50.2569 65.8974 49.1259 65.7764C48.8091 65.7425 48.4928 65.6864 48.1755 65.6806C48.0012 65.6773 47.7572 65.7055 47.6703 65.8153C47.5917 65.9149 47.6359 66.1673 47.7086 66.3126C48.1023 67.1005 49.0378 67.5972 49.9113 67.3961C50.2543 67.3173 50.5769 67.0226 50.8365 66.7579C51.1686 66.4192 51.5235 66.3781 51.7076 66.8081C52.0499 67.6075 52.1665 68.4591 51.7901 69.2773C51.5045 69.8983 50.7536 70.1172 49.9218 69.896C48.5418 69.5291 47.3991 68.7456 46.3736 67.8143C44.1534 65.798 42.6611 63.3304 41.8986 60.4587C41.7616 59.9422 41.7682 59.361 41.8363 58.8254C41.9671 57.7967 42.876 57.0961 44.0816 57.0027C44.3058 56.9853 44.5327 57.0002 44.7584 57.0002Z" fill="#EF6A9A"/>
<path d="M36.3834 61.3152C35.8471 61.3181 34.9232 62.0867 34.8222 62.6139C34.7538 62.9717 35.0686 63.3015 35.459 63.2808C35.9654 63.2542 36.8085 62.5729 36.9244 62.0966C37.0257 61.6801 36.7716 61.3131 36.3834 61.3152ZM39.2453 65.7406C39.2305 65.5287 39.2616 65.2023 39.1754 64.909C39.0236 64.3922 38.4011 64.0975 37.8528 64.2232C37.1406 64.3866 36.5144 64.9737 36.632 65.4764C36.6993 65.7637 36.9654 66.0305 37.1972 66.2505C37.4924 66.5307 37.8713 66.7263 38.1644 67.0081C38.6708 67.4951 38.6688 68.0318 38.1687 68.5151C37.5031 69.1583 36.6749 69.4993 35.7626 69.6331C35.2372 69.7102 34.8939 69.4827 34.7858 68.9484C34.7019 68.5335 34.6263 68.1145 34.505 67.7096C34.1878 66.6509 33.5477 66.1913 32.4343 66.193C32.1144 66.1936 31.7933 66.1917 31.4746 66.2158C31.0181 66.2503 30.895 66.0098 30.985 65.6363C31.0623 65.3153 31.1622 64.9905 31.3122 64.697C32.3183 62.7281 33.6029 60.9607 35.3902 59.6026C36.2368 58.9594 37.2157 58.5839 38.3278 58.653C39.4306 58.7215 40.3682 59.723 40.3338 60.812C40.3169 61.3477 39.9709 61.6768 39.597 62.001C38.9272 62.5817 38.9622 62.7376 39.7654 63.0998C40.3787 63.3763 41.0218 63.6214 41.5724 63.9934C42.6195 64.7007 43.2054 65.7223 43.2732 66.9771C43.3168 67.7849 42.8331 68.2587 42.0148 68.3033C41.2552 68.3448 40.5651 68.1295 39.9439 67.708C39.2709 67.2513 39.1465 66.5821 39.2453 65.7406Z" fill="#EF6A9A"/>
<path d="M64.9883 69.3481C64.9883 67.7243 65.0657 66.0958 64.9657 64.4781C64.8727 62.975 64.6014 61.4817 64.3869 59.9871C64.2705 59.1761 64.4722 58.4407 64.9163 57.7811C65.4602 56.9733 66.2259 56.406 67.1665 56.1057C67.8469 55.8884 68.3664 56.1504 68.4529 56.8429C68.5334 57.486 68.5341 58.1765 68.3821 58.8023C68.0164 60.3068 67.4892 61.7738 67.1299 63.2794C66.9399 64.076 66.9111 64.9223 66.9179 65.7453C66.9206 66.08 67.1752 66.6609 67.3791 66.6893C67.7074 66.7353 68.1969 66.5043 68.4261 66.2336C68.9991 65.5568 69.5211 64.8234 69.958 64.0548C70.4977 63.1055 70.9063 62.0851 71.422 61.1214C71.6262 60.7399 71.9432 60.4062 72.2554 60.096C72.3767 59.9753 72.6705 59.8896 72.8052 59.953C72.9289 60.0111 73.0239 60.3047 72.9943 60.4711C72.828 61.4111 72.7122 62.374 72.409 63.2739C71.5766 65.7445 70.4007 68.0602 68.6941 70.0672C68.0254 70.8536 67.2299 71.5542 66.4115 72.1945C65.6653 72.7786 65.1857 72.5392 65.005 71.6105C64.9521 71.3392 64.8974 71.0646 64.8864 70.7897C64.8672 70.31 64.8811 69.829 64.8811 69.3486C64.9168 69.3484 64.9525 69.3482 64.9883 69.3481Z" fill="#EF6A9A"/>
<path d="M17.3639 2.84758C18.4858 2.84816 19.1771 3.52538 19.0536 4.78017C18.9714 5.61723 18.6415 6.45579 18.2909 7.23684C17.6863 8.58286 16.9251 9.86201 16.3411 11.2155C16.0946 11.787 16.0737 12.4741 16.0526 13.112C16.0237 13.9865 16.5627 14.3543 17.3829 13.9869C17.9874 13.7162 18.5398 13.3106 19.0681 12.9056C19.4951 12.5781 19.8184 12.1182 20.2518 11.8014C20.5046 11.6166 20.9726 11.4333 21.1836 11.544C21.4714 11.6947 21.796 12.144 21.7681 12.4339C21.7082 13.0556 21.5378 13.7161 21.2253 14.2561C20.3392 15.7875 18.9739 16.8769 17.4406 17.7363C16.5323 18.2454 15.5577 18.6548 14.5808 19.0286C13.5594 19.4194 12.9834 18.9572 13.1508 17.891C13.3757 16.4561 13.5895 15.0116 13.9512 13.6068C14.5936 11.1118 15.0052 8.5988 15.0717 6.02294C15.0889 5.35853 15.2731 4.67184 15.5164 4.04624C15.8223 3.25953 16.4807 2.84828 17.3639 2.84758Z" fill="#EF6A9A"/>
<path d="M35.4192 6.29637C36.0332 6.09773 36.6585 5.91942 37.2604 5.68394C37.4128 5.62435 37.5921 5.37004 37.5746 5.22718C37.5573 5.08617 37.3262 4.92137 37.154 4.85658C36.5358 4.62433 35.3902 4.97807 35.024 5.51082C34.9321 5.64456 34.8642 5.87322 34.9197 6.0028C34.9727 6.12626 35.2012 6.17707 35.4192 6.29637ZM30.4751 5.82599C30.6694 4.97034 30.7774 4.08396 31.0782 3.26595C31.5217 2.06002 32.4861 1.31951 33.7357 0.985171C35.1493 0.607062 36.5662 0.572299 37.9184 1.22516C39.2282 1.85757 39.8914 3.2648 39.5667 4.59788C39.4008 5.27892 38.9655 5.75404 38.3586 6.05108C37.7901 6.32929 37.1763 6.51754 36.5847 6.75082C36.185 6.90835 35.7782 7.0549 35.3978 7.25019C35.2795 7.31083 35.1462 7.54792 35.1827 7.64517C35.2344 7.78294 35.4301 7.94278 35.5772 7.95618C35.8686 7.98251 36.2103 7.99533 36.458 7.87187C37.2883 7.45819 38.0801 6.97025 38.9009 6.53694C39.1421 6.40967 39.4309 6.36925 39.698 6.28898C39.7246 6.57747 39.8598 6.91424 39.7538 7.1436C39.566 7.54989 39.3011 7.98181 38.9464 8.24317C37.4561 9.341 35.765 9.99744 33.8934 10.0616C32.1881 10.1202 31.0615 9.17169 30.7491 7.50739C30.6476 6.96621 30.625 6.41071 30.5663 5.86168C30.5359 5.84978 30.5055 5.83789 30.4751 5.82599Z" fill="#EF6A9A"/>
<path d="M22.601 11.8909C22.7262 11.4262 22.9595 10.5389 23.2049 9.655C23.3873 8.99856 23.5876 8.34698 23.7756 7.69216C23.8935 7.28148 23.7721 7.07406 23.2959 7.04669C23.0596 7.03306 22.833 6.85694 22.6022 6.75427C22.7408 6.49789 22.8156 6.10084 23.0283 6.00776C24.4917 5.36783 25.3667 4.26654 25.8572 2.8093C25.9301 2.59276 26.0818 2.34458 26.2713 2.23717C26.5266 2.09235 26.8923 1.95318 27.1382 2.03125C27.3383 2.09477 27.4846 2.46676 27.5594 2.72823C27.6494 3.04213 27.635 3.3842 27.6719 3.71346C27.7343 4.26838 27.9251 4.3863 28.4527 4.2044C28.6652 4.13118 28.8744 4.02193 29.0925 3.99999C29.2768 3.98151 29.6207 4.03879 29.6338 4.10913C29.672 4.31493 29.6546 4.61058 29.5243 4.7502C29.2366 5.0589 28.8747 5.30466 28.5285 5.55654C27.4347 6.35249 26.7378 7.34985 26.8992 8.74738C26.9291 9.00584 27.0916 9.32655 27.2989 9.46121C27.4348 9.54944 27.7932 9.40312 27.9952 9.27539C28.2917 9.08807 28.5288 8.81274 28.8071 8.59424C29.1565 8.31972 29.4516 8.38948 29.5859 8.81078C29.8491 9.63664 29.5776 10.3807 29.1077 11.0509C28.2863 12.2222 27.0727 12.8888 25.7683 13.403C25.2681 13.6001 24.7363 13.7767 24.2051 13.8299C23.0346 13.947 22.5851 13.4957 22.601 11.8909Z" fill="#EF6A9A"/>
<path d="M45.0664 5.08772C45.3292 4.9422 45.5772 4.88007 45.6638 4.72889C45.7158 4.63812 45.56 4.33912 45.4211 4.25435C45.0317 4.01656 44.6134 3.81238 44.1831 3.65774C44.0384 3.60577 43.7182 3.69516 43.6666 3.8051C43.6011 3.9445 43.6632 4.2577 43.7833 4.34363C44.1774 4.6253 44.6226 4.83815 45.0664 5.08772ZM47.3186 6.67984C47.7374 7.03324 48.182 7.36146 48.5689 7.7458C49.1464 8.31932 49.7439 8.8896 50.2181 9.54177C50.6077 10.0773 50.3596 10.4486 49.6921 10.3944C48.5012 10.2978 47.3562 9.99714 46.3497 9.33816C45.6441 8.8762 45.6096 8.48597 46.2165 7.92423C46.5517 7.61403 46.5089 7.33131 46.2476 7.06511C45.6983 6.50522 45.0112 6.22898 44.2143 6.29908C43.7833 6.33696 43.6422 6.61725 43.8538 7.00598C44.057 7.37936 44.3256 7.71832 44.5306 8.09088C44.7858 8.55515 44.66 8.91374 44.1571 9.0454C43.2409 9.28503 42.3053 9.35098 41.3856 9.05902C40.7299 8.85091 40.5606 8.47257 40.7592 7.80955C40.9281 7.24597 41.1545 6.69024 41.2443 6.1143C41.3966 5.13726 40.9315 4.2793 40.5594 3.41244C40.4282 3.10686 40.2809 2.80543 40.1802 2.49015C40.0298 2.01919 40.2206 1.60123 40.6973 1.56659C41.3736 1.51739 42.0881 1.53852 42.7414 1.70194C45.1053 2.29347 47.0604 3.57124 48.6757 5.35011C48.9196 5.61885 49.1318 5.94799 49.2499 6.2858C49.4004 6.71611 49.172 6.9263 48.7129 6.82986C48.2802 6.73909 47.8562 6.60755 47.4284 6.49391C47.3918 6.55592 47.3552 6.61794 47.3186 6.67984Z" fill="#EF6A9A"/>
<path d="M37.2838 42.2525C41.1407 42.3408 44.8022 39.2516 44.8138 34.9186C44.8253 30.614 41.3432 27.5119 37.3029 27.4918C33.1544 27.4711 29.727 30.8161 29.7357 34.8725C29.7447 39.1012 33.3685 42.3611 37.2838 42.2525ZM47.0244 23.0359C47.0244 23.35 47.0098 23.665 47.0273 23.9782C47.0644 24.642 47.6385 25.0939 48.3022 24.965C49.966 24.6419 51.6296 24.5767 53.2673 25.0613C55.8642 25.8297 57.7696 27.7563 57.8252 30.722C57.8645 32.8149 56.9166 34.5754 55.2753 35.8764C54.3366 36.6204 53.2317 37.1744 52.163 37.7442C51.3775 38.1629 51.1656 38.7734 51.757 39.4256C52.7272 40.4951 53.5954 41.6158 54.0767 42.9924C55.453 46.9289 53.161 50.9382 49.0002 51.7319C46.6368 52.1828 44.5547 51.4111 42.6799 50.0167C42.4554 49.8497 42.2415 49.6685 42.0281 49.4877C41.3345 48.9006 40.6123 49.053 40.2851 49.8889C39.5928 51.6571 38.5649 53.1766 36.9299 54.2292C34.8649 55.559 32.596 55.8217 30.2196 55.3338C27.051 54.6832 24.4853 53.1038 22.8132 50.3494C21.1268 47.5713 21.3505 44.7514 22.9254 41.982C22.9895 41.8691 23.0617 41.7607 23.1286 41.6493C23.6798 40.7302 23.4325 40.1254 22.3781 39.8284C20.8242 39.3906 19.3817 38.7263 18.1291 37.717C15.4231 35.5372 14.1644 32.7469 14.8547 29.3358C15.5456 25.9218 17.8009 23.8179 21.1529 22.8277C22.928 22.3033 24.7418 22.2696 26.5643 22.5791C27.5578 22.7479 27.9262 22.4545 28.1377 21.3536C28.5565 19.1744 29.6188 17.3673 31.478 16.0837C33.5533 14.651 35.8915 14.2058 38.3944 14.4699C40.4843 14.6903 42.3718 15.3864 44.006 16.7023C46.0409 18.3408 47.025 20.4644 47.0244 23.0359Z" fill="#EF6A9A"/>
</svg>
