<svg width="256" height="256" viewBox="0 0 256 256" fill="none" xmlns="http://www.w3.org/2000/svg">
<path fill-rule="evenodd" clip-rule="evenodd" d="M49.7033 131.043C37.3971 155.945 30.4377 170.027 21.0729 200.915C15.9158 215.248 13.3743 226.697 19.912 240.967C25.1697 252.436 52.1283 258.672 67.2206 254.899C90.1953 249.155 90.3523 236.623 90.6084 216.187C90.637 213.904 90.6668 211.523 90.7298 209.041C90.9862 198.968 97.1151 185.242 111.337 181.759C125.558 178.276 142.557 179.92 153.421 187.854C167.643 198.239 165.598 209.86 162.709 223.263C157.836 245.87 188.211 259.407 213.21 253.157C227.141 249.675 245.716 242.709 245.716 219.2C245.716 201.993 231.28 183.971 220.45 170.452C216.483 165.5 213.001 161.152 210.888 157.669C184.631 114.382 188.423 74.9555 190.862 52.6036C192.603 36.6405 193.879 22.2099 180.994 11.9704C161.673 -3.38708 125.794 -1.27474 96.8248 3.55351C84.6349 5.58517 69.0993 17.1947 67.8011 30.8358C66.9143 40.154 66.4679 45.8716 68.439 55.0048C73.6546 79.1498 67.2177 95.3011 56.1916 117.861C53.8639 122.623 51.7123 126.977 49.7033 131.043ZM145.271 63.0644C145.273 62.9079 145.275 62.7514 145.275 62.595C145.276 58.4975 143.767 55.1136 140.647 52.5026C138.141 50.4058 135.247 49.2966 132.043 48.9453C128.205 48.5245 124.62 49.2339 121.438 51.5169C118.587 53.5622 116.958 56.4419 116.316 59.9143C115.992 61.6686 115.427 62.1361 113.904 61.8672C111.109 61.374 108.328 61.4277 105.607 62.2632C100.467 63.8411 97.0088 67.1937 95.9495 72.6338C94.891 78.0692 96.821 82.5155 100.97 85.989C102.891 87.5972 105.102 88.6558 107.485 89.3534C109.102 89.8267 109.481 90.7905 108.636 92.255C108.595 92.3262 108.552 92.3966 108.51 92.467C108.446 92.5721 108.383 92.6773 108.324 92.7852C105.909 97.1982 105.566 101.692 108.152 106.118C110.716 110.507 114.65 113.024 119.508 114.061C123.152 114.838 126.631 114.42 129.797 112.301C132.304 110.623 133.88 108.202 134.942 105.385C135.444 104.053 136.551 103.81 137.614 104.745L137.617 104.747C137.943 105.035 138.27 105.323 138.614 105.588C141.488 107.81 144.681 109.04 148.305 108.321C154.684 107.057 158.199 100.668 156.089 94.3952C155.35 92.2016 154.019 90.4158 152.532 88.7115C151.625 87.6723 151.95 86.6995 153.154 86.0323C153.337 85.9307 153.521 85.8295 153.706 85.7281C155.169 84.923 156.648 84.1089 157.926 83.056C160.443 80.9829 161.896 78.1776 161.836 74.8426C161.751 70.1168 158.829 67.0469 154.847 65.8225C152.336 65.0503 149.786 65.1541 147.234 65.669C146.217 65.8744 145.337 65.1543 145.28 64.0965C145.261 63.7533 145.266 63.4088 145.271 63.0644Z" fill="#F089AF"/>
</svg>
